  0
SECTION
  2
HEADER
  9
$ACADVER
  1
AC1009
  9
$EXTMIN
 10
0.0
 20
0.0
 30
0.0
  9
$EXTMAX
 10
1000.0
 20
1000.0
 30
0.0
  9
$FILLMODE
 70
 0
  9
$SPLFRAME
 70
 1
  0
ENDSEC
  0
SECTION
  2
TABLES
  0
TABLE
  2
LAYER
 70
1
  0
LAYER
  2
0
 70
     0
 62
     7
  6
CONTINUOUS
  0
ENDTAB
  0
ENDSEC
  0
SECTION
  2
ENTITIES
  0
LINE
  8
0
 62
     0
 10
33.671
 20
50.4652
 30
0.0
 11
8.09597
 21
50.4652
 31
0.0
  0
LINE
  8
0
 62
     0
 10
8.09597
 20
50.4652
 30
0.0
 11
8.09597
 21
8.36468
 31
0.0
  0
LINE
  8
0
 62
     0
 10
8.09597
 20
8.36468
 30
0.0
 11
69.2464
 21
8.36468
 31
0.0
  0
LINE
  8
0
 62
     0
 10
69.2464
 20
8.36468
 30
0.0
 11
69.2464
 21
50.4652
 31
0.0
  0
LINE
  8
0
 62
     0
 10
69.2464
 20
50.4652
 30
0.0
 11
43.67
 21
50.4652
 31
0.0
  0
LINE
  8
0
 62
     0
 10
43.67
 20
50.4652
 30
0.0
 11
43.67
 21
58.4659
 31
0.0
  0
LINE
  8
0
 62
     0
 10
43.67
 20
58.4659
 30
0.0
 11
73.2469
 21
58.4659
 31
0.0
  0
LINE
  8
0
 62
     0
 10
73.2469
 20
58.4659
 30
0.0
 11
73.5598
 21
58.4535
 31
0.0
  0
LINE
  8
0
 62
     0
 10
73.5598
 20
58.4535
 30
0.0
 11
73.871
 21
58.4165
 31
0.0
  0
LINE
  8
0
 62
     0
 10
73.871
 20
58.4165
 30
0.0
 11
74.1796
 21
58.3558
 31
0.0
  0
LINE
  8
0
 62
     0
 10
74.1796
 20
58.3558
 30
0.0
 11
74.483
 21
58.2704
 31
0.0
  0
LINE
  8
0
 62
     0
 10
74.483
 20
58.2704
 30
0.0
 11
74.7765
 21
58.1614
 31
0.0
  0
LINE
  8
0
 62
     0
 10
74.7765
 20
58.1614
 30
0.0
 11
75.0616
 21
58.0305
 31
0.0
  0
LINE
  8
0
 62
     0
 10
75.0616
 20
58.0305
 30
0.0
 11
75.336
 21
57.8764
 31
0.0
  0
LINE
  8
0
 62
     0
 10
75.336
 20
57.8764
 30
0.0
 11
75.5978
 21
57.7024
 31
0.0
  0
LINE
  8
0
 62
     0
 10
75.5978
 20
57.7024
 30
0.0
 11
75.843
 21
57.5084
 31
0.0
  0
LINE
  8
0
 62
     0
 10
75.843
 20
57.5084
 30
0.0
 11
76.0748
 21
57.2946
 31
0.0
  0
LINE
  8
0
 62
     0
 10
76.0748
 20
57.2946
 30
0.0
 11
76.2868
 21
57.0632
 31
0.0
  0
LINE
  8
0
 62
     0
 10
76.2868
 20
57.0632
 30
0.0
 11
76.4826
 21
56.818
 31
0.0
  0
LINE
  8
0
 62
     0
 10
76.4826
 20
56.818
 30
0.0
 11
76.6561
 21
56.5559
 31
0.0
  0
LINE
  8
0
 62
     0
 10
76.6561
 20
56.5559
 30
0.0
 11
76.8103
 21
56.2818
 31
0.0
  0
LINE
  8
0
 62
     0
 10
76.8103
 20
56.2818
 30
0.0
 11
76.9415
 21
55.9964
 31
0.0
  0
LINE
  8
0
 62
     0
 10
76.9415
 20
55.9964
 30
0.0
 11
77.0502
 21
55.7029
 31
0.0
  0
LINE
  8
0
 62
     0
 10
77.0502
 20
55.7029
 30
0.0
 11
77.1356
 21
55.3999
 31
0.0
  0
LINE
  8
0
 62
     0
 10
77.1356
 20
55.3999
 30
0.0
 11
77.1962
 21
55.0912
 31
0.0
  0
LINE
  8
0
 62
     0
 10
77.1962
 20
55.0912
 30
0.0
 11
77.2336
 21
54.7797
 31
0.0
  0
LINE
  8
0
 62
     0
 10
77.2336
 20
54.7797
 30
0.0
 11
77.246
 21
54.4657
 31
0.0
  0
LINE
  8
0
 62
     0
 10
77.246
 20
54.4657
 30
0.0
 11
77.246
 21
4.36425
 31
0.0
  0
LINE
  8
0
 62
     0
 10
77.246
 20
4.36425
 30
0.0
 11
77.2336
 21
4.05144
 31
0.0
  0
LINE
  8
0
 62
     0
 10
77.2336
 20
4.05144
 30
0.0
 11
77.1962
 21
3.74001
 31
0.0
  0
LINE
  8
0
 62
     0
 10
77.1962
 20
3.74001
 30
0.0
 11
77.1356
 21
3.43131
 31
0.0
  0
LINE
  8
0
 62
     0
 10
77.1356
 20
3.43131
 30
0.0
 11
77.0502
 21
3.12815
 31
0.0
  0
LINE
  8
0
 62
     0
 10
77.0502
 20
3.12815
 30
0.0
 11
76.9415
 21
2.83463
 31
0.0
  0
LINE
  8
0
 62
     0
 10
76.9415
 20
2.83463
 30
0.0
 11
76.8103
 21
2.54937
 31
0.0
  0
LINE
  8
0
 62
     0
 10
76.8103
 20
2.54937
 30
0.0
 11
76.6561
 21
2.27514
 31
0.0
  0
LINE
  8
0
 62
     0
 10
76.6561
 20
2.27514
 30
0.0
 11
76.4826
 21
2.01331
 31
0.0
  0
LINE
  8
0
 62
     0
 10
76.4826
 20
2.01331
 30
0.0
 11
76.2868
 21
1.76802
 31
0.0
  0
LINE
  8
0
 62
     0
 10
76.2868
 20
1.76802
 30
0.0
 11
76.0748
 21
1.53651
 31
0.0
  0
LINE
  8
0
 62
     0
 10
76.0748
 20
1.53651
 30
0.0
 11
75.843
 21
1.3243
 31
0.0
  0
LINE
  8
0
 62
     0
 10
75.843
 20
1.3243
 30
0.0
 11
75.5978
 21
1.12861
 31
0.0
  0
LINE
  8
0
 62
     0
 10
75.5978
 20
1.12861
 30
0.0
 11
75.336
 21
0.95498
 31
0.0
  0
LINE
  8
0
 62
     0
 10
75.336
 20
0.95498
 30
0.0
 11
75.0616
 21
0.80064
 31
0.0
  0
LINE
  8
0
 62
     0
 10
75.0616
 20
0.80064
 30
0.0
 11
74.7765
 21
0.669727
 31
0.0
  0
LINE
  8
0
 62
     0
 10
74.7765
 20
0.669727
 30
0.0
 11
74.483
 21
0.56086
 31
0.0
  0
LINE
  8
0
 62
     0
 10
74.483
 20
0.56086
 30
0.0
 11
74.1796
 21
0.475424
 31
0.0
  0
LINE
  8
0
 62
     0
 10
74.1796
 20
0.475424
 30
0.0
 11
73.871
 21
0.414789
 31
0.0
  0
LINE
  8
0
 62
     0
 10
73.871
 20
0.414789
 30
0.0
 11
73.5598
 21
0.377582
 31
0.0
  0
LINE
  8
0
 62
     0
 10
73.5598
 20
0.377582
 30
0.0
 11
73.2455
 21
0.365181
 31
0.0
  0
LINE
  8
0
 62
     0
 10
73.2455
 20
0.365181
 30
0.0
 11
4.09554
 21
0.365181
 31
0.0
  0
LINE
  8
0
 62
     0
 10
4.09554
 20
0.365181
 30
0.0
 11
3.78135
 21
0.377582
 31
0.0
  0
LINE
  8
0
 62
     0
 10
3.78135
 20
0.377582
 30
0.0
 11
3.4699
 21
0.414789
 31
0.0
  0
LINE
  8
0
 62
     0
 10
3.4699
 20
0.414789
 30
0.0
 11
3.16122
 21
0.475424
 31
0.0
  0
LINE
  8
0
 62
     0
 10
3.16122
 20
0.475424
 30
0.0
 11
2.85805
 21
0.56086
 31
0.0
  0
LINE
  8
0
 62
     0
 10
2.85805
 20
0.56086
 30
0.0
 11
2.56453
 21
0.669727
 31
0.0
  0
LINE
  8
0
 62
     0
 10
2.56453
 20
0.669727
 30
0.0
 11
2.27928
 21
0.80064
 31
0.0
  0
LINE
  8
0
 62
     0
 10
2.27928
 20
0.80064
 30
0.0
 11
2.00504
 21
0.95498
 31
0.0
  0
LINE
  8
0
 62
     0
 10
2.00504
 20
0.95498
 30
0.0
 11
1.74322
 21
1.12861
 31
0.0
  0
LINE
  8
0
 62
     0
 10
1.74322
 20
1.12861
 30
0.0
 11
1.49793
 21
1.3243
 31
0.0
  0
LINE
  8
0
 62
     0
 10
1.49793
 20
1.3243
 30
0.0
 11
1.26642
 21
1.53651
 31
0.0
  0
LINE
  8
0
 62
     0
 10
1.26642
 20
1.53651
 30
0.0
 11
1.05282
 21
1.76802
 31
0.0
  0
LINE
  8
0
 62
     0
 10
1.05282
 20
1.76802
 30
0.0
 11
0.858516
 21
2.01331
 31
0.0
  0
LINE
  8
0
 62
     0
 10
0.858516
 20
2.01331
 30
0.0
 11
0.684886
 21
2.27514
 31
0.0
  0
LINE
  8
0
 62
     0
 10
0.684886
 20
2.27514
 30
0.0
 11
0.530546
 21
2.54937
 31
0.0
  0
LINE
  8
0
 62
     0
 10
0.530546
 20
2.54937
 30
0.0
 11
0.39963
 21
2.83463
 31
0.0
  0
LINE
  8
0
 62
     0
 10
0.39963
 20
2.83463
 30
0.0
 11
0.290766
 21
3.12815
 31
0.0
  0
LINE
  8
0
 62
     0
 10
0.290766
 20
3.12815
 30
0.0
 11
0.205328
 21
3.43131
 31
0.0
  0
LINE
  8
0
 62
     0
 10
0.205328
 20
3.43131
 30
0.0
 11
0.144694
 21
3.74001
 31
0.0
  0
LINE
  8
0
 62
     0
 10
0.144694
 20
3.74001
 30
0.0
 11
0.107487
 21
4.05144
 31
0.0
  0
LINE
  8
0
 62
     0
 10
0.107487
 20
4.05144
 30
0.0
 11
0.0950846
 21
4.36563
 31
0.0
  0
LINE
  8
0
 62
     0
 10
0.0950846
 20
4.36563
 30
0.0
 11
0.0950846
 21
54.4657
 31
0.0
  0
LINE
  8
0
 62
     0
 10
0.0950846
 20
54.4657
 30
0.0
 11
0.107487
 21
54.7797
 31
0.0
  0
LINE
  8
0
 62
     0
 10
0.107487
 20
54.7797
 30
0.0
 11
0.144694
 21
55.0912
 31
0.0
  0
LINE
  8
0
 62
     0
 10
0.144694
 20
55.0912
 30
0.0
 11
0.205328
 21
55.3999
 31
0.0
  0
LINE
  8
0
 62
     0
 10
0.205328
 20
55.3999
 30
0.0
 11
0.290766
 21
55.7029
 31
0.0
  0
LINE
  8
0
 62
     0
 10
0.290766
 20
55.7029
 30
0.0
 11
0.39963
 21
55.9964
 31
0.0
  0
LINE
  8
0
 62
     0
 10
0.39963
 20
55.9964
 30
0.0
 11
0.530546
 21
56.2818
 31
0.0
  0
LINE
  8
0
 62
     0
 10
0.530546
 20
56.2818
 30
0.0
 11
0.684886
 21
56.5559
 31
0.0
  0
LINE
  8
0
 62
     0
 10
0.684886
 20
56.5559
 30
0.0
 11
0.858516
 21
56.818
 31
0.0
  0
LINE
  8
0
 62
     0
 10
0.858516
 20
56.818
 30
0.0
 11
1.05282
 21
57.0632
 31
0.0
  0
LINE
  8
0
 62
     0
 10
1.05282
 20
57.0632
 30
0.0
 11
1.26642
 21
57.2946
 31
0.0
  0
LINE
  8
0
 62
     0
 10
1.26642
 20
57.2946
 30
0.0
 11
1.49793
 21
57.5084
 31
0.0
  0
LINE
  8
0
 62
     0
 10
1.49793
 20
57.5084
 30
0.0
 11
1.74322
 21
57.7024
 31
0.0
  0
LINE
  8
0
 62
     0
 10
1.74322
 20
57.7024
 30
0.0
 11
2.00504
 21
57.8764
 31
0.0
  0
LINE
  8
0
 62
     0
 10
2.00504
 20
57.8764
 30
0.0
 11
2.27928
 21
58.0305
 31
0.0
  0
LINE
  8
0
 62
     0
 10
2.27928
 20
58.0305
 30
0.0
 11
2.56453
 21
58.1614
 31
0.0
  0
LINE
  8
0
 62
     0
 10
2.56453
 20
58.1614
 30
0.0
 11
2.85805
 21
58.2704
 31
0.0
  0
LINE
  8
0
 62
     0
 10
2.85805
 20
58.2704
 30
0.0
 11
3.16122
 21
58.3558
 31
0.0
  0
LINE
  8
0
 62
     0
 10
3.16122
 20
58.3558
 30
0.0
 11
3.4699
 21
58.4165
 31
0.0
  0
LINE
  8
0
 62
     0
 10
3.4699
 20
58.4165
 30
0.0
 11
3.78135
 21
58.4535
 31
0.0
  0
LINE
  8
0
 62
     0
 10
3.78135
 20
58.4535
 30
0.0
 11
4.09554
 21
58.4659
 31
0.0
  0
LINE
  8
0
 62
     0
 10
4.09554
 20
58.4659
 30
0.0
 11
33.671
 21
58.4659
 31
0.0
  0
LINE
  8
0
 62
     0
 10
33.671
 20
58.4659
 30
0.0
 11
33.671
 21
50.4652
 31
0.0
  0
LINE
  8
0
 62
     0
 10
3.63114
 20
5.79191
 30
0.0
 11
3.21359
 21
5.5783
 31
0.0
  0
LINE
  8
0
 62
     0
 10
3.21359
 20
5.5783
 30
0.0
 11
2.88148
 21
5.24619
 31
0.0
  0
LINE
  8
0
 62
     0
 10
2.88148
 20
5.24619
 30
0.0
 11
2.66788
 21
4.82865
 31
0.0
  0
LINE
  8
0
 62
     0
 10
2.66788
 20
4.82865
 30
0.0
 11
2.59485
 21
4.36425
 31
0.0
  0
LINE
  8
0
 62
     0
 10
2.59485
 20
4.36425
 30
0.0
 11
2.66788
 21
3.90123
 31
0.0
  0
LINE
  8
0
 62
     0
 10
2.66788
 20
3.90123
 30
0.0
 11
2.88148
 21
3.48368
 31
0.0
  0
LINE
  8
0
 62
     0
 10
2.88148
 20
3.48368
 30
0.0
 11
3.21359
 21
3.15157
 31
0.0
  0
LINE
  8
0
 62
     0
 10
3.21359
 20
3.15157
 30
0.0
 11
3.63114
 21
2.93798
 31
0.0
  0
LINE
  8
0
 62
     0
 10
3.63114
 20
2.93798
 30
0.0
 11
4.09554
 21
2.86494
 31
0.0
  0
LINE
  8
0
 62
     0
 10
4.09554
 20
2.86494
 30
0.0
 11
4.55856
 21
2.93798
 31
0.0
  0
LINE
  8
0
 62
     0
 10
4.55856
 20
2.93798
 30
0.0
 11
4.97611
 21
3.15157
 31
0.0
  0
LINE
  8
0
 62
     0
 10
4.97611
 20
3.15157
 30
0.0
 11
5.30821
 21
3.48368
 31
0.0
  0
LINE
  8
0
 62
     0
 10
5.30821
 20
3.48368
 30
0.0
 11
5.52178
 21
3.90123
 31
0.0
  0
LINE
  8
0
 62
     0
 10
5.52178
 20
3.90123
 30
0.0
 11
5.59484
 21
4.36425
 31
0.0
  0
LINE
  8
0
 62
     0
 10
5.59484
 20
4.36425
 30
0.0
 11
5.52178
 21
4.82865
 31
0.0
  0
LINE
  8
0
 62
     0
 10
5.52178
 20
4.82865
 30
0.0
 11
5.30821
 21
5.24619
 31
0.0
  0
LINE
  8
0
 62
     0
 10
5.30821
 20
5.24619
 30
0.0
 11
4.97611
 21
5.5783
 31
0.0
  0
LINE
  8
0
 62
     0
 10
4.97611
 20
5.5783
 30
0.0
 11
4.55856
 21
5.79191
 31
0.0
  0
LINE
  8
0
 62
     0
 10
4.55856
 20
5.79191
 30
0.0
 11
4.09554
 21
5.86493
 31
0.0
  0
LINE
  8
0
 62
     0
 10
4.09554
 20
5.86493
 30
0.0
 11
3.63114
 21
5.79191
 31
0.0
  0
LINE
  8
0
 62
     0
 10
72.7826
 20
5.79191
 30
0.0
 11
72.365
 21
5.5783
 31
0.0
  0
LINE
  8
0
 62
     0
 10
72.365
 20
5.5783
 30
0.0
 11
72.033
 21
5.24619
 31
0.0
  0
LINE
  8
0
 62
     0
 10
72.033
 20
5.24619
 30
0.0
 11
71.8192
 21
4.82865
 31
0.0
  0
LINE
  8
0
 62
     0
 10
71.8192
 20
4.82865
 30
0.0
 11
71.7462
 21
4.36425
 31
0.0
  0
LINE
  8
0
 62
     0
 10
71.7462
 20
4.36425
 30
0.0
 11
71.8192
 21
3.90123
 31
0.0
  0
LINE
  8
0
 62
     0
 10
71.8192
 20
3.90123
 30
0.0
 11
72.033
 21
3.48368
 31
0.0
  0
LINE
  8
0
 62
     0
 10
72.033
 20
3.48368
 30
0.0
 11
72.365
 21
3.15157
 31
0.0
  0
LINE
  8
0
 62
     0
 10
72.365
 20
3.15157
 30
0.0
 11
72.7826
 21
2.93798
 31
0.0
  0
LINE
  8
0
 62
     0
 10
72.7826
 20
2.93798
 30
0.0
 11
73.2469
 21
2.86494
 31
0.0
  0
LINE
  8
0
 62
     0
 10
73.2469
 20
2.86494
 30
0.0
 11
73.7097
 21
2.93798
 31
0.0
  0
LINE
  8
0
 62
     0
 10
73.7097
 20
2.93798
 30
0.0
 11
74.1274
 21
3.15157
 31
0.0
  0
LINE
  8
0
 62
     0
 10
74.1274
 20
3.15157
 30
0.0
 11
74.4594
 21
3.48368
 31
0.0
  0
LINE
  8
0
 62
     0
 10
74.4594
 20
3.48368
 30
0.0
 11
74.6732
 21
3.90123
 31
0.0
  0
LINE
  8
0
 62
     0
 10
74.6732
 20
3.90123
 30
0.0
 11
74.7462
 21
4.36425
 31
0.0
  0
LINE
  8
0
 62
     0
 10
74.7462
 20
4.36425
 30
0.0
 11
74.6732
 21
4.82865
 31
0.0
  0
LINE
  8
0
 62
     0
 10
74.6732
 20
4.82865
 30
0.0
 11
74.4594
 21
5.24619
 31
0.0
  0
LINE
  8
0
 62
     0
 10
74.4594
 20
5.24619
 30
0.0
 11
74.1274
 21
5.5783
 31
0.0
  0
LINE
  8
0
 62
     0
 10
74.1274
 20
5.5783
 30
0.0
 11
73.7097
 21
5.79191
 31
0.0
  0
LINE
  8
0
 62
     0
 10
73.7097
 20
5.79191
 30
0.0
 11
73.2469
 21
5.86493
 31
0.0
  0
LINE
  8
0
 62
     0
 10
73.2469
 20
5.86493
 30
0.0
 11
72.7826
 21
5.79191
 31
0.0
  0
LINE
  8
0
 62
     0
 10
3.63114
 20
55.8934
 30
0.0
 11
3.21359
 21
55.6796
 31
0.0
  0
LINE
  8
0
 62
     0
 10
3.21359
 20
55.6796
 30
0.0
 11
2.88148
 21
55.3477
 31
0.0
  0
LINE
  8
0
 62
     0
 10
2.88148
 20
55.3477
 30
0.0
 11
2.66788
 21
54.93
 31
0.0
  0
LINE
  8
0
 62
     0
 10
2.66788
 20
54.93
 30
0.0
 11
2.59485
 21
54.4657
 31
0.0
  0
LINE
  8
0
 62
     0
 10
2.59485
 20
54.4657
 30
0.0
 11
2.66788
 21
54.0025
 31
0.0
  0
LINE
  8
0
 62
     0
 10
2.66788
 20
54.0025
 30
0.0
 11
2.88148
 21
53.5852
 31
0.0
  0
LINE
  8
0
 62
     0
 10
2.88148
 20
53.5852
 30
0.0
 11
3.21359
 21
53.2529
 31
0.0
  0
LINE
  8
0
 62
     0
 10
3.21359
 20
53.2529
 30
0.0
 11
3.63114
 21
53.0394
 31
0.0
  0
LINE
  8
0
 62
     0
 10
3.63114
 20
53.0394
 30
0.0
 11
4.09554
 21
52.9664
 31
0.0
  0
LINE
  8
0
 62
     0
 10
4.09554
 20
52.9664
 30
0.0
 11
4.55856
 21
53.0394
 31
0.0
  0
LINE
  8
0
 62
     0
 10
4.55856
 20
53.0394
 30
0.0
 11
4.97611
 21
53.2529
 31
0.0
  0
LINE
  8
0
 62
     0
 10
4.97611
 20
53.2529
 30
0.0
 11
5.30821
 21
53.5852
 31
0.0
  0
LINE
  8
0
 62
     0
 10
5.30821
 20
53.5852
 30
0.0
 11
5.52178
 21
54.0025
 31
0.0
  0
LINE
  8
0
 62
     0
 10
5.52178
 20
54.0025
 30
0.0
 11
5.59484
 21
54.4657
 31
0.0
  0
LINE
  8
0
 62
     0
 10
5.59484
 20
54.4657
 30
0.0
 11
5.52178
 21
54.93
 31
0.0
  0
LINE
  8
0
 62
     0
 10
5.52178
 20
54.93
 30
0.0
 11
5.30821
 21
55.3477
 31
0.0
  0
LINE
  8
0
 62
     0
 10
5.30821
 20
55.3477
 30
0.0
 11
4.97611
 21
55.6796
 31
0.0
  0
LINE
  8
0
 62
     0
 10
4.97611
 20
55.6796
 30
0.0
 11
4.55856
 21
55.8934
 31
0.0
  0
LINE
  8
0
 62
     0
 10
4.55856
 20
55.8934
 30
0.0
 11
4.09554
 21
55.9664
 31
0.0
  0
LINE
  8
0
 62
     0
 10
4.09554
 20
55.9664
 30
0.0
 11
3.63114
 21
55.8934
 31
0.0
  0
LINE
  8
0
 62
     0
 10
72.7826
 20
55.8934
 30
0.0
 11
72.365
 21
55.6796
 31
0.0
  0
LINE
  8
0
 62
     0
 10
72.365
 20
55.6796
 30
0.0
 11
72.033
 21
55.3477
 31
0.0
  0
LINE
  8
0
 62
     0
 10
72.033
 20
55.3477
 30
0.0
 11
71.8192
 21
54.93
 31
0.0
  0
LINE
  8
0
 62
     0
 10
71.8192
 20
54.93
 30
0.0
 11
71.7462
 21
54.4657
 31
0.0
  0
LINE
  8
0
 62
     0
 10
71.7462
 20
54.4657
 30
0.0
 11
71.8192
 21
54.0025
 31
0.0
  0
LINE
  8
0
 62
     0
 10
71.8192
 20
54.0025
 30
0.0
 11
72.033
 21
53.5852
 31
0.0
  0
LINE
  8
0
 62
     0
 10
72.033
 20
53.5852
 30
0.0
 11
72.365
 21
53.2529
 31
0.0
  0
LINE
  8
0
 62
     0
 10
72.365
 20
53.2529
 30
0.0
 11
72.7826
 21
53.0394
 31
0.0
  0
LINE
  8
0
 62
     0
 10
72.7826
 20
53.0394
 30
0.0
 11
73.2469
 21
52.9664
 31
0.0
  0
LINE
  8
0
 62
     0
 10
73.2469
 20
52.9664
 30
0.0
 11
73.7097
 21
53.0394
 31
0.0
  0
LINE
  8
0
 62
     0
 10
73.7097
 20
53.0394
 30
0.0
 11
74.1274
 21
53.2529
 31
0.0
  0
LINE
  8
0
 62
     0
 10
74.1274
 20
53.2529
 30
0.0
 11
74.4594
 21
53.5852
 31
0.0
  0
LINE
  8
0
 62
     0
 10
74.4594
 20
53.5852
 30
0.0
 11
74.6732
 21
54.0025
 31
0.0
  0
LINE
  8
0
 62
     0
 10
74.6732
 20
54.0025
 30
0.0
 11
74.7462
 21
54.4657
 31
0.0
  0
LINE
  8
0
 62
     0
 10
74.7462
 20
54.4657
 30
0.0
 11
74.6732
 21
54.93
 31
0.0
  0
LINE
  8
0
 62
     0
 10
74.6732
 20
54.93
 30
0.0
 11
74.4594
 21
55.3477
 31
0.0
  0
LINE
  8
0
 62
     0
 10
74.4594
 20
55.3477
 30
0.0
 11
74.1274
 21
55.6796
 31
0.0
  0
LINE
  8
0
 62
     0
 10
74.1274
 20
55.6796
 30
0.0
 11
73.7097
 21
55.8934
 31
0.0
  0
LINE
  8
0
 62
     0
 10
73.7097
 20
55.8934
 30
0.0
 11
73.2469
 21
55.9664
 31
0.0
  0
LINE
  8
0
 62
     0
 10
73.2469
 20
55.9664
 30
0.0
 11
72.7826
 21
55.8934
 31
0.0
  0
ENDSEC
  0
EOF
