<?xml version="1.0"?>
<!-- Generated by SVGo -->
<svg width="83.152mm" height="64.102mm"
     viewBox="0.000 0.000 83.152 64.102"
     xmlns="http://www.w3.org/2000/svg" 
     xmlns:xlink="http://www.w3.org/1999/xlink">
<polygon points="76.152,5.001 76.308,5.007 76.464,5.025 76.618,5.056 76.770,5.098 76.917,5.153 77.059,5.218 77.196,5.295 77.327,5.382 77.450,5.480 77.566,5.586 77.672,5.702 77.770,5.825 77.857,5.956 77.934,6.093 77.999,6.235 78.054,6.382 78.096,6.534 78.127,6.688 78.145,6.844 78.151,7.001 78.152,57.102 78.145,57.258 78.127,57.414 78.096,57.568 78.054,57.720 77.999,57.867 77.934,58.009 77.857,58.146 77.770,58.277 77.672,58.400 77.566,58.516 77.450,58.622 77.327,58.720 77.196,58.807 77.059,58.884 76.917,58.949 76.770,59.004 76.618,59.046 76.464,59.077 76.308,59.095 76.152,59.102 7.001,59.102 6.844,59.095 6.688,59.077 6.534,59.046 6.382,59.004 6.235,58.949 6.093,58.884 5.956,58.807 5.825,58.720 5.702,58.622 5.586,58.516 5.480,58.400 5.382,58.277 5.295,58.146 5.218,58.009 5.153,57.867 5.098,57.720 5.056,57.568 5.025,57.414 5.007,57.258 5.000,57.101 5.001,7.001 5.007,6.844 5.025,6.688 5.056,6.534 5.098,6.382 5.153,6.235 5.218,6.093 5.295,5.956 5.382,5.825 5.480,5.702 5.586,5.586 5.702,5.480 5.825,5.382 5.956,5.295 6.093,5.218 6.235,5.153 6.382,5.098 6.534,5.056 6.688,5.025 6.844,5.007 7.001,5.000" style="fill:none;stroke-width:0.050000mm;stroke:black"/>
<polygon points="8.537,53.675 8.119,53.888 7.787,54.220 7.574,54.638 7.500,55.102 7.574,55.565 7.787,55.983 8.119,56.315 8.537,56.528 9.001,56.602 9.464,56.528 9.882,56.315 10.214,55.983 10.427,55.565 10.501,55.102 10.427,54.638 10.214,54.220 9.882,53.888 9.464,53.675 9.001,53.602" style="fill:none;stroke-width:0.050000mm;stroke:black"/>
<polygon points="73.688,53.675 73.270,53.888 72.938,54.220 72.725,54.638 72.652,55.102 72.725,55.565 72.938,55.983 73.270,56.315 73.688,56.528 74.152,56.602 74.615,56.528 75.033,56.315 75.365,55.983 75.578,55.565 75.652,55.102 75.578,54.638 75.365,54.220 75.033,53.888 74.615,53.675 74.152,53.602" style="fill:none;stroke-width:0.050000mm;stroke:black"/>
<polygon points="53.626,34.576 53.626,35.576 52.826,35.576 52.826,38.676 53.626,38.676 53.626,44.476 52.826,44.476 52.826,47.576 53.626,47.576 53.626,48.576 67.626,48.576 67.626,47.576 68.426,47.576 68.426,44.476 67.626,44.476 67.626,38.676 68.426,38.676 68.426,35.576 67.626,35.576 67.626,34.576" style="fill:none;stroke-width:0.050000mm;stroke:black"/>
<polygon points="34.576,34.576 34.576,35.576 33.776,35.576 33.776,38.676 34.576,38.676 34.576,44.476 33.776,44.476 33.776,47.576 34.576,47.576 34.576,48.576 48.576,48.576 48.576,47.576 49.376,47.576 49.376,44.476 48.576,44.476 48.576,38.676 49.376,38.676 49.376,35.576 48.576,35.576 48.576,34.576" style="fill:none;stroke-width:0.050000mm;stroke:black"/>
<polygon points="15.525,34.576 15.525,35.576 14.725,35.576 14.725,38.676 15.525,38.676 15.525,44.476 14.725,44.476 14.725,47.576 15.525,47.576 15.525,48.576 29.526,48.576 29.526,47.576 30.326,47.576 30.326,44.476 29.526,44.476 29.526,38.676 30.326,38.676 30.326,35.576 29.526,35.576 29.526,34.576" style="fill:none;stroke-width:0.050000mm;stroke:black"/>
<polygon points="53.626,15.525 53.626,16.526 52.826,16.526 52.826,19.626 53.626,19.626 53.626,25.425 52.826,25.425 52.826,28.526 53.626,28.526 53.626,29.526 67.626,29.526 67.626,28.526 68.426,28.526 68.426,25.425 67.626,25.425 67.626,19.626 68.426,19.626 68.426,16.526 67.626,16.526 67.626,15.525" style="fill:none;stroke-width:0.050000mm;stroke:black"/>
<polygon points="34.576,15.525 34.576,16.526 33.776,16.526 33.776,19.626 34.576,19.626 34.576,25.425 33.776,25.425 33.776,28.526 34.576,28.526 34.576,29.526 48.576,29.526 48.576,28.526 49.376,28.526 49.376,25.425 48.576,25.425 48.576,19.626 49.376,19.626 49.376,16.526 48.576,16.526 48.576,15.525" style="fill:none;stroke-width:0.050000mm;stroke:black"/>
<polygon points="15.525,15.525 15.525,16.526 14.725,16.526 14.725,19.626 15.525,19.626 15.525,25.425 14.725,25.425 14.725,28.526 15.525,28.526 15.525,29.526 29.526,29.526 29.526,28.526 30.326,28.526 30.326,25.425 29.526,25.425 29.526,19.626 30.326,19.626 30.326,16.526 29.526,16.526 29.526,15.525" style="fill:none;stroke-width:0.050000mm;stroke:black"/>
<polygon points="8.537,7.574 8.119,7.787 7.787,8.119 7.574,8.537 7.500,9.001 7.574,9.464 7.787,9.882 8.119,10.214 8.537,10.427 9.001,10.501 9.464,10.427 9.882,10.214 10.214,9.882 10.427,9.464 10.501,9.001 10.427,8.537 10.214,8.119 9.882,7.787 9.464,7.574 9.001,7.501" style="fill:none;stroke-width:0.050000mm;stroke:black"/>
<polygon points="73.688,7.574 73.270,7.787 72.938,8.119 72.725,8.537 72.652,9.001 72.725,9.464 72.938,9.882 73.270,10.214 73.688,10.427 74.152,10.501 74.615,10.427 75.033,10.214 75.365,9.882 75.578,9.464 75.652,9.001 75.578,8.537 75.365,8.119 75.033,7.787 74.615,7.574 74.152,7.501" style="fill:none;stroke-width:0.050000mm;stroke:black"/>
</svg>
