  0
SECTION
  2
HEADER
  9
$ACADVER
  1
AC1009
  9
$EXTMIN
 10
0.0
 20
0.0
 30
0.0
  9
$EXTMAX
 10
1000.0
 20
1000.0
 30
0.0
  9
$FILLMODE
 70
 0
  9
$SPLFRAME
 70
 1
  0
ENDSEC
  0
SECTION
  2
TABLES
  0
TABLE
  2
LAYER
 70
1
  0
LAYER
  2
0
 70
     0
 62
     7
  6
CONTINUOUS
  0
ENDTAB
  0
ENDSEC
  0
SECTION
  2
ENTITIES
  0
LINE
  8
0
 62
     0
 10
71.2459
 20
54.2325
 30
0.0
 11
71.4029
 21
54.2258
 31
0.0
  0
LINE
  8
0
 62
     0
 10
71.4029
 20
54.2258
 30
0.0
 11
71.5589
 21
54.2078
 31
0.0
  0
LINE
  8
0
 62
     0
 10
71.5589
 20
54.2078
 30
0.0
 11
71.713
 21
54.1775
 31
0.0
  0
LINE
  8
0
 62
     0
 10
71.713
 20
54.1775
 30
0.0
 11
71.8647
 21
54.1348
 31
0.0
  0
LINE
  8
0
 62
     0
 10
71.8647
 20
54.1348
 30
0.0
 11
72.0122
 21
54.0798
 31
0.0
  0
LINE
  8
0
 62
     0
 10
72.0122
 20
54.0798
 30
0.0
 11
72.154
 21
54.0149
 31
0.0
  0
LINE
  8
0
 62
     0
 10
72.154
 20
54.0149
 30
0.0
 11
72.2905
 21
53.938
 31
0.0
  0
LINE
  8
0
 62
     0
 10
72.2905
 20
53.938
 30
0.0
 11
72.4214
 21
53.8508
 31
0.0
  0
LINE
  8
0
 62
     0
 10
72.4214
 20
53.8508
 30
0.0
 11
72.5442
 21
53.7531
 31
0.0
  0
LINE
  8
0
 62
     0
 10
72.5442
 20
53.7531
 30
0.0
 11
72.6599
 21
53.6469
 31
0.0
  0
LINE
  8
0
 62
     0
 10
72.6599
 20
53.6469
 30
0.0
 11
72.7661
 21
53.5312
 31
0.0
  0
LINE
  8
0
 62
     0
 10
72.7661
 20
53.5312
 30
0.0
 11
72.8652
 21
53.4088
 31
0.0
  0
LINE
  8
0
 62
     0
 10
72.8652
 20
53.4088
 30
0.0
 11
72.952
 21
53.2776
 31
0.0
  0
LINE
  8
0
 62
     0
 10
72.952
 20
53.2776
 30
0.0
 11
73.0292
 21
53.14
 31
0.0
  0
LINE
  8
0
 62
     0
 10
73.0292
 20
53.14
 30
0.0
 11
73.0938
 21
52.9978
 31
0.0
  0
LINE
  8
0
 62
     0
 10
73.0938
 20
52.9978
 30
0.0
 11
73.1492
 21
52.8518
 31
0.0
  0
LINE
  8
0
 62
     0
 10
73.1492
 20
52.8518
 30
0.0
 11
73.1905
 21
52.699
 31
0.0
  0
LINE
  8
0
 62
     0
 10
73.1905
 20
52.699
 30
0.0
 11
73.2222
 21
52.5459
 31
0.0
  0
LINE
  8
0
 62
     0
 10
73.2222
 20
52.5459
 30
0.0
 11
73.2398
 21
52.3889
 31
0.0
  0
LINE
  8
0
 62
     0
 10
73.2398
 20
52.3889
 30
0.0
 11
73.2455
 21
52.2319
 31
0.0
  0
LINE
  8
0
 62
     0
 10
73.2455
 20
52.2319
 30
0.0
 11
73.2469
 21
2.13183
 31
0.0
  0
LINE
  8
0
 62
     0
 10
73.2469
 20
2.13183
 30
0.0
 11
73.2398
 21
1.97473
 31
0.0
  0
LINE
  8
0
 62
     0
 10
73.2398
 20
1.97473
 30
0.0
 11
73.2222
 21
1.81901
 31
0.0
  0
LINE
  8
0
 62
     0
 10
73.2222
 20
1.81901
 30
0.0
 11
73.1905
 21
1.66467
 31
0.0
  0
LINE
  8
0
 62
     0
 10
73.1905
 20
1.66467
 30
0.0
 11
73.1492
 21
1.51309
 31
0.0
  0
LINE
  8
0
 62
     0
 10
73.1492
 20
1.51309
 30
0.0
 11
73.0938
 21
1.36563
 31
0.0
  0
LINE
  8
0
 62
     0
 10
73.0938
 20
1.36563
 30
0.0
 11
73.0292
 21
1.2237
 31
0.0
  0
LINE
  8
0
 62
     0
 10
73.0292
 20
1.2237
 30
0.0
 11
72.952
 21
1.08727
 31
0.0
  0
LINE
  8
0
 62
     0
 10
72.952
 20
1.08727
 30
0.0
 11
72.8652
 21
0.956359
 31
0.0
  0
LINE
  8
0
 62
     0
 10
72.8652
 20
0.956359
 30
0.0
 11
72.7661
 21
0.833713
 31
0.0
  0
LINE
  8
0
 62
     0
 10
72.7661
 20
0.833713
 30
0.0
 11
72.6599
 21
0.717959
 31
0.0
  0
LINE
  8
0
 62
     0
 10
72.6599
 20
0.717959
 30
0.0
 11
72.5442
 21
0.611851
 31
0.0
  0
LINE
  8
0
 62
     0
 10
72.5442
 20
0.611851
 30
0.0
 11
72.4214
 21
0.512632
 31
0.0
  0
LINE
  8
0
 62
     0
 10
72.4214
 20
0.512632
 30
0.0
 11
72.2905
 21
0.425813
 31
0.0
  0
LINE
  8
0
 62
     0
 10
72.2905
 20
0.425813
 30
0.0
 11
72.154
 21
0.348644
 31
0.0
  0
LINE
  8
0
 62
     0
 10
72.154
 20
0.348644
 30
0.0
 11
72.0122
 21
0.283876
 31
0.0
  0
LINE
  8
0
 62
     0
 10
72.0122
 20
0.283876
 30
0.0
 11
71.8647
 21
0.228755
 31
0.0
  0
LINE
  8
0
 62
     0
 10
71.8647
 20
0.228755
 30
0.0
 11
71.713
 21
0.187413
 31
0.0
  0
LINE
  8
0
 62
     0
 10
71.713
 20
0.187413
 30
0.0
 11
71.5589
 21
0.155718
 31
0.0
  0
LINE
  8
0
 62
     0
 10
71.5589
 20
0.155718
 30
0.0
 11
71.4029
 21
0.137804
 31
0.0
  0
LINE
  8
0
 62
     0
 10
71.4029
 20
0.137804
 30
0.0
 11
71.2459
 21
0.130914
 31
0.0
  0
LINE
  8
0
 62
     0
 10
71.2459
 20
0.130914
 30
0.0
 11
2.096
 21
0.130914
 31
0.0
  0
LINE
  8
0
 62
     0
 10
2.096
 20
0.130914
 30
0.0
 11
1.9389
 21
0.137804
 31
0.0
  0
LINE
  8
0
 62
     0
 10
1.9389
 20
0.137804
 30
0.0
 11
1.7818
 21
0.155718
 31
0.0
  0
LINE
  8
0
 62
     0
 10
1.7818
 20
0.155718
 30
0.0
 11
1.62884
 21
0.187413
 31
0.0
  0
LINE
  8
0
 62
     0
 10
1.62884
 20
0.187413
 30
0.0
 11
1.47588
 21
0.228755
 31
0.0
  0
LINE
  8
0
 62
     0
 10
1.47588
 20
0.228755
 30
0.0
 11
1.32981
 21
0.283876
 31
0.0
  0
LINE
  8
0
 62
     0
 10
1.32981
 20
0.283876
 30
0.0
 11
1.18787
 21
0.348644
 31
0.0
  0
LINE
  8
0
 62
     0
 10
1.18787
 20
0.348644
 30
0.0
 11
1.05006
 21
0.425813
 31
0.0
  0
LINE
  8
0
 62
     0
 10
1.05006
 20
0.425813
 30
0.0
 11
0.919152
 21
0.512632
 31
0.0
  0
LINE
  8
0
 62
     0
 10
0.919152
 20
0.512632
 30
0.0
 11
0.796505
 21
0.611851
 31
0.0
  0
LINE
  8
0
 62
     0
 10
0.796505
 20
0.611851
 30
0.0
 11
0.680752
 21
0.717959
 31
0.0
  0
LINE
  8
0
 62
     0
 10
0.680752
 20
0.717959
 30
0.0
 11
0.574643
 21
0.833713
 31
0.0
  0
LINE
  8
0
 62
     0
 10
0.574643
 20
0.833713
 30
0.0
 11
0.4768
 21
0.956359
 31
0.0
  0
LINE
  8
0
 62
     0
 10
0.4768
 20
0.956359
 30
0.0
 11
0.389985
 21
1.08727
 31
0.0
  0
LINE
  8
0
 62
     0
 10
0.389985
 20
1.08727
 30
0.0
 11
0.312815
 21
1.2237
 31
0.0
  0
LINE
  8
0
 62
     0
 10
0.312815
 20
1.2237
 30
0.0
 11
0.248047
 21
1.36563
 31
0.0
  0
LINE
  8
0
 62
     0
 10
0.248047
 20
1.36563
 30
0.0
 11
0.192925
 21
1.51309
 31
0.0
  0
LINE
  8
0
 62
     0
 10
0.192925
 20
1.51309
 30
0.0
 11
0.150206
 21
1.66467
 31
0.0
  0
LINE
  8
0
 62
     0
 10
0.150206
 20
1.66467
 30
0.0
 11
0.119889
 21
1.81901
 31
0.0
  0
LINE
  8
0
 62
     0
 10
0.119889
 20
1.81901
 30
0.0
 11
0.101975
 21
1.97473
 31
0.0
  0
LINE
  8
0
 62
     0
 10
0.101975
 20
1.97473
 30
0.0
 11
0.0950846
 21
2.13183
 31
0.0
  0
LINE
  8
0
 62
     0
 10
0.0950846
 20
2.13183
 30
0.0
 11
0.0950846
 21
52.2319
 31
0.0
  0
LINE
  8
0
 62
     0
 10
0.0950846
 20
52.2319
 30
0.0
 11
0.101975
 21
52.3889
 31
0.0
  0
LINE
  8
0
 62
     0
 10
0.101975
 20
52.3889
 30
0.0
 11
0.119889
 21
52.5459
 31
0.0
  0
LINE
  8
0
 62
     0
 10
0.119889
 20
52.5459
 30
0.0
 11
0.150206
 21
52.699
 31
0.0
  0
LINE
  8
0
 62
     0
 10
0.150206
 20
52.699
 30
0.0
 11
0.192925
 21
52.8518
 31
0.0
  0
LINE
  8
0
 62
     0
 10
0.192925
 20
52.8518
 30
0.0
 11
0.248047
 21
52.9978
 31
0.0
  0
LINE
  8
0
 62
     0
 10
0.248047
 20
52.9978
 30
0.0
 11
0.312815
 21
53.14
 31
0.0
  0
LINE
  8
0
 62
     0
 10
0.312815
 20
53.14
 30
0.0
 11
0.389985
 21
53.2776
 31
0.0
  0
LINE
  8
0
 62
     0
 10
0.389985
 20
53.2776
 30
0.0
 11
0.4768
 21
53.4088
 31
0.0
  0
LINE
  8
0
 62
     0
 10
0.4768
 20
53.4088
 30
0.0
 11
0.574643
 21
53.5312
 31
0.0
  0
LINE
  8
0
 62
     0
 10
0.574643
 20
53.5312
 30
0.0
 11
0.680752
 21
53.6469
 31
0.0
  0
LINE
  8
0
 62
     0
 10
0.680752
 20
53.6469
 30
0.0
 11
0.796505
 21
53.7531
 31
0.0
  0
LINE
  8
0
 62
     0
 10
0.796505
 20
53.7531
 30
0.0
 11
0.919152
 21
53.8508
 31
0.0
  0
LINE
  8
0
 62
     0
 10
0.919152
 20
53.8508
 30
0.0
 11
1.05006
 21
53.938
 31
0.0
  0
LINE
  8
0
 62
     0
 10
1.05006
 20
53.938
 30
0.0
 11
1.18787
 21
54.0149
 31
0.0
  0
LINE
  8
0
 62
     0
 10
1.18787
 20
54.0149
 30
0.0
 11
1.32981
 21
54.0798
 31
0.0
  0
LINE
  8
0
 62
     0
 10
1.32981
 20
54.0798
 30
0.0
 11
1.47588
 21
54.1348
 31
0.0
  0
LINE
  8
0
 62
     0
 10
1.47588
 20
54.1348
 30
0.0
 11
1.62884
 21
54.1775
 31
0.0
  0
LINE
  8
0
 62
     0
 10
1.62884
 20
54.1775
 30
0.0
 11
1.7818
 21
54.2078
 31
0.0
  0
LINE
  8
0
 62
     0
 10
1.7818
 20
54.2078
 30
0.0
 11
1.9389
 21
54.2258
 31
0.0
  0
LINE
  8
0
 62
     0
 10
1.9389
 20
54.2258
 30
0.0
 11
2.096
 21
54.2325
 31
0.0
  0
LINE
  8
0
 62
     0
 10
2.096
 20
54.2325
 30
0.0
 11
71.2459
 21
54.2325
 31
0.0
  0
LINE
  8
0
 62
     0
 10
3.63114
 20
5.55763
 30
0.0
 11
3.21359
 21
5.34539
 31
0.0
  0
LINE
  8
0
 62
     0
 10
3.21359
 20
5.34539
 30
0.0
 11
2.88148
 21
5.01329
 31
0.0
  0
LINE
  8
0
 62
     0
 10
2.88148
 20
5.01329
 30
0.0
 11
2.66788
 21
4.59574
 31
0.0
  0
LINE
  8
0
 62
     0
 10
2.66788
 20
4.59574
 30
0.0
 11
2.59485
 21
4.13135
 31
0.0
  0
LINE
  8
0
 62
     0
 10
2.59485
 20
4.13135
 30
0.0
 11
2.66788
 21
3.66832
 31
0.0
  0
LINE
  8
0
 62
     0
 10
2.66788
 20
3.66832
 30
0.0
 11
2.88148
 21
3.25079
 31
0.0
  0
LINE
  8
0
 62
     0
 10
2.88148
 20
3.25079
 30
0.0
 11
3.21359
 21
2.91869
 31
0.0
  0
LINE
  8
0
 62
     0
 10
3.21359
 20
2.91869
 30
0.0
 11
3.63114
 21
2.70509
 31
0.0
  0
LINE
  8
0
 62
     0
 10
3.63114
 20
2.70509
 30
0.0
 11
4.09554
 21
2.63067
 31
0.0
  0
LINE
  8
0
 62
     0
 10
4.09554
 20
2.63067
 30
0.0
 11
4.55856
 21
2.70509
 31
0.0
  0
LINE
  8
0
 62
     0
 10
4.55856
 20
2.70509
 30
0.0
 11
4.97611
 21
2.91869
 31
0.0
  0
LINE
  8
0
 62
     0
 10
4.97611
 20
2.91869
 30
0.0
 11
5.30821
 21
3.25079
 31
0.0
  0
LINE
  8
0
 62
     0
 10
5.30821
 20
3.25079
 30
0.0
 11
5.52178
 21
3.66832
 31
0.0
  0
LINE
  8
0
 62
     0
 10
5.52178
 20
3.66832
 30
0.0
 11
5.59484
 21
4.13135
 31
0.0
  0
LINE
  8
0
 62
     0
 10
5.59484
 20
4.13135
 30
0.0
 11
5.52178
 21
4.59574
 31
0.0
  0
LINE
  8
0
 62
     0
 10
5.52178
 20
4.59574
 30
0.0
 11
5.30821
 21
5.01329
 31
0.0
  0
LINE
  8
0
 62
     0
 10
5.30821
 20
5.01329
 30
0.0
 11
4.97611
 21
5.34539
 31
0.0
  0
LINE
  8
0
 62
     0
 10
4.97611
 20
5.34539
 30
0.0
 11
4.55856
 21
5.55763
 31
0.0
  0
LINE
  8
0
 62
     0
 10
4.55856
 20
5.55763
 30
0.0
 11
4.09554
 21
5.63065
 31
0.0
  0
LINE
  8
0
 62
     0
 10
4.09554
 20
5.63065
 30
0.0
 11
3.63114
 21
5.55763
 31
0.0
  0
LINE
  8
0
 62
     0
 10
68.7821
 20
5.55763
 30
0.0
 11
68.3645
 21
5.34539
 31
0.0
  0
LINE
  8
0
 62
     0
 10
68.3645
 20
5.34539
 30
0.0
 11
68.0325
 21
5.01329
 31
0.0
  0
LINE
  8
0
 62
     0
 10
68.0325
 20
5.01329
 30
0.0
 11
67.8201
 21
4.59574
 31
0.0
  0
LINE
  8
0
 62
     0
 10
67.8201
 20
4.59574
 30
0.0
 11
67.7471
 21
4.13135
 31
0.0
  0
LINE
  8
0
 62
     0
 10
67.7471
 20
4.13135
 30
0.0
 11
67.8201
 21
3.66832
 31
0.0
  0
LINE
  8
0
 62
     0
 10
67.8201
 20
3.66832
 30
0.0
 11
68.0325
 21
3.25079
 31
0.0
  0
LINE
  8
0
 62
     0
 10
68.0325
 20
3.25079
 30
0.0
 11
68.3645
 21
2.91869
 31
0.0
  0
LINE
  8
0
 62
     0
 10
68.3645
 20
2.91869
 30
0.0
 11
68.7821
 21
2.70509
 31
0.0
  0
LINE
  8
0
 62
     0
 10
68.7821
 20
2.70509
 30
0.0
 11
69.2464
 21
2.63067
 31
0.0
  0
LINE
  8
0
 62
     0
 10
69.2464
 20
2.63067
 30
0.0
 11
69.7096
 21
2.70509
 31
0.0
  0
LINE
  8
0
 62
     0
 10
69.7096
 20
2.70509
 30
0.0
 11
70.1269
 21
2.91869
 31
0.0
  0
LINE
  8
0
 62
     0
 10
70.1269
 20
2.91869
 30
0.0
 11
70.4592
 21
3.25079
 31
0.0
  0
LINE
  8
0
 62
     0
 10
70.4592
 20
3.25079
 30
0.0
 11
70.6727
 21
3.66832
 31
0.0
  0
LINE
  8
0
 62
     0
 10
70.6727
 20
3.66832
 30
0.0
 11
70.7471
 21
4.13135
 31
0.0
  0
LINE
  8
0
 62
     0
 10
70.7471
 20
4.13135
 30
0.0
 11
70.6727
 21
4.59574
 31
0.0
  0
LINE
  8
0
 62
     0
 10
70.6727
 20
4.59574
 30
0.0
 11
70.4592
 21
5.01329
 31
0.0
  0
LINE
  8
0
 62
     0
 10
70.4592
 20
5.01329
 30
0.0
 11
70.1269
 21
5.34539
 31
0.0
  0
LINE
  8
0
 62
     0
 10
70.1269
 20
5.34539
 30
0.0
 11
69.7096
 21
5.55763
 31
0.0
  0
LINE
  8
0
 62
     0
 10
69.7096
 20
5.55763
 30
0.0
 11
69.2464
 21
5.63065
 31
0.0
  0
LINE
  8
0
 62
     0
 10
69.2464
 20
5.63065
 30
0.0
 11
68.7821
 21
5.55763
 31
0.0
  0
LINE
  8
0
 62
     0
 10
8.09322
 20
46.2347
 30
0.0
 11
65.2459
 21
46.2347
 31
0.0
  0
LINE
  8
0
 62
     0
 10
65.2459
 20
46.2347
 30
0.0
 11
65.2459
 21
8.13181
 31
0.0
  0
LINE
  8
0
 62
     0
 10
65.2459
 20
8.13181
 30
0.0
 11
8.09322
 21
8.13181
 31
0.0
  0
LINE
  8
0
 62
     0
 10
8.09322
 20
8.13181
 30
0.0
 11
8.09322
 21
46.2347
 31
0.0
  0
LINE
  8
0
 62
     0
 10
3.63114
 20
51.6601
 30
0.0
 11
3.21359
 21
51.4463
 31
0.0
  0
LINE
  8
0
 62
     0
 10
3.21359
 20
51.4463
 30
0.0
 11
2.88148
 21
51.1143
 31
0.0
  0
LINE
  8
0
 62
     0
 10
2.88148
 20
51.1143
 30
0.0
 11
2.66788
 21
50.6966
 31
0.0
  0
LINE
  8
0
 62
     0
 10
2.66788
 20
50.6966
 30
0.0
 11
2.59485
 21
50.2324
 31
0.0
  0
LINE
  8
0
 62
     0
 10
2.59485
 20
50.2324
 30
0.0
 11
2.66788
 21
49.7692
 31
0.0
  0
LINE
  8
0
 62
     0
 10
2.66788
 20
49.7692
 30
0.0
 11
2.88148
 21
49.3518
 31
0.0
  0
LINE
  8
0
 62
     0
 10
2.88148
 20
49.3518
 30
0.0
 11
3.21359
 21
49.0195
 31
0.0
  0
LINE
  8
0
 62
     0
 10
3.21359
 20
49.0195
 30
0.0
 11
3.63114
 21
48.8061
 31
0.0
  0
LINE
  8
0
 62
     0
 10
3.63114
 20
48.8061
 30
0.0
 11
4.09554
 21
48.7331
 31
0.0
  0
LINE
  8
0
 62
     0
 10
4.09554
 20
48.7331
 30
0.0
 11
4.55856
 21
48.8061
 31
0.0
  0
LINE
  8
0
 62
     0
 10
4.55856
 20
48.8061
 30
0.0
 11
4.97611
 21
49.0195
 31
0.0
  0
LINE
  8
0
 62
     0
 10
4.97611
 20
49.0195
 30
0.0
 11
5.30821
 21
49.3518
 31
0.0
  0
LINE
  8
0
 62
     0
 10
5.30821
 20
49.3518
 30
0.0
 11
5.52178
 21
49.7692
 31
0.0
  0
LINE
  8
0
 62
     0
 10
5.52178
 20
49.7692
 30
0.0
 11
5.59484
 21
50.2324
 31
0.0
  0
LINE
  8
0
 62
     0
 10
5.59484
 20
50.2324
 30
0.0
 11
5.52178
 21
50.6966
 31
0.0
  0
LINE
  8
0
 62
     0
 10
5.52178
 20
50.6966
 30
0.0
 11
5.30821
 21
51.1143
 31
0.0
  0
LINE
  8
0
 62
     0
 10
5.30821
 20
51.1143
 30
0.0
 11
4.97611
 21
51.4463
 31
0.0
  0
LINE
  8
0
 62
     0
 10
4.97611
 20
51.4463
 30
0.0
 11
4.55856
 21
51.6601
 31
0.0
  0
LINE
  8
0
 62
     0
 10
4.55856
 20
51.6601
 30
0.0
 11
4.09554
 21
51.7331
 31
0.0
  0
LINE
  8
0
 62
     0
 10
4.09554
 20
51.7331
 30
0.0
 11
3.63114
 21
51.6601
 31
0.0
  0
LINE
  8
0
 62
     0
 10
68.7821
 20
51.6601
 30
0.0
 11
68.3645
 21
51.4463
 31
0.0
  0
LINE
  8
0
 62
     0
 10
68.3645
 20
51.4463
 30
0.0
 11
68.0325
 21
51.1143
 31
0.0
  0
LINE
  8
0
 62
     0
 10
68.0325
 20
51.1143
 30
0.0
 11
67.8201
 21
50.6966
 31
0.0
  0
LINE
  8
0
 62
     0
 10
67.8201
 20
50.6966
 30
0.0
 11
67.7471
 21
50.2324
 31
0.0
  0
LINE
  8
0
 62
     0
 10
67.7471
 20
50.2324
 30
0.0
 11
67.8201
 21
49.7692
 31
0.0
  0
LINE
  8
0
 62
     0
 10
67.8201
 20
49.7692
 30
0.0
 11
68.0325
 21
49.3518
 31
0.0
  0
LINE
  8
0
 62
     0
 10
68.0325
 20
49.3518
 30
0.0
 11
68.3645
 21
49.0195
 31
0.0
  0
LINE
  8
0
 62
     0
 10
68.3645
 20
49.0195
 30
0.0
 11
68.7821
 21
48.8061
 31
0.0
  0
LINE
  8
0
 62
     0
 10
68.7821
 20
48.8061
 30
0.0
 11
69.2464
 21
48.7331
 31
0.0
  0
LINE
  8
0
 62
     0
 10
69.2464
 20
48.7331
 30
0.0
 11
69.7096
 21
48.8061
 31
0.0
  0
LINE
  8
0
 62
     0
 10
69.7096
 20
48.8061
 30
0.0
 11
70.1269
 21
49.0195
 31
0.0
  0
LINE
  8
0
 62
     0
 10
70.1269
 20
49.0195
 30
0.0
 11
70.4592
 21
49.3518
 31
0.0
  0
LINE
  8
0
 62
     0
 10
70.4592
 20
49.3518
 30
0.0
 11
70.6727
 21
49.7692
 31
0.0
  0
LINE
  8
0
 62
     0
 10
70.6727
 20
49.7692
 30
0.0
 11
70.7471
 21
50.2324
 31
0.0
  0
LINE
  8
0
 62
     0
 10
70.7471
 20
50.2324
 30
0.0
 11
70.6727
 21
50.6966
 31
0.0
  0
LINE
  8
0
 62
     0
 10
70.6727
 20
50.6966
 30
0.0
 11
70.4592
 21
51.1143
 31
0.0
  0
LINE
  8
0
 62
     0
 10
70.4592
 20
51.1143
 30
0.0
 11
70.1269
 21
51.4463
 31
0.0
  0
LINE
  8
0
 62
     0
 10
70.1269
 20
51.4463
 30
0.0
 11
69.7096
 21
51.6601
 31
0.0
  0
LINE
  8
0
 62
     0
 10
69.7096
 20
51.6601
 30
0.0
 11
69.2464
 21
51.7331
 31
0.0
  0
LINE
  8
0
 62
     0
 10
69.2464
 20
51.7331
 30
0.0
 11
68.7821
 21
51.6601
 31
0.0
  0
ENDSEC
  0
EOF
