G04 #@! TF.GenerationSoftware,KiCad,Pcbnew,5.1.12-84ad8e8a86~92~ubuntu18.04.1*
G04 #@! TF.CreationDate,2021-11-24T18:10:13-06:00*
G04 #@! TF.ProjectId,sixpack,73697870-6163-46b2-9e6b-696361645f70,rev?*
G04 #@! TF.SameCoordinates,Original*
G04 #@! TF.FileFunction,Soldermask,Bot*
G04 #@! TF.FilePolarity,Negative*
%FSLAX46Y46*%
G04 Gerber Fmt 4.6, Leading zero omitted, Abs format (unit mm)*
G04 Created by KiCad (PCBNEW 5.1.12-84ad8e8a86~92~ubuntu18.04.1) date 2021-11-24 18:10:13*
%MOMM*%
%LPD*%
G01*
G04 APERTURE LIST*
%ADD10C,1.750000*%
%ADD11C,2.250000*%
%ADD12C,3.987800*%
%ADD13R,1.400000X1.200000*%
%ADD14O,1.700000X2.700000*%
%ADD15R,0.500000X2.250000*%
%ADD16R,0.550000X1.500000*%
%ADD17R,1.500000X0.550000*%
%ADD18R,1.800000X1.100000*%
%ADD19R,1.200000X0.900000*%
%ADD20R,0.900000X1.200000*%
G04 APERTURE END LIST*
D10*
G04 #@! TO.C,MX4*
X107460000Y-58930000D03*
X97300000Y-58930000D03*
D11*
X99880000Y-54930000D03*
D12*
X102380000Y-58930000D03*
G36*
G01*
X97818688Y-57227350D02*
X97818683Y-57227345D01*
G75*
G02*
X97732655Y-55638683I751317J837345D01*
G01*
X99042657Y-54178683D01*
G75*
G02*
X100631319Y-54092655I837345J-751317D01*
G01*
X100631319Y-54092655D01*
G75*
G02*
X100717347Y-55681317I-751317J-837345D01*
G01*
X99407345Y-57141317D01*
G75*
G02*
X97818683Y-57227345I-837345J751317D01*
G01*
G37*
D11*
X104920000Y-53850000D03*
G36*
G01*
X104803483Y-55552395D02*
X104802597Y-55552334D01*
G75*
G02*
X103757666Y-54352597I77403J1122334D01*
G01*
X103797666Y-53772597D01*
G75*
G02*
X104997403Y-52727666I1122334J-77403D01*
G01*
X104997403Y-52727666D01*
G75*
G02*
X106042334Y-53927403I-77403J-1122334D01*
G01*
X106002334Y-54507403D01*
G75*
G02*
X104802597Y-55552334I-1122334J77403D01*
G01*
G37*
G04 #@! TD*
D10*
G04 #@! TO.C,MX2*
X88423750Y-59000000D03*
X78263750Y-59000000D03*
D11*
X80843750Y-55000000D03*
D12*
X83343750Y-59000000D03*
G36*
G01*
X78782438Y-57297350D02*
X78782433Y-57297345D01*
G75*
G02*
X78696405Y-55708683I751317J837345D01*
G01*
X80006407Y-54248683D01*
G75*
G02*
X81595069Y-54162655I837345J-751317D01*
G01*
X81595069Y-54162655D01*
G75*
G02*
X81681097Y-55751317I-751317J-837345D01*
G01*
X80371095Y-57211317D01*
G75*
G02*
X78782433Y-57297345I-837345J751317D01*
G01*
G37*
D11*
X85883750Y-53920000D03*
G36*
G01*
X85767233Y-55622395D02*
X85766347Y-55622334D01*
G75*
G02*
X84721416Y-54422597I77403J1122334D01*
G01*
X84761416Y-53842597D01*
G75*
G02*
X85961153Y-52797666I1122334J-77403D01*
G01*
X85961153Y-52797666D01*
G75*
G02*
X87006084Y-53997403I-77403J-1122334D01*
G01*
X86966084Y-54577403D01*
G75*
G02*
X85766347Y-55622334I-1122334J77403D01*
G01*
G37*
G04 #@! TD*
D13*
G04 #@! TO.C,Y1*
X116200000Y-52300000D03*
X114000000Y-52300000D03*
X114000000Y-54000000D03*
X116200000Y-54000000D03*
G04 #@! TD*
D14*
G04 #@! TO.C,USB1*
X89060000Y-50140000D03*
X96360000Y-50140000D03*
X96360000Y-54640000D03*
X89060000Y-54640000D03*
D15*
X91110000Y-54640000D03*
X91910000Y-54640000D03*
X92710000Y-54640000D03*
X93510000Y-54640000D03*
X94310000Y-54640000D03*
G04 #@! TD*
D16*
G04 #@! TO.C,U1*
X107928000Y-72700000D03*
X108728000Y-72700000D03*
X109528000Y-72700000D03*
X110328000Y-72700000D03*
X111128000Y-72700000D03*
X111928000Y-72700000D03*
X112728000Y-72700000D03*
X113528000Y-72700000D03*
X114328000Y-72700000D03*
X115128000Y-72700000D03*
X115928000Y-72700000D03*
D17*
X117628000Y-71000000D03*
X117628000Y-70200000D03*
X117628000Y-69400000D03*
X117628000Y-68600000D03*
X117628000Y-67800000D03*
X117628000Y-67000000D03*
X117628000Y-66200000D03*
X117628000Y-65400000D03*
X117628000Y-64600000D03*
X117628000Y-63800000D03*
X117628000Y-63000000D03*
D16*
X115928000Y-61300000D03*
X115128000Y-61300000D03*
X114328000Y-61300000D03*
X113528000Y-61300000D03*
X112728000Y-61300000D03*
X111928000Y-61300000D03*
X111128000Y-61300000D03*
X110328000Y-61300000D03*
X109528000Y-61300000D03*
X108728000Y-61300000D03*
X107928000Y-61300000D03*
D17*
X106228000Y-63000000D03*
X106228000Y-63800000D03*
X106228000Y-64600000D03*
X106228000Y-65400000D03*
X106228000Y-66200000D03*
X106228000Y-67000000D03*
X106228000Y-67800000D03*
X106228000Y-68600000D03*
X106228000Y-69400000D03*
X106228000Y-70200000D03*
X106228000Y-71000000D03*
G04 #@! TD*
D18*
G04 #@! TO.C,SW1*
X101500000Y-66300000D03*
X95300000Y-62600000D03*
X101500000Y-62600000D03*
X95300000Y-66300000D03*
G04 #@! TD*
G04 #@! TO.C,R4*
G36*
G01*
X122312500Y-69949999D02*
X122312500Y-70850001D01*
G75*
G02*
X122062501Y-71100000I-249999J0D01*
G01*
X121537499Y-71100000D01*
G75*
G02*
X121287500Y-70850001I0J249999D01*
G01*
X121287500Y-69949999D01*
G75*
G02*
X121537499Y-69700000I249999J0D01*
G01*
X122062501Y-69700000D01*
G75*
G02*
X122312500Y-69949999I0J-249999D01*
G01*
G37*
G36*
G01*
X124137500Y-69949999D02*
X124137500Y-70850001D01*
G75*
G02*
X123887501Y-71100000I-249999J0D01*
G01*
X123362499Y-71100000D01*
G75*
G02*
X123112500Y-70850001I0J249999D01*
G01*
X123112500Y-69949999D01*
G75*
G02*
X123362499Y-69700000I249999J0D01*
G01*
X123887501Y-69700000D01*
G75*
G02*
X124137500Y-69949999I0J-249999D01*
G01*
G37*
G04 #@! TD*
G04 #@! TO.C,R3*
G36*
G01*
X107850000Y-52849999D02*
X107850000Y-53750001D01*
G75*
G02*
X107600001Y-54000000I-249999J0D01*
G01*
X107074999Y-54000000D01*
G75*
G02*
X106825000Y-53750001I0J249999D01*
G01*
X106825000Y-52849999D01*
G75*
G02*
X107074999Y-52600000I249999J0D01*
G01*
X107600001Y-52600000D01*
G75*
G02*
X107850000Y-52849999I0J-249999D01*
G01*
G37*
G36*
G01*
X109675000Y-52849999D02*
X109675000Y-53750001D01*
G75*
G02*
X109425001Y-54000000I-249999J0D01*
G01*
X108899999Y-54000000D01*
G75*
G02*
X108650000Y-53750001I0J249999D01*
G01*
X108650000Y-52849999D01*
G75*
G02*
X108899999Y-52600000I249999J0D01*
G01*
X109425001Y-52600000D01*
G75*
G02*
X109675000Y-52849999I0J-249999D01*
G01*
G37*
G04 #@! TD*
G04 #@! TO.C,R2*
G36*
G01*
X94100001Y-58012500D02*
X93199999Y-58012500D01*
G75*
G02*
X92950000Y-57762501I0J249999D01*
G01*
X92950000Y-57237499D01*
G75*
G02*
X93199999Y-56987500I249999J0D01*
G01*
X94100001Y-56987500D01*
G75*
G02*
X94350000Y-57237499I0J-249999D01*
G01*
X94350000Y-57762501D01*
G75*
G02*
X94100001Y-58012500I-249999J0D01*
G01*
G37*
G36*
G01*
X94100001Y-59837500D02*
X93199999Y-59837500D01*
G75*
G02*
X92950000Y-59587501I0J249999D01*
G01*
X92950000Y-59062499D01*
G75*
G02*
X93199999Y-58812500I249999J0D01*
G01*
X94100001Y-58812500D01*
G75*
G02*
X94350000Y-59062499I0J-249999D01*
G01*
X94350000Y-59587501D01*
G75*
G02*
X94100001Y-59837500I-249999J0D01*
G01*
G37*
G04 #@! TD*
G04 #@! TO.C,R1*
G36*
G01*
X92050001Y-58012500D02*
X91149999Y-58012500D01*
G75*
G02*
X90900000Y-57762501I0J249999D01*
G01*
X90900000Y-57237499D01*
G75*
G02*
X91149999Y-56987500I249999J0D01*
G01*
X92050001Y-56987500D01*
G75*
G02*
X92300000Y-57237499I0J-249999D01*
G01*
X92300000Y-57762501D01*
G75*
G02*
X92050001Y-58012500I-249999J0D01*
G01*
G37*
G36*
G01*
X92050001Y-59837500D02*
X91149999Y-59837500D01*
G75*
G02*
X90900000Y-59587501I0J249999D01*
G01*
X90900000Y-59062499D01*
G75*
G02*
X91149999Y-58812500I249999J0D01*
G01*
X92050001Y-58812500D01*
G75*
G02*
X92300000Y-59062499I0J-249999D01*
G01*
X92300000Y-59587501D01*
G75*
G02*
X92050001Y-59837500I-249999J0D01*
G01*
G37*
G04 #@! TD*
D10*
G04 #@! TO.C,MX6*
X126500000Y-58930000D03*
X116340000Y-58930000D03*
D11*
X118920000Y-54930000D03*
D12*
X121420000Y-58930000D03*
G36*
G01*
X116858688Y-57227350D02*
X116858683Y-57227345D01*
G75*
G02*
X116772655Y-55638683I751317J837345D01*
G01*
X118082657Y-54178683D01*
G75*
G02*
X119671319Y-54092655I837345J-751317D01*
G01*
X119671319Y-54092655D01*
G75*
G02*
X119757347Y-55681317I-751317J-837345D01*
G01*
X118447345Y-57141317D01*
G75*
G02*
X116858683Y-57227345I-837345J751317D01*
G01*
G37*
D11*
X123960000Y-53850000D03*
G36*
G01*
X123843483Y-55552395D02*
X123842597Y-55552334D01*
G75*
G02*
X122797666Y-54352597I77403J1122334D01*
G01*
X122837666Y-53772597D01*
G75*
G02*
X124037403Y-52727666I1122334J-77403D01*
G01*
X124037403Y-52727666D01*
G75*
G02*
X125082334Y-53927403I-77403J-1122334D01*
G01*
X125042334Y-54507403D01*
G75*
G02*
X123842597Y-55552334I-1122334J77403D01*
G01*
G37*
G04 #@! TD*
D10*
G04 #@! TO.C,MX5*
X126520000Y-78010000D03*
X116360000Y-78010000D03*
D11*
X118940000Y-74010000D03*
D12*
X121440000Y-78010000D03*
G36*
G01*
X116878688Y-76307350D02*
X116878683Y-76307345D01*
G75*
G02*
X116792655Y-74718683I751317J837345D01*
G01*
X118102657Y-73258683D01*
G75*
G02*
X119691319Y-73172655I837345J-751317D01*
G01*
X119691319Y-73172655D01*
G75*
G02*
X119777347Y-74761317I-751317J-837345D01*
G01*
X118467345Y-76221317D01*
G75*
G02*
X116878683Y-76307345I-837345J751317D01*
G01*
G37*
D11*
X123980000Y-72930000D03*
G36*
G01*
X123863483Y-74632395D02*
X123862597Y-74632334D01*
G75*
G02*
X122817666Y-73432597I77403J1122334D01*
G01*
X122857666Y-72852597D01*
G75*
G02*
X124057403Y-71807666I1122334J-77403D01*
G01*
X124057403Y-71807666D01*
G75*
G02*
X125102334Y-73007403I-77403J-1122334D01*
G01*
X125062334Y-73587403D01*
G75*
G02*
X123862597Y-74632334I-1122334J77403D01*
G01*
G37*
G04 #@! TD*
D10*
G04 #@! TO.C,MX3*
X107480000Y-78030000D03*
X97320000Y-78030000D03*
D11*
X99900000Y-74030000D03*
D12*
X102400000Y-78030000D03*
G36*
G01*
X97838688Y-76327350D02*
X97838683Y-76327345D01*
G75*
G02*
X97752655Y-74738683I751317J837345D01*
G01*
X99062657Y-73278683D01*
G75*
G02*
X100651319Y-73192655I837345J-751317D01*
G01*
X100651319Y-73192655D01*
G75*
G02*
X100737347Y-74781317I-751317J-837345D01*
G01*
X99427345Y-76241317D01*
G75*
G02*
X97838683Y-76327345I-837345J751317D01*
G01*
G37*
D11*
X104940000Y-72950000D03*
G36*
G01*
X104823483Y-74652395D02*
X104822597Y-74652334D01*
G75*
G02*
X103777666Y-73452597I77403J1122334D01*
G01*
X103817666Y-72872597D01*
G75*
G02*
X105017403Y-71827666I1122334J-77403D01*
G01*
X105017403Y-71827666D01*
G75*
G02*
X106062334Y-73027403I-77403J-1122334D01*
G01*
X106022334Y-73607403D01*
G75*
G02*
X104822597Y-74652334I-1122334J77403D01*
G01*
G37*
G04 #@! TD*
D10*
G04 #@! TO.C,MX1*
X88423750Y-78020000D03*
X78263750Y-78020000D03*
D11*
X80843750Y-74020000D03*
D12*
X83343750Y-78020000D03*
G36*
G01*
X78782438Y-76317350D02*
X78782433Y-76317345D01*
G75*
G02*
X78696405Y-74728683I751317J837345D01*
G01*
X80006407Y-73268683D01*
G75*
G02*
X81595069Y-73182655I837345J-751317D01*
G01*
X81595069Y-73182655D01*
G75*
G02*
X81681097Y-74771317I-751317J-837345D01*
G01*
X80371095Y-76231317D01*
G75*
G02*
X78782433Y-76317345I-837345J751317D01*
G01*
G37*
D11*
X85883750Y-72940000D03*
G36*
G01*
X85767233Y-74642395D02*
X85766347Y-74642334D01*
G75*
G02*
X84721416Y-73442597I77403J1122334D01*
G01*
X84761416Y-72862597D01*
G75*
G02*
X85961153Y-71817666I1122334J-77403D01*
G01*
X85961153Y-71817666D01*
G75*
G02*
X87006084Y-73017403I-77403J-1122334D01*
G01*
X86966084Y-73597403D01*
G75*
G02*
X85766347Y-74642334I-1122334J77403D01*
G01*
G37*
G04 #@! TD*
G04 #@! TO.C,F1*
G36*
G01*
X90425000Y-64025000D02*
X89175000Y-64025000D01*
G75*
G02*
X88925000Y-63775000I0J250000D01*
G01*
X88925000Y-63025000D01*
G75*
G02*
X89175000Y-62775000I250000J0D01*
G01*
X90425000Y-62775000D01*
G75*
G02*
X90675000Y-63025000I0J-250000D01*
G01*
X90675000Y-63775000D01*
G75*
G02*
X90425000Y-64025000I-250000J0D01*
G01*
G37*
G36*
G01*
X90425000Y-66825000D02*
X89175000Y-66825000D01*
G75*
G02*
X88925000Y-66575000I0J250000D01*
G01*
X88925000Y-65825000D01*
G75*
G02*
X89175000Y-65575000I250000J0D01*
G01*
X90425000Y-65575000D01*
G75*
G02*
X90675000Y-65825000I0J-250000D01*
G01*
X90675000Y-66575000D01*
G75*
G02*
X90425000Y-66825000I-250000J0D01*
G01*
G37*
G04 #@! TD*
D19*
G04 #@! TO.C,D6*
X129800000Y-57300000D03*
X129800000Y-60600000D03*
G04 #@! TD*
G04 #@! TO.C,D5*
X127000000Y-81350000D03*
X127000000Y-84650000D03*
G04 #@! TD*
G04 #@! TO.C,D4*
X102050000Y-53350000D03*
X102050000Y-50050000D03*
G04 #@! TD*
G04 #@! TO.C,D3*
X108000000Y-81350000D03*
X108000000Y-84650000D03*
G04 #@! TD*
D20*
G04 #@! TO.C,D2*
X82300000Y-50650000D03*
X85600000Y-50650000D03*
G04 #@! TD*
D19*
G04 #@! TO.C,D1*
X89000000Y-81350000D03*
X89000000Y-84650000D03*
G04 #@! TD*
G04 #@! TO.C,C7*
G36*
G01*
X89325000Y-70300000D02*
X90275000Y-70300000D01*
G75*
G02*
X90525000Y-70550000I0J-250000D01*
G01*
X90525000Y-71050000D01*
G75*
G02*
X90275000Y-71300000I-250000J0D01*
G01*
X89325000Y-71300000D01*
G75*
G02*
X89075000Y-71050000I0J250000D01*
G01*
X89075000Y-70550000D01*
G75*
G02*
X89325000Y-70300000I250000J0D01*
G01*
G37*
G36*
G01*
X89325000Y-68400000D02*
X90275000Y-68400000D01*
G75*
G02*
X90525000Y-68650000I0J-250000D01*
G01*
X90525000Y-69150000D01*
G75*
G02*
X90275000Y-69400000I-250000J0D01*
G01*
X89325000Y-69400000D01*
G75*
G02*
X89075000Y-69150000I0J250000D01*
G01*
X89075000Y-68650000D01*
G75*
G02*
X89325000Y-68400000I250000J0D01*
G01*
G37*
G04 #@! TD*
G04 #@! TO.C,C6*
G36*
G01*
X103225000Y-67100000D02*
X104175000Y-67100000D01*
G75*
G02*
X104425000Y-67350000I0J-250000D01*
G01*
X104425000Y-67850000D01*
G75*
G02*
X104175000Y-68100000I-250000J0D01*
G01*
X103225000Y-68100000D01*
G75*
G02*
X102975000Y-67850000I0J250000D01*
G01*
X102975000Y-67350000D01*
G75*
G02*
X103225000Y-67100000I250000J0D01*
G01*
G37*
G36*
G01*
X103225000Y-65200000D02*
X104175000Y-65200000D01*
G75*
G02*
X104425000Y-65450000I0J-250000D01*
G01*
X104425000Y-65950000D01*
G75*
G02*
X104175000Y-66200000I-250000J0D01*
G01*
X103225000Y-66200000D01*
G75*
G02*
X102975000Y-65950000I0J250000D01*
G01*
X102975000Y-65450000D01*
G75*
G02*
X103225000Y-65200000I250000J0D01*
G01*
G37*
G04 #@! TD*
G04 #@! TO.C,C5*
G36*
G01*
X112125000Y-52700000D02*
X111175000Y-52700000D01*
G75*
G02*
X110925000Y-52450000I0J250000D01*
G01*
X110925000Y-51950000D01*
G75*
G02*
X111175000Y-51700000I250000J0D01*
G01*
X112125000Y-51700000D01*
G75*
G02*
X112375000Y-51950000I0J-250000D01*
G01*
X112375000Y-52450000D01*
G75*
G02*
X112125000Y-52700000I-250000J0D01*
G01*
G37*
G36*
G01*
X112125000Y-54600000D02*
X111175000Y-54600000D01*
G75*
G02*
X110925000Y-54350000I0J250000D01*
G01*
X110925000Y-53850000D01*
G75*
G02*
X111175000Y-53600000I250000J0D01*
G01*
X112125000Y-53600000D01*
G75*
G02*
X112375000Y-53850000I0J-250000D01*
G01*
X112375000Y-54350000D01*
G75*
G02*
X112125000Y-54600000I-250000J0D01*
G01*
G37*
G04 #@! TD*
G04 #@! TO.C,C4*
G36*
G01*
X109650000Y-56625000D02*
X109650000Y-55675000D01*
G75*
G02*
X109900000Y-55425000I250000J0D01*
G01*
X110400000Y-55425000D01*
G75*
G02*
X110650000Y-55675000I0J-250000D01*
G01*
X110650000Y-56625000D01*
G75*
G02*
X110400000Y-56875000I-250000J0D01*
G01*
X109900000Y-56875000D01*
G75*
G02*
X109650000Y-56625000I0J250000D01*
G01*
G37*
G36*
G01*
X107750000Y-56625000D02*
X107750000Y-55675000D01*
G75*
G02*
X108000000Y-55425000I250000J0D01*
G01*
X108500000Y-55425000D01*
G75*
G02*
X108750000Y-55675000I0J-250000D01*
G01*
X108750000Y-56625000D01*
G75*
G02*
X108500000Y-56875000I-250000J0D01*
G01*
X108000000Y-56875000D01*
G75*
G02*
X107750000Y-56625000I0J250000D01*
G01*
G37*
G04 #@! TD*
G04 #@! TO.C,C3*
G36*
G01*
X113750000Y-55525000D02*
X113750000Y-56475000D01*
G75*
G02*
X113500000Y-56725000I-250000J0D01*
G01*
X113000000Y-56725000D01*
G75*
G02*
X112750000Y-56475000I0J250000D01*
G01*
X112750000Y-55525000D01*
G75*
G02*
X113000000Y-55275000I250000J0D01*
G01*
X113500000Y-55275000D01*
G75*
G02*
X113750000Y-55525000I0J-250000D01*
G01*
G37*
G36*
G01*
X115650000Y-55525000D02*
X115650000Y-56475000D01*
G75*
G02*
X115400000Y-56725000I-250000J0D01*
G01*
X114900000Y-56725000D01*
G75*
G02*
X114650000Y-56475000I0J250000D01*
G01*
X114650000Y-55525000D01*
G75*
G02*
X114900000Y-55275000I250000J0D01*
G01*
X115400000Y-55275000D01*
G75*
G02*
X115650000Y-55525000I0J-250000D01*
G01*
G37*
G04 #@! TD*
G04 #@! TO.C,C2*
G36*
G01*
X110600000Y-76675000D02*
X110600000Y-75725000D01*
G75*
G02*
X110850000Y-75475000I250000J0D01*
G01*
X111350000Y-75475000D01*
G75*
G02*
X111600000Y-75725000I0J-250000D01*
G01*
X111600000Y-76675000D01*
G75*
G02*
X111350000Y-76925000I-250000J0D01*
G01*
X110850000Y-76925000D01*
G75*
G02*
X110600000Y-76675000I0J250000D01*
G01*
G37*
G36*
G01*
X108700000Y-76675000D02*
X108700000Y-75725000D01*
G75*
G02*
X108950000Y-75475000I250000J0D01*
G01*
X109450000Y-75475000D01*
G75*
G02*
X109700000Y-75725000I0J-250000D01*
G01*
X109700000Y-76675000D01*
G75*
G02*
X109450000Y-76925000I-250000J0D01*
G01*
X108950000Y-76925000D01*
G75*
G02*
X108700000Y-76675000I0J250000D01*
G01*
G37*
G04 #@! TD*
G04 #@! TO.C,C1*
G36*
G01*
X122375000Y-64300000D02*
X121425000Y-64300000D01*
G75*
G02*
X121175000Y-64050000I0J250000D01*
G01*
X121175000Y-63550000D01*
G75*
G02*
X121425000Y-63300000I250000J0D01*
G01*
X122375000Y-63300000D01*
G75*
G02*
X122625000Y-63550000I0J-250000D01*
G01*
X122625000Y-64050000D01*
G75*
G02*
X122375000Y-64300000I-250000J0D01*
G01*
G37*
G36*
G01*
X122375000Y-66200000D02*
X121425000Y-66200000D01*
G75*
G02*
X121175000Y-65950000I0J250000D01*
G01*
X121175000Y-65450000D01*
G75*
G02*
X121425000Y-65200000I250000J0D01*
G01*
X122375000Y-65200000D01*
G75*
G02*
X122625000Y-65450000I0J-250000D01*
G01*
X122625000Y-65950000D01*
G75*
G02*
X122375000Y-66200000I-250000J0D01*
G01*
G37*
G04 #@! TD*
M02*
