G04 #@! TF.GenerationSoftware,KiCad,Pcbnew,5.1.12-84ad8e8a86~92~ubuntu18.04.1*
G04 #@! TF.CreationDate,2021-11-24T18:10:13-06:00*
G04 #@! TF.ProjectId,sixpack,73697870-6163-46b2-9e6b-696361645f70,rev?*
G04 #@! TF.SameCoordinates,Original*
G04 #@! TF.FileFunction,Legend,Bot*
G04 #@! TF.FilePolarity,Positive*
%FSLAX46Y46*%
G04 Gerber Fmt 4.6, Leading zero omitted, Abs format (unit mm)*
G04 Created by KiCad (PCBNEW 5.1.12-84ad8e8a86~92~ubuntu18.04.1) date 2021-11-24 18:10:13*
%MOMM*%
%LPD*%
G01*
G04 APERTURE LIST*
%ADD10C,0.150000*%
%ADD11C,0.120000*%
%ADD12C,1.750000*%
%ADD13C,2.250000*%
%ADD14C,3.987800*%
%ADD15R,1.400000X1.200000*%
%ADD16O,1.700000X2.700000*%
%ADD17R,0.500000X2.250000*%
%ADD18R,0.550000X1.500000*%
%ADD19R,1.500000X0.550000*%
%ADD20R,1.800000X1.100000*%
%ADD21R,1.200000X0.900000*%
%ADD22R,0.900000X1.200000*%
G04 APERTURE END LIST*
D10*
X82202380Y-87152380D02*
X82535714Y-86676190D01*
X82773809Y-87152380D02*
X82773809Y-86152380D01*
X82392857Y-86152380D01*
X82297619Y-86200000D01*
X82250000Y-86247619D01*
X82202380Y-86342857D01*
X82202380Y-86485714D01*
X82250000Y-86580952D01*
X82297619Y-86628571D01*
X82392857Y-86676190D01*
X82773809Y-86676190D01*
X81869047Y-86485714D02*
X81630952Y-87152380D01*
X81392857Y-86485714D02*
X81630952Y-87152380D01*
X81726190Y-87390476D01*
X81773809Y-87438095D01*
X81869047Y-87485714D01*
X81011904Y-87152380D02*
X81011904Y-86152380D01*
X80440476Y-87152380D01*
X80440476Y-86152380D01*
X79821428Y-87152380D02*
X79916666Y-87104761D01*
X79964285Y-87057142D01*
X80011904Y-86961904D01*
X80011904Y-86676190D01*
X79964285Y-86580952D01*
X79916666Y-86533333D01*
X79821428Y-86485714D01*
X79678571Y-86485714D01*
X79583333Y-86533333D01*
X79535714Y-86580952D01*
X79488095Y-86676190D01*
X79488095Y-86961904D01*
X79535714Y-87057142D01*
X79583333Y-87104761D01*
X79678571Y-87152380D01*
X79821428Y-87152380D01*
X79297619Y-85785000D02*
X78345238Y-85785000D01*
X79107142Y-87104761D02*
X78964285Y-87152380D01*
X78726190Y-87152380D01*
X78630952Y-87104761D01*
X78583333Y-87057142D01*
X78535714Y-86961904D01*
X78535714Y-86866666D01*
X78583333Y-86771428D01*
X78630952Y-86723809D01*
X78726190Y-86676190D01*
X78916666Y-86628571D01*
X79011904Y-86580952D01*
X79059523Y-86533333D01*
X79107142Y-86438095D01*
X79107142Y-86342857D01*
X79059523Y-86247619D01*
X79011904Y-86200000D01*
X78916666Y-86152380D01*
X78678571Y-86152380D01*
X78535714Y-86200000D01*
X78345238Y-85785000D02*
X77869047Y-85785000D01*
X78107142Y-87152380D02*
X78107142Y-86485714D01*
X78107142Y-86152380D02*
X78154761Y-86200000D01*
X78107142Y-86247619D01*
X78059523Y-86200000D01*
X78107142Y-86152380D01*
X78107142Y-86247619D01*
X77869047Y-85785000D02*
X77059523Y-85785000D01*
X77726190Y-87152380D02*
X77202380Y-86485714D01*
X77726190Y-86485714D02*
X77202380Y-87152380D01*
X77059523Y-85785000D02*
X76059523Y-85785000D01*
X76821428Y-87152380D02*
X76821428Y-86152380D01*
X76440476Y-86152380D01*
X76345238Y-86200000D01*
X76297619Y-86247619D01*
X76250000Y-86342857D01*
X76250000Y-86485714D01*
X76297619Y-86580952D01*
X76345238Y-86628571D01*
X76440476Y-86676190D01*
X76821428Y-86676190D01*
X76059523Y-85785000D02*
X75154761Y-85785000D01*
X75392857Y-87152380D02*
X75392857Y-86628571D01*
X75440476Y-86533333D01*
X75535714Y-86485714D01*
X75726190Y-86485714D01*
X75821428Y-86533333D01*
X75392857Y-87104761D02*
X75488095Y-87152380D01*
X75726190Y-87152380D01*
X75821428Y-87104761D01*
X75869047Y-87009523D01*
X75869047Y-86914285D01*
X75821428Y-86819047D01*
X75726190Y-86771428D01*
X75488095Y-86771428D01*
X75392857Y-86723809D01*
X75154761Y-85785000D02*
X74297619Y-85785000D01*
X74488095Y-87104761D02*
X74583333Y-87152380D01*
X74773809Y-87152380D01*
X74869047Y-87104761D01*
X74916666Y-87057142D01*
X74964285Y-86961904D01*
X74964285Y-86676190D01*
X74916666Y-86580952D01*
X74869047Y-86533333D01*
X74773809Y-86485714D01*
X74583333Y-86485714D01*
X74488095Y-86533333D01*
X74297619Y-85785000D02*
X73488095Y-85785000D01*
X74059523Y-87152380D02*
X74059523Y-86152380D01*
X73964285Y-86771428D02*
X73678571Y-87152380D01*
X73678571Y-86485714D02*
X74059523Y-86866666D01*
D11*
G04 #@! TO.C,Y1*
X117100000Y-54800000D02*
X113100000Y-54800000D01*
X117100000Y-51500000D02*
X117100000Y-54800000D01*
D10*
G04 #@! TO.C,USB1*
X88860000Y-50140000D02*
X88860000Y-55590000D01*
X96560000Y-50140000D02*
X96560000Y-55590000D01*
X88860000Y-55590000D02*
X96560000Y-55590000D01*
G04 #@! TO.C,U1*
X106753000Y-71600000D02*
X105478000Y-71600000D01*
X117103000Y-72175000D02*
X116428000Y-72175000D01*
X117103000Y-61825000D02*
X116428000Y-61825000D01*
X106753000Y-61825000D02*
X107428000Y-61825000D01*
X106753000Y-72175000D02*
X107428000Y-72175000D01*
X106753000Y-61825000D02*
X106753000Y-62500000D01*
X117103000Y-61825000D02*
X117103000Y-62500000D01*
X117103000Y-72175000D02*
X117103000Y-71500000D01*
X106753000Y-72175000D02*
X106753000Y-71600000D01*
G04 #@! TO.C,SW1*
X101000000Y-61850000D02*
X95800000Y-61850000D01*
X95800000Y-61850000D02*
X95800000Y-67050000D01*
X95800000Y-67050000D02*
X101000000Y-67050000D01*
X101000000Y-67050000D02*
X101000000Y-61850000D01*
X99400000Y-64450000D02*
G75*
G03*
X99400000Y-64450000I-1000000J0D01*
G01*
D11*
G04 #@! TO.C,R4*
X122939564Y-71135000D02*
X122485436Y-71135000D01*
X122939564Y-69665000D02*
X122485436Y-69665000D01*
G04 #@! TO.C,R3*
X108477064Y-54035000D02*
X108022936Y-54035000D01*
X108477064Y-52565000D02*
X108022936Y-52565000D01*
G04 #@! TO.C,R2*
X92915000Y-58639564D02*
X92915000Y-58185436D01*
X94385000Y-58639564D02*
X94385000Y-58185436D01*
G04 #@! TO.C,R1*
X90865000Y-58639564D02*
X90865000Y-58185436D01*
X92335000Y-58639564D02*
X92335000Y-58185436D01*
G04 #@! TO.C,F1*
X88890000Y-65402064D02*
X88890000Y-64197936D01*
X90710000Y-65402064D02*
X90710000Y-64197936D01*
G04 #@! TO.C,D6*
X130800000Y-61200000D02*
X130800000Y-57300000D01*
X128800000Y-61200000D02*
X128800000Y-57300000D01*
X130800000Y-61200000D02*
X128800000Y-61200000D01*
G04 #@! TO.C,D5*
X128000000Y-85250000D02*
X128000000Y-81350000D01*
X126000000Y-85250000D02*
X126000000Y-81350000D01*
X128000000Y-85250000D02*
X126000000Y-85250000D01*
G04 #@! TO.C,D4*
X101050000Y-49450000D02*
X101050000Y-53350000D01*
X103050000Y-49450000D02*
X103050000Y-53350000D01*
X101050000Y-49450000D02*
X103050000Y-49450000D01*
G04 #@! TO.C,D3*
X109000000Y-85250000D02*
X109000000Y-81350000D01*
X107000000Y-85250000D02*
X107000000Y-81350000D01*
X109000000Y-85250000D02*
X107000000Y-85250000D01*
G04 #@! TO.C,D2*
X86200000Y-49650000D02*
X82300000Y-49650000D01*
X86200000Y-51650000D02*
X82300000Y-51650000D01*
X86200000Y-49650000D02*
X86200000Y-51650000D01*
G04 #@! TO.C,D1*
X90000000Y-85250000D02*
X90000000Y-81350000D01*
X88000000Y-85250000D02*
X88000000Y-81350000D01*
X90000000Y-85250000D02*
X88000000Y-85250000D01*
G04 #@! TO.C,C7*
X90535000Y-69588748D02*
X90535000Y-70111252D01*
X89065000Y-69588748D02*
X89065000Y-70111252D01*
G04 #@! TO.C,C6*
X104435000Y-66388748D02*
X104435000Y-66911252D01*
X102965000Y-66388748D02*
X102965000Y-66911252D01*
G04 #@! TO.C,C5*
X110915000Y-53411252D02*
X110915000Y-52888748D01*
X112385000Y-53411252D02*
X112385000Y-52888748D01*
G04 #@! TO.C,C4*
X108938748Y-55415000D02*
X109461252Y-55415000D01*
X108938748Y-56885000D02*
X109461252Y-56885000D01*
G04 #@! TO.C,C3*
X114461252Y-56735000D02*
X113938748Y-56735000D01*
X114461252Y-55265000D02*
X113938748Y-55265000D01*
G04 #@! TO.C,C2*
X109888748Y-75465000D02*
X110411252Y-75465000D01*
X109888748Y-76935000D02*
X110411252Y-76935000D01*
G04 #@! TO.C,C1*
X121165000Y-65011252D02*
X121165000Y-64488748D01*
X122635000Y-65011252D02*
X122635000Y-64488748D01*
G04 #@! TO.C,Y1*
D10*
X118626190Y-52026190D02*
X118626190Y-52502380D01*
X118959523Y-51502380D02*
X118626190Y-52026190D01*
X118292857Y-51502380D01*
X117435714Y-52502380D02*
X118007142Y-52502380D01*
X117721428Y-52502380D02*
X117721428Y-51502380D01*
X117816666Y-51645238D01*
X117911904Y-51740476D01*
X118007142Y-51788095D01*
G04 #@! TO.C,USB1*
X94448095Y-51624380D02*
X94448095Y-52433904D01*
X94400476Y-52529142D01*
X94352857Y-52576761D01*
X94257619Y-52624380D01*
X94067142Y-52624380D01*
X93971904Y-52576761D01*
X93924285Y-52529142D01*
X93876666Y-52433904D01*
X93876666Y-51624380D01*
X93448095Y-52576761D02*
X93305238Y-52624380D01*
X93067142Y-52624380D01*
X92971904Y-52576761D01*
X92924285Y-52529142D01*
X92876666Y-52433904D01*
X92876666Y-52338666D01*
X92924285Y-52243428D01*
X92971904Y-52195809D01*
X93067142Y-52148190D01*
X93257619Y-52100571D01*
X93352857Y-52052952D01*
X93400476Y-52005333D01*
X93448095Y-51910095D01*
X93448095Y-51814857D01*
X93400476Y-51719619D01*
X93352857Y-51672000D01*
X93257619Y-51624380D01*
X93019523Y-51624380D01*
X92876666Y-51672000D01*
X92114761Y-52100571D02*
X91971904Y-52148190D01*
X91924285Y-52195809D01*
X91876666Y-52291047D01*
X91876666Y-52433904D01*
X91924285Y-52529142D01*
X91971904Y-52576761D01*
X92067142Y-52624380D01*
X92448095Y-52624380D01*
X92448095Y-51624380D01*
X92114761Y-51624380D01*
X92019523Y-51672000D01*
X91971904Y-51719619D01*
X91924285Y-51814857D01*
X91924285Y-51910095D01*
X91971904Y-52005333D01*
X92019523Y-52052952D01*
X92114761Y-52100571D01*
X92448095Y-52100571D01*
X90924285Y-52624380D02*
X91495714Y-52624380D01*
X91210000Y-52624380D02*
X91210000Y-51624380D01*
X91305238Y-51767238D01*
X91400476Y-51862476D01*
X91495714Y-51910095D01*
G04 #@! TO.C,U1*
X112549904Y-67880380D02*
X112549904Y-68689904D01*
X112502285Y-68785142D01*
X112454666Y-68832761D01*
X112359428Y-68880380D01*
X112168952Y-68880380D01*
X112073714Y-68832761D01*
X112026095Y-68785142D01*
X111978476Y-68689904D01*
X111978476Y-67880380D01*
X110978476Y-68880380D02*
X111549904Y-68880380D01*
X111264190Y-68880380D02*
X111264190Y-67880380D01*
X111359428Y-68023238D01*
X111454666Y-68118476D01*
X111549904Y-68166095D01*
G04 #@! TO.C,SW1*
X99733333Y-68918761D02*
X99590476Y-68966380D01*
X99352380Y-68966380D01*
X99257142Y-68918761D01*
X99209523Y-68871142D01*
X99161904Y-68775904D01*
X99161904Y-68680666D01*
X99209523Y-68585428D01*
X99257142Y-68537809D01*
X99352380Y-68490190D01*
X99542857Y-68442571D01*
X99638095Y-68394952D01*
X99685714Y-68347333D01*
X99733333Y-68252095D01*
X99733333Y-68156857D01*
X99685714Y-68061619D01*
X99638095Y-68014000D01*
X99542857Y-67966380D01*
X99304761Y-67966380D01*
X99161904Y-68014000D01*
X98828571Y-67966380D02*
X98590476Y-68966380D01*
X98400000Y-68252095D01*
X98209523Y-68966380D01*
X97971428Y-67966380D01*
X97066666Y-68966380D02*
X97638095Y-68966380D01*
X97352380Y-68966380D02*
X97352380Y-67966380D01*
X97447619Y-68109238D01*
X97542857Y-68204476D01*
X97638095Y-68252095D01*
G04 #@! TO.C,R4*
X122879166Y-69202380D02*
X123212500Y-68726190D01*
X123450595Y-69202380D02*
X123450595Y-68202380D01*
X123069642Y-68202380D01*
X122974404Y-68250000D01*
X122926785Y-68297619D01*
X122879166Y-68392857D01*
X122879166Y-68535714D01*
X122926785Y-68630952D01*
X122974404Y-68678571D01*
X123069642Y-68726190D01*
X123450595Y-68726190D01*
X122022023Y-68535714D02*
X122022023Y-69202380D01*
X122260119Y-68154761D02*
X122498214Y-68869047D01*
X121879166Y-68869047D01*
G04 #@! TO.C,R3*
X108416666Y-52102380D02*
X108750000Y-51626190D01*
X108988095Y-52102380D02*
X108988095Y-51102380D01*
X108607142Y-51102380D01*
X108511904Y-51150000D01*
X108464285Y-51197619D01*
X108416666Y-51292857D01*
X108416666Y-51435714D01*
X108464285Y-51530952D01*
X108511904Y-51578571D01*
X108607142Y-51626190D01*
X108988095Y-51626190D01*
X108083333Y-51102380D02*
X107464285Y-51102380D01*
X107797619Y-51483333D01*
X107654761Y-51483333D01*
X107559523Y-51530952D01*
X107511904Y-51578571D01*
X107464285Y-51673809D01*
X107464285Y-51911904D01*
X107511904Y-52007142D01*
X107559523Y-52054761D01*
X107654761Y-52102380D01*
X107940476Y-52102380D01*
X108035714Y-52054761D01*
X108083333Y-52007142D01*
G04 #@! TO.C,R2*
X96102380Y-57658333D02*
X95626190Y-57325000D01*
X96102380Y-57086904D02*
X95102380Y-57086904D01*
X95102380Y-57467857D01*
X95150000Y-57563095D01*
X95197619Y-57610714D01*
X95292857Y-57658333D01*
X95435714Y-57658333D01*
X95530952Y-57610714D01*
X95578571Y-57563095D01*
X95626190Y-57467857D01*
X95626190Y-57086904D01*
X95197619Y-58039285D02*
X95150000Y-58086904D01*
X95102380Y-58182142D01*
X95102380Y-58420238D01*
X95150000Y-58515476D01*
X95197619Y-58563095D01*
X95292857Y-58610714D01*
X95388095Y-58610714D01*
X95530952Y-58563095D01*
X96102380Y-57991666D01*
X96102380Y-58610714D01*
G04 #@! TO.C,R1*
X90052380Y-57658333D02*
X89576190Y-57325000D01*
X90052380Y-57086904D02*
X89052380Y-57086904D01*
X89052380Y-57467857D01*
X89100000Y-57563095D01*
X89147619Y-57610714D01*
X89242857Y-57658333D01*
X89385714Y-57658333D01*
X89480952Y-57610714D01*
X89528571Y-57563095D01*
X89576190Y-57467857D01*
X89576190Y-57086904D01*
X90052380Y-58610714D02*
X90052380Y-58039285D01*
X90052380Y-58325000D02*
X89052380Y-58325000D01*
X89195238Y-58229761D01*
X89290476Y-58134523D01*
X89338095Y-58039285D01*
G04 #@! TO.C,F1*
X91548571Y-64466666D02*
X91548571Y-64133333D01*
X92072380Y-64133333D02*
X91072380Y-64133333D01*
X91072380Y-64609523D01*
X92072380Y-65514285D02*
X92072380Y-64942857D01*
X92072380Y-65228571D02*
X91072380Y-65228571D01*
X91215238Y-65133333D01*
X91310476Y-65038095D01*
X91358095Y-64942857D01*
G04 #@! TO.C,D6*
X132252380Y-58211904D02*
X131252380Y-58211904D01*
X131252380Y-58450000D01*
X131300000Y-58592857D01*
X131395238Y-58688095D01*
X131490476Y-58735714D01*
X131680952Y-58783333D01*
X131823809Y-58783333D01*
X132014285Y-58735714D01*
X132109523Y-58688095D01*
X132204761Y-58592857D01*
X132252380Y-58450000D01*
X132252380Y-58211904D01*
X131252380Y-59640476D02*
X131252380Y-59450000D01*
X131300000Y-59354761D01*
X131347619Y-59307142D01*
X131490476Y-59211904D01*
X131680952Y-59164285D01*
X132061904Y-59164285D01*
X132157142Y-59211904D01*
X132204761Y-59259523D01*
X132252380Y-59354761D01*
X132252380Y-59545238D01*
X132204761Y-59640476D01*
X132157142Y-59688095D01*
X132061904Y-59735714D01*
X131823809Y-59735714D01*
X131728571Y-59688095D01*
X131680952Y-59640476D01*
X131633333Y-59545238D01*
X131633333Y-59354761D01*
X131680952Y-59259523D01*
X131728571Y-59211904D01*
X131823809Y-59164285D01*
G04 #@! TO.C,D5*
X129452380Y-82261904D02*
X128452380Y-82261904D01*
X128452380Y-82500000D01*
X128500000Y-82642857D01*
X128595238Y-82738095D01*
X128690476Y-82785714D01*
X128880952Y-82833333D01*
X129023809Y-82833333D01*
X129214285Y-82785714D01*
X129309523Y-82738095D01*
X129404761Y-82642857D01*
X129452380Y-82500000D01*
X129452380Y-82261904D01*
X128452380Y-83738095D02*
X128452380Y-83261904D01*
X128928571Y-83214285D01*
X128880952Y-83261904D01*
X128833333Y-83357142D01*
X128833333Y-83595238D01*
X128880952Y-83690476D01*
X128928571Y-83738095D01*
X129023809Y-83785714D01*
X129261904Y-83785714D01*
X129357142Y-83738095D01*
X129404761Y-83690476D01*
X129452380Y-83595238D01*
X129452380Y-83357142D01*
X129404761Y-83261904D01*
X129357142Y-83214285D01*
G04 #@! TO.C,D4*
X100502380Y-50961904D02*
X99502380Y-50961904D01*
X99502380Y-51200000D01*
X99550000Y-51342857D01*
X99645238Y-51438095D01*
X99740476Y-51485714D01*
X99930952Y-51533333D01*
X100073809Y-51533333D01*
X100264285Y-51485714D01*
X100359523Y-51438095D01*
X100454761Y-51342857D01*
X100502380Y-51200000D01*
X100502380Y-50961904D01*
X99835714Y-52390476D02*
X100502380Y-52390476D01*
X99454761Y-52152380D02*
X100169047Y-51914285D01*
X100169047Y-52533333D01*
G04 #@! TO.C,D3*
X110452380Y-82261904D02*
X109452380Y-82261904D01*
X109452380Y-82500000D01*
X109500000Y-82642857D01*
X109595238Y-82738095D01*
X109690476Y-82785714D01*
X109880952Y-82833333D01*
X110023809Y-82833333D01*
X110214285Y-82785714D01*
X110309523Y-82738095D01*
X110404761Y-82642857D01*
X110452380Y-82500000D01*
X110452380Y-82261904D01*
X109452380Y-83166666D02*
X109452380Y-83785714D01*
X109833333Y-83452380D01*
X109833333Y-83595238D01*
X109880952Y-83690476D01*
X109928571Y-83738095D01*
X110023809Y-83785714D01*
X110261904Y-83785714D01*
X110357142Y-83738095D01*
X110404761Y-83690476D01*
X110452380Y-83595238D01*
X110452380Y-83309523D01*
X110404761Y-83214285D01*
X110357142Y-83166666D01*
G04 #@! TO.C,D2*
X84688095Y-49102380D02*
X84688095Y-48102380D01*
X84450000Y-48102380D01*
X84307142Y-48150000D01*
X84211904Y-48245238D01*
X84164285Y-48340476D01*
X84116666Y-48530952D01*
X84116666Y-48673809D01*
X84164285Y-48864285D01*
X84211904Y-48959523D01*
X84307142Y-49054761D01*
X84450000Y-49102380D01*
X84688095Y-49102380D01*
X83735714Y-48197619D02*
X83688095Y-48150000D01*
X83592857Y-48102380D01*
X83354761Y-48102380D01*
X83259523Y-48150000D01*
X83211904Y-48197619D01*
X83164285Y-48292857D01*
X83164285Y-48388095D01*
X83211904Y-48530952D01*
X83783333Y-49102380D01*
X83164285Y-49102380D01*
G04 #@! TO.C,D1*
X91452380Y-82261904D02*
X90452380Y-82261904D01*
X90452380Y-82500000D01*
X90500000Y-82642857D01*
X90595238Y-82738095D01*
X90690476Y-82785714D01*
X90880952Y-82833333D01*
X91023809Y-82833333D01*
X91214285Y-82785714D01*
X91309523Y-82738095D01*
X91404761Y-82642857D01*
X91452380Y-82500000D01*
X91452380Y-82261904D01*
X91452380Y-83785714D02*
X91452380Y-83214285D01*
X91452380Y-83500000D02*
X90452380Y-83500000D01*
X90595238Y-83404761D01*
X90690476Y-83309523D01*
X90738095Y-83214285D01*
G04 #@! TO.C,C7*
X88477142Y-69683333D02*
X88524761Y-69635714D01*
X88572380Y-69492857D01*
X88572380Y-69397619D01*
X88524761Y-69254761D01*
X88429523Y-69159523D01*
X88334285Y-69111904D01*
X88143809Y-69064285D01*
X88000952Y-69064285D01*
X87810476Y-69111904D01*
X87715238Y-69159523D01*
X87620000Y-69254761D01*
X87572380Y-69397619D01*
X87572380Y-69492857D01*
X87620000Y-69635714D01*
X87667619Y-69683333D01*
X87572380Y-70016666D02*
X87572380Y-70683333D01*
X88572380Y-70254761D01*
G04 #@! TO.C,C6*
X102377142Y-66483333D02*
X102424761Y-66435714D01*
X102472380Y-66292857D01*
X102472380Y-66197619D01*
X102424761Y-66054761D01*
X102329523Y-65959523D01*
X102234285Y-65911904D01*
X102043809Y-65864285D01*
X101900952Y-65864285D01*
X101710476Y-65911904D01*
X101615238Y-65959523D01*
X101520000Y-66054761D01*
X101472380Y-66197619D01*
X101472380Y-66292857D01*
X101520000Y-66435714D01*
X101567619Y-66483333D01*
X101472380Y-67340476D02*
X101472380Y-67150000D01*
X101520000Y-67054761D01*
X101567619Y-67007142D01*
X101710476Y-66911904D01*
X101900952Y-66864285D01*
X102281904Y-66864285D01*
X102377142Y-66911904D01*
X102424761Y-66959523D01*
X102472380Y-67054761D01*
X102472380Y-67245238D01*
X102424761Y-67340476D01*
X102377142Y-67388095D01*
X102281904Y-67435714D01*
X102043809Y-67435714D01*
X101948571Y-67388095D01*
X101900952Y-67340476D01*
X101853333Y-67245238D01*
X101853333Y-67054761D01*
X101900952Y-66959523D01*
X101948571Y-66911904D01*
X102043809Y-66864285D01*
G04 #@! TO.C,C5*
X111007142Y-49883333D02*
X111054761Y-49835714D01*
X111102380Y-49692857D01*
X111102380Y-49597619D01*
X111054761Y-49454761D01*
X110959523Y-49359523D01*
X110864285Y-49311904D01*
X110673809Y-49264285D01*
X110530952Y-49264285D01*
X110340476Y-49311904D01*
X110245238Y-49359523D01*
X110150000Y-49454761D01*
X110102380Y-49597619D01*
X110102380Y-49692857D01*
X110150000Y-49835714D01*
X110197619Y-49883333D01*
X110102380Y-50788095D02*
X110102380Y-50311904D01*
X110578571Y-50264285D01*
X110530952Y-50311904D01*
X110483333Y-50407142D01*
X110483333Y-50645238D01*
X110530952Y-50740476D01*
X110578571Y-50788095D01*
X110673809Y-50835714D01*
X110911904Y-50835714D01*
X111007142Y-50788095D01*
X111054761Y-50740476D01*
X111102380Y-50645238D01*
X111102380Y-50407142D01*
X111054761Y-50311904D01*
X111007142Y-50264285D01*
G04 #@! TO.C,C4*
X109366666Y-58187142D02*
X109414285Y-58234761D01*
X109557142Y-58282380D01*
X109652380Y-58282380D01*
X109795238Y-58234761D01*
X109890476Y-58139523D01*
X109938095Y-58044285D01*
X109985714Y-57853809D01*
X109985714Y-57710952D01*
X109938095Y-57520476D01*
X109890476Y-57425238D01*
X109795238Y-57330000D01*
X109652380Y-57282380D01*
X109557142Y-57282380D01*
X109414285Y-57330000D01*
X109366666Y-57377619D01*
X108509523Y-57615714D02*
X108509523Y-58282380D01*
X108747619Y-57234761D02*
X108985714Y-57949047D01*
X108366666Y-57949047D01*
G04 #@! TO.C,C3*
X115307142Y-57883333D02*
X115354761Y-57835714D01*
X115402380Y-57692857D01*
X115402380Y-57597619D01*
X115354761Y-57454761D01*
X115259523Y-57359523D01*
X115164285Y-57311904D01*
X114973809Y-57264285D01*
X114830952Y-57264285D01*
X114640476Y-57311904D01*
X114545238Y-57359523D01*
X114450000Y-57454761D01*
X114402380Y-57597619D01*
X114402380Y-57692857D01*
X114450000Y-57835714D01*
X114497619Y-57883333D01*
X114402380Y-58216666D02*
X114402380Y-58835714D01*
X114783333Y-58502380D01*
X114783333Y-58645238D01*
X114830952Y-58740476D01*
X114878571Y-58788095D01*
X114973809Y-58835714D01*
X115211904Y-58835714D01*
X115307142Y-58788095D01*
X115354761Y-58740476D01*
X115402380Y-58645238D01*
X115402380Y-58359523D01*
X115354761Y-58264285D01*
X115307142Y-58216666D01*
G04 #@! TO.C,C2*
X110316666Y-78237142D02*
X110364285Y-78284761D01*
X110507142Y-78332380D01*
X110602380Y-78332380D01*
X110745238Y-78284761D01*
X110840476Y-78189523D01*
X110888095Y-78094285D01*
X110935714Y-77903809D01*
X110935714Y-77760952D01*
X110888095Y-77570476D01*
X110840476Y-77475238D01*
X110745238Y-77380000D01*
X110602380Y-77332380D01*
X110507142Y-77332380D01*
X110364285Y-77380000D01*
X110316666Y-77427619D01*
X109935714Y-77427619D02*
X109888095Y-77380000D01*
X109792857Y-77332380D01*
X109554761Y-77332380D01*
X109459523Y-77380000D01*
X109411904Y-77427619D01*
X109364285Y-77522857D01*
X109364285Y-77618095D01*
X109411904Y-77760952D01*
X109983333Y-78332380D01*
X109364285Y-78332380D01*
G04 #@! TO.C,C1*
X123937142Y-64583333D02*
X123984761Y-64535714D01*
X124032380Y-64392857D01*
X124032380Y-64297619D01*
X123984761Y-64154761D01*
X123889523Y-64059523D01*
X123794285Y-64011904D01*
X123603809Y-63964285D01*
X123460952Y-63964285D01*
X123270476Y-64011904D01*
X123175238Y-64059523D01*
X123080000Y-64154761D01*
X123032380Y-64297619D01*
X123032380Y-64392857D01*
X123080000Y-64535714D01*
X123127619Y-64583333D01*
X124032380Y-65535714D02*
X124032380Y-64964285D01*
X124032380Y-65250000D02*
X123032380Y-65250000D01*
X123175238Y-65154761D01*
X123270476Y-65059523D01*
X123318095Y-64964285D01*
G04 #@! TD*
%LPC*%
D12*
G04 #@! TO.C,MX4*
X107460000Y-58930000D03*
X97300000Y-58930000D03*
D13*
X99880000Y-54930000D03*
D14*
X102380000Y-58930000D03*
G36*
G01*
X97818688Y-57227350D02*
X97818683Y-57227345D01*
G75*
G02*
X97732655Y-55638683I751317J837345D01*
G01*
X99042657Y-54178683D01*
G75*
G02*
X100631319Y-54092655I837345J-751317D01*
G01*
X100631319Y-54092655D01*
G75*
G02*
X100717347Y-55681317I-751317J-837345D01*
G01*
X99407345Y-57141317D01*
G75*
G02*
X97818683Y-57227345I-837345J751317D01*
G01*
G37*
D13*
X104920000Y-53850000D03*
G36*
G01*
X104803483Y-55552395D02*
X104802597Y-55552334D01*
G75*
G02*
X103757666Y-54352597I77403J1122334D01*
G01*
X103797666Y-53772597D01*
G75*
G02*
X104997403Y-52727666I1122334J-77403D01*
G01*
X104997403Y-52727666D01*
G75*
G02*
X106042334Y-53927403I-77403J-1122334D01*
G01*
X106002334Y-54507403D01*
G75*
G02*
X104802597Y-55552334I-1122334J77403D01*
G01*
G37*
G04 #@! TD*
D12*
G04 #@! TO.C,MX2*
X88423750Y-59000000D03*
X78263750Y-59000000D03*
D13*
X80843750Y-55000000D03*
D14*
X83343750Y-59000000D03*
G36*
G01*
X78782438Y-57297350D02*
X78782433Y-57297345D01*
G75*
G02*
X78696405Y-55708683I751317J837345D01*
G01*
X80006407Y-54248683D01*
G75*
G02*
X81595069Y-54162655I837345J-751317D01*
G01*
X81595069Y-54162655D01*
G75*
G02*
X81681097Y-55751317I-751317J-837345D01*
G01*
X80371095Y-57211317D01*
G75*
G02*
X78782433Y-57297345I-837345J751317D01*
G01*
G37*
D13*
X85883750Y-53920000D03*
G36*
G01*
X85767233Y-55622395D02*
X85766347Y-55622334D01*
G75*
G02*
X84721416Y-54422597I77403J1122334D01*
G01*
X84761416Y-53842597D01*
G75*
G02*
X85961153Y-52797666I1122334J-77403D01*
G01*
X85961153Y-52797666D01*
G75*
G02*
X87006084Y-53997403I-77403J-1122334D01*
G01*
X86966084Y-54577403D01*
G75*
G02*
X85766347Y-55622334I-1122334J77403D01*
G01*
G37*
G04 #@! TD*
D15*
G04 #@! TO.C,Y1*
X116200000Y-52300000D03*
X114000000Y-52300000D03*
X114000000Y-54000000D03*
X116200000Y-54000000D03*
G04 #@! TD*
D16*
G04 #@! TO.C,USB1*
X89060000Y-50140000D03*
X96360000Y-50140000D03*
X96360000Y-54640000D03*
X89060000Y-54640000D03*
D17*
X91110000Y-54640000D03*
X91910000Y-54640000D03*
X92710000Y-54640000D03*
X93510000Y-54640000D03*
X94310000Y-54640000D03*
G04 #@! TD*
D18*
G04 #@! TO.C,U1*
X107928000Y-72700000D03*
X108728000Y-72700000D03*
X109528000Y-72700000D03*
X110328000Y-72700000D03*
X111128000Y-72700000D03*
X111928000Y-72700000D03*
X112728000Y-72700000D03*
X113528000Y-72700000D03*
X114328000Y-72700000D03*
X115128000Y-72700000D03*
X115928000Y-72700000D03*
D19*
X117628000Y-71000000D03*
X117628000Y-70200000D03*
X117628000Y-69400000D03*
X117628000Y-68600000D03*
X117628000Y-67800000D03*
X117628000Y-67000000D03*
X117628000Y-66200000D03*
X117628000Y-65400000D03*
X117628000Y-64600000D03*
X117628000Y-63800000D03*
X117628000Y-63000000D03*
D18*
X115928000Y-61300000D03*
X115128000Y-61300000D03*
X114328000Y-61300000D03*
X113528000Y-61300000D03*
X112728000Y-61300000D03*
X111928000Y-61300000D03*
X111128000Y-61300000D03*
X110328000Y-61300000D03*
X109528000Y-61300000D03*
X108728000Y-61300000D03*
X107928000Y-61300000D03*
D19*
X106228000Y-63000000D03*
X106228000Y-63800000D03*
X106228000Y-64600000D03*
X106228000Y-65400000D03*
X106228000Y-66200000D03*
X106228000Y-67000000D03*
X106228000Y-67800000D03*
X106228000Y-68600000D03*
X106228000Y-69400000D03*
X106228000Y-70200000D03*
X106228000Y-71000000D03*
G04 #@! TD*
D20*
G04 #@! TO.C,SW1*
X101500000Y-66300000D03*
X95300000Y-62600000D03*
X101500000Y-62600000D03*
X95300000Y-66300000D03*
G04 #@! TD*
G04 #@! TO.C,R4*
G36*
G01*
X122312500Y-69949999D02*
X122312500Y-70850001D01*
G75*
G02*
X122062501Y-71100000I-249999J0D01*
G01*
X121537499Y-71100000D01*
G75*
G02*
X121287500Y-70850001I0J249999D01*
G01*
X121287500Y-69949999D01*
G75*
G02*
X121537499Y-69700000I249999J0D01*
G01*
X122062501Y-69700000D01*
G75*
G02*
X122312500Y-69949999I0J-249999D01*
G01*
G37*
G36*
G01*
X124137500Y-69949999D02*
X124137500Y-70850001D01*
G75*
G02*
X123887501Y-71100000I-249999J0D01*
G01*
X123362499Y-71100000D01*
G75*
G02*
X123112500Y-70850001I0J249999D01*
G01*
X123112500Y-69949999D01*
G75*
G02*
X123362499Y-69700000I249999J0D01*
G01*
X123887501Y-69700000D01*
G75*
G02*
X124137500Y-69949999I0J-249999D01*
G01*
G37*
G04 #@! TD*
G04 #@! TO.C,R3*
G36*
G01*
X107850000Y-52849999D02*
X107850000Y-53750001D01*
G75*
G02*
X107600001Y-54000000I-249999J0D01*
G01*
X107074999Y-54000000D01*
G75*
G02*
X106825000Y-53750001I0J249999D01*
G01*
X106825000Y-52849999D01*
G75*
G02*
X107074999Y-52600000I249999J0D01*
G01*
X107600001Y-52600000D01*
G75*
G02*
X107850000Y-52849999I0J-249999D01*
G01*
G37*
G36*
G01*
X109675000Y-52849999D02*
X109675000Y-53750001D01*
G75*
G02*
X109425001Y-54000000I-249999J0D01*
G01*
X108899999Y-54000000D01*
G75*
G02*
X108650000Y-53750001I0J249999D01*
G01*
X108650000Y-52849999D01*
G75*
G02*
X108899999Y-52600000I249999J0D01*
G01*
X109425001Y-52600000D01*
G75*
G02*
X109675000Y-52849999I0J-249999D01*
G01*
G37*
G04 #@! TD*
G04 #@! TO.C,R2*
G36*
G01*
X94100001Y-58012500D02*
X93199999Y-58012500D01*
G75*
G02*
X92950000Y-57762501I0J249999D01*
G01*
X92950000Y-57237499D01*
G75*
G02*
X93199999Y-56987500I249999J0D01*
G01*
X94100001Y-56987500D01*
G75*
G02*
X94350000Y-57237499I0J-249999D01*
G01*
X94350000Y-57762501D01*
G75*
G02*
X94100001Y-58012500I-249999J0D01*
G01*
G37*
G36*
G01*
X94100001Y-59837500D02*
X93199999Y-59837500D01*
G75*
G02*
X92950000Y-59587501I0J249999D01*
G01*
X92950000Y-59062499D01*
G75*
G02*
X93199999Y-58812500I249999J0D01*
G01*
X94100001Y-58812500D01*
G75*
G02*
X94350000Y-59062499I0J-249999D01*
G01*
X94350000Y-59587501D01*
G75*
G02*
X94100001Y-59837500I-249999J0D01*
G01*
G37*
G04 #@! TD*
G04 #@! TO.C,R1*
G36*
G01*
X92050001Y-58012500D02*
X91149999Y-58012500D01*
G75*
G02*
X90900000Y-57762501I0J249999D01*
G01*
X90900000Y-57237499D01*
G75*
G02*
X91149999Y-56987500I249999J0D01*
G01*
X92050001Y-56987500D01*
G75*
G02*
X92300000Y-57237499I0J-249999D01*
G01*
X92300000Y-57762501D01*
G75*
G02*
X92050001Y-58012500I-249999J0D01*
G01*
G37*
G36*
G01*
X92050001Y-59837500D02*
X91149999Y-59837500D01*
G75*
G02*
X90900000Y-59587501I0J249999D01*
G01*
X90900000Y-59062499D01*
G75*
G02*
X91149999Y-58812500I249999J0D01*
G01*
X92050001Y-58812500D01*
G75*
G02*
X92300000Y-59062499I0J-249999D01*
G01*
X92300000Y-59587501D01*
G75*
G02*
X92050001Y-59837500I-249999J0D01*
G01*
G37*
G04 #@! TD*
D12*
G04 #@! TO.C,MX6*
X126500000Y-58930000D03*
X116340000Y-58930000D03*
D13*
X118920000Y-54930000D03*
D14*
X121420000Y-58930000D03*
G36*
G01*
X116858688Y-57227350D02*
X116858683Y-57227345D01*
G75*
G02*
X116772655Y-55638683I751317J837345D01*
G01*
X118082657Y-54178683D01*
G75*
G02*
X119671319Y-54092655I837345J-751317D01*
G01*
X119671319Y-54092655D01*
G75*
G02*
X119757347Y-55681317I-751317J-837345D01*
G01*
X118447345Y-57141317D01*
G75*
G02*
X116858683Y-57227345I-837345J751317D01*
G01*
G37*
D13*
X123960000Y-53850000D03*
G36*
G01*
X123843483Y-55552395D02*
X123842597Y-55552334D01*
G75*
G02*
X122797666Y-54352597I77403J1122334D01*
G01*
X122837666Y-53772597D01*
G75*
G02*
X124037403Y-52727666I1122334J-77403D01*
G01*
X124037403Y-52727666D01*
G75*
G02*
X125082334Y-53927403I-77403J-1122334D01*
G01*
X125042334Y-54507403D01*
G75*
G02*
X123842597Y-55552334I-1122334J77403D01*
G01*
G37*
G04 #@! TD*
D12*
G04 #@! TO.C,MX5*
X126520000Y-78010000D03*
X116360000Y-78010000D03*
D13*
X118940000Y-74010000D03*
D14*
X121440000Y-78010000D03*
G36*
G01*
X116878688Y-76307350D02*
X116878683Y-76307345D01*
G75*
G02*
X116792655Y-74718683I751317J837345D01*
G01*
X118102657Y-73258683D01*
G75*
G02*
X119691319Y-73172655I837345J-751317D01*
G01*
X119691319Y-73172655D01*
G75*
G02*
X119777347Y-74761317I-751317J-837345D01*
G01*
X118467345Y-76221317D01*
G75*
G02*
X116878683Y-76307345I-837345J751317D01*
G01*
G37*
D13*
X123980000Y-72930000D03*
G36*
G01*
X123863483Y-74632395D02*
X123862597Y-74632334D01*
G75*
G02*
X122817666Y-73432597I77403J1122334D01*
G01*
X122857666Y-72852597D01*
G75*
G02*
X124057403Y-71807666I1122334J-77403D01*
G01*
X124057403Y-71807666D01*
G75*
G02*
X125102334Y-73007403I-77403J-1122334D01*
G01*
X125062334Y-73587403D01*
G75*
G02*
X123862597Y-74632334I-1122334J77403D01*
G01*
G37*
G04 #@! TD*
D12*
G04 #@! TO.C,MX3*
X107480000Y-78030000D03*
X97320000Y-78030000D03*
D13*
X99900000Y-74030000D03*
D14*
X102400000Y-78030000D03*
G36*
G01*
X97838688Y-76327350D02*
X97838683Y-76327345D01*
G75*
G02*
X97752655Y-74738683I751317J837345D01*
G01*
X99062657Y-73278683D01*
G75*
G02*
X100651319Y-73192655I837345J-751317D01*
G01*
X100651319Y-73192655D01*
G75*
G02*
X100737347Y-74781317I-751317J-837345D01*
G01*
X99427345Y-76241317D01*
G75*
G02*
X97838683Y-76327345I-837345J751317D01*
G01*
G37*
D13*
X104940000Y-72950000D03*
G36*
G01*
X104823483Y-74652395D02*
X104822597Y-74652334D01*
G75*
G02*
X103777666Y-73452597I77403J1122334D01*
G01*
X103817666Y-72872597D01*
G75*
G02*
X105017403Y-71827666I1122334J-77403D01*
G01*
X105017403Y-71827666D01*
G75*
G02*
X106062334Y-73027403I-77403J-1122334D01*
G01*
X106022334Y-73607403D01*
G75*
G02*
X104822597Y-74652334I-1122334J77403D01*
G01*
G37*
G04 #@! TD*
D12*
G04 #@! TO.C,MX1*
X88423750Y-78020000D03*
X78263750Y-78020000D03*
D13*
X80843750Y-74020000D03*
D14*
X83343750Y-78020000D03*
G36*
G01*
X78782438Y-76317350D02*
X78782433Y-76317345D01*
G75*
G02*
X78696405Y-74728683I751317J837345D01*
G01*
X80006407Y-73268683D01*
G75*
G02*
X81595069Y-73182655I837345J-751317D01*
G01*
X81595069Y-73182655D01*
G75*
G02*
X81681097Y-74771317I-751317J-837345D01*
G01*
X80371095Y-76231317D01*
G75*
G02*
X78782433Y-76317345I-837345J751317D01*
G01*
G37*
D13*
X85883750Y-72940000D03*
G36*
G01*
X85767233Y-74642395D02*
X85766347Y-74642334D01*
G75*
G02*
X84721416Y-73442597I77403J1122334D01*
G01*
X84761416Y-72862597D01*
G75*
G02*
X85961153Y-71817666I1122334J-77403D01*
G01*
X85961153Y-71817666D01*
G75*
G02*
X87006084Y-73017403I-77403J-1122334D01*
G01*
X86966084Y-73597403D01*
G75*
G02*
X85766347Y-74642334I-1122334J77403D01*
G01*
G37*
G04 #@! TD*
G04 #@! TO.C,F1*
G36*
G01*
X90425000Y-64025000D02*
X89175000Y-64025000D01*
G75*
G02*
X88925000Y-63775000I0J250000D01*
G01*
X88925000Y-63025000D01*
G75*
G02*
X89175000Y-62775000I250000J0D01*
G01*
X90425000Y-62775000D01*
G75*
G02*
X90675000Y-63025000I0J-250000D01*
G01*
X90675000Y-63775000D01*
G75*
G02*
X90425000Y-64025000I-250000J0D01*
G01*
G37*
G36*
G01*
X90425000Y-66825000D02*
X89175000Y-66825000D01*
G75*
G02*
X88925000Y-66575000I0J250000D01*
G01*
X88925000Y-65825000D01*
G75*
G02*
X89175000Y-65575000I250000J0D01*
G01*
X90425000Y-65575000D01*
G75*
G02*
X90675000Y-65825000I0J-250000D01*
G01*
X90675000Y-66575000D01*
G75*
G02*
X90425000Y-66825000I-250000J0D01*
G01*
G37*
G04 #@! TD*
D21*
G04 #@! TO.C,D6*
X129800000Y-57300000D03*
X129800000Y-60600000D03*
G04 #@! TD*
G04 #@! TO.C,D5*
X127000000Y-81350000D03*
X127000000Y-84650000D03*
G04 #@! TD*
G04 #@! TO.C,D4*
X102050000Y-53350000D03*
X102050000Y-50050000D03*
G04 #@! TD*
G04 #@! TO.C,D3*
X108000000Y-81350000D03*
X108000000Y-84650000D03*
G04 #@! TD*
D22*
G04 #@! TO.C,D2*
X82300000Y-50650000D03*
X85600000Y-50650000D03*
G04 #@! TD*
D21*
G04 #@! TO.C,D1*
X89000000Y-81350000D03*
X89000000Y-84650000D03*
G04 #@! TD*
G04 #@! TO.C,C7*
G36*
G01*
X89325000Y-70300000D02*
X90275000Y-70300000D01*
G75*
G02*
X90525000Y-70550000I0J-250000D01*
G01*
X90525000Y-71050000D01*
G75*
G02*
X90275000Y-71300000I-250000J0D01*
G01*
X89325000Y-71300000D01*
G75*
G02*
X89075000Y-71050000I0J250000D01*
G01*
X89075000Y-70550000D01*
G75*
G02*
X89325000Y-70300000I250000J0D01*
G01*
G37*
G36*
G01*
X89325000Y-68400000D02*
X90275000Y-68400000D01*
G75*
G02*
X90525000Y-68650000I0J-250000D01*
G01*
X90525000Y-69150000D01*
G75*
G02*
X90275000Y-69400000I-250000J0D01*
G01*
X89325000Y-69400000D01*
G75*
G02*
X89075000Y-69150000I0J250000D01*
G01*
X89075000Y-68650000D01*
G75*
G02*
X89325000Y-68400000I250000J0D01*
G01*
G37*
G04 #@! TD*
G04 #@! TO.C,C6*
G36*
G01*
X103225000Y-67100000D02*
X104175000Y-67100000D01*
G75*
G02*
X104425000Y-67350000I0J-250000D01*
G01*
X104425000Y-67850000D01*
G75*
G02*
X104175000Y-68100000I-250000J0D01*
G01*
X103225000Y-68100000D01*
G75*
G02*
X102975000Y-67850000I0J250000D01*
G01*
X102975000Y-67350000D01*
G75*
G02*
X103225000Y-67100000I250000J0D01*
G01*
G37*
G36*
G01*
X103225000Y-65200000D02*
X104175000Y-65200000D01*
G75*
G02*
X104425000Y-65450000I0J-250000D01*
G01*
X104425000Y-65950000D01*
G75*
G02*
X104175000Y-66200000I-250000J0D01*
G01*
X103225000Y-66200000D01*
G75*
G02*
X102975000Y-65950000I0J250000D01*
G01*
X102975000Y-65450000D01*
G75*
G02*
X103225000Y-65200000I250000J0D01*
G01*
G37*
G04 #@! TD*
G04 #@! TO.C,C5*
G36*
G01*
X112125000Y-52700000D02*
X111175000Y-52700000D01*
G75*
G02*
X110925000Y-52450000I0J250000D01*
G01*
X110925000Y-51950000D01*
G75*
G02*
X111175000Y-51700000I250000J0D01*
G01*
X112125000Y-51700000D01*
G75*
G02*
X112375000Y-51950000I0J-250000D01*
G01*
X112375000Y-52450000D01*
G75*
G02*
X112125000Y-52700000I-250000J0D01*
G01*
G37*
G36*
G01*
X112125000Y-54600000D02*
X111175000Y-54600000D01*
G75*
G02*
X110925000Y-54350000I0J250000D01*
G01*
X110925000Y-53850000D01*
G75*
G02*
X111175000Y-53600000I250000J0D01*
G01*
X112125000Y-53600000D01*
G75*
G02*
X112375000Y-53850000I0J-250000D01*
G01*
X112375000Y-54350000D01*
G75*
G02*
X112125000Y-54600000I-250000J0D01*
G01*
G37*
G04 #@! TD*
G04 #@! TO.C,C4*
G36*
G01*
X109650000Y-56625000D02*
X109650000Y-55675000D01*
G75*
G02*
X109900000Y-55425000I250000J0D01*
G01*
X110400000Y-55425000D01*
G75*
G02*
X110650000Y-55675000I0J-250000D01*
G01*
X110650000Y-56625000D01*
G75*
G02*
X110400000Y-56875000I-250000J0D01*
G01*
X109900000Y-56875000D01*
G75*
G02*
X109650000Y-56625000I0J250000D01*
G01*
G37*
G36*
G01*
X107750000Y-56625000D02*
X107750000Y-55675000D01*
G75*
G02*
X108000000Y-55425000I250000J0D01*
G01*
X108500000Y-55425000D01*
G75*
G02*
X108750000Y-55675000I0J-250000D01*
G01*
X108750000Y-56625000D01*
G75*
G02*
X108500000Y-56875000I-250000J0D01*
G01*
X108000000Y-56875000D01*
G75*
G02*
X107750000Y-56625000I0J250000D01*
G01*
G37*
G04 #@! TD*
G04 #@! TO.C,C3*
G36*
G01*
X113750000Y-55525000D02*
X113750000Y-56475000D01*
G75*
G02*
X113500000Y-56725000I-250000J0D01*
G01*
X113000000Y-56725000D01*
G75*
G02*
X112750000Y-56475000I0J250000D01*
G01*
X112750000Y-55525000D01*
G75*
G02*
X113000000Y-55275000I250000J0D01*
G01*
X113500000Y-55275000D01*
G75*
G02*
X113750000Y-55525000I0J-250000D01*
G01*
G37*
G36*
G01*
X115650000Y-55525000D02*
X115650000Y-56475000D01*
G75*
G02*
X115400000Y-56725000I-250000J0D01*
G01*
X114900000Y-56725000D01*
G75*
G02*
X114650000Y-56475000I0J250000D01*
G01*
X114650000Y-55525000D01*
G75*
G02*
X114900000Y-55275000I250000J0D01*
G01*
X115400000Y-55275000D01*
G75*
G02*
X115650000Y-55525000I0J-250000D01*
G01*
G37*
G04 #@! TD*
G04 #@! TO.C,C2*
G36*
G01*
X110600000Y-76675000D02*
X110600000Y-75725000D01*
G75*
G02*
X110850000Y-75475000I250000J0D01*
G01*
X111350000Y-75475000D01*
G75*
G02*
X111600000Y-75725000I0J-250000D01*
G01*
X111600000Y-76675000D01*
G75*
G02*
X111350000Y-76925000I-250000J0D01*
G01*
X110850000Y-76925000D01*
G75*
G02*
X110600000Y-76675000I0J250000D01*
G01*
G37*
G36*
G01*
X108700000Y-76675000D02*
X108700000Y-75725000D01*
G75*
G02*
X108950000Y-75475000I250000J0D01*
G01*
X109450000Y-75475000D01*
G75*
G02*
X109700000Y-75725000I0J-250000D01*
G01*
X109700000Y-76675000D01*
G75*
G02*
X109450000Y-76925000I-250000J0D01*
G01*
X108950000Y-76925000D01*
G75*
G02*
X108700000Y-76675000I0J250000D01*
G01*
G37*
G04 #@! TD*
G04 #@! TO.C,C1*
G36*
G01*
X122375000Y-64300000D02*
X121425000Y-64300000D01*
G75*
G02*
X121175000Y-64050000I0J250000D01*
G01*
X121175000Y-63550000D01*
G75*
G02*
X121425000Y-63300000I250000J0D01*
G01*
X122375000Y-63300000D01*
G75*
G02*
X122625000Y-63550000I0J-250000D01*
G01*
X122625000Y-64050000D01*
G75*
G02*
X122375000Y-64300000I-250000J0D01*
G01*
G37*
G36*
G01*
X122375000Y-66200000D02*
X121425000Y-66200000D01*
G75*
G02*
X121175000Y-65950000I0J250000D01*
G01*
X121175000Y-65450000D01*
G75*
G02*
X121425000Y-65200000I250000J0D01*
G01*
X122375000Y-65200000D01*
G75*
G02*
X122625000Y-65450000I0J-250000D01*
G01*
X122625000Y-65950000D01*
G75*
G02*
X122375000Y-66200000I-250000J0D01*
G01*
G37*
G04 #@! TD*
M02*
