M48
; DRILL file {KiCad 5.1.12-84ad8e8a86~92~ubuntu18.04.1} date Wed 24 Nov 2021 06:11:04 PM CST
; FORMAT={-:-/ absolute / inch / decimal}
; #@! TF.CreationDate,2021-11-24T18:11:04-06:00
; #@! TF.GenerationSoftware,Kicad,Pcbnew,5.1.12-84ad8e8a86~92~ubuntu18.04.1
; #@! TF.FileFunction,Plated,1,2,PTH
FMAT,2
INCH
T1C0.0157
T2C0.0276
T3C0.0579
%
G90
G05
T1
X3.6201Y-2.7638
X3.6949Y-2.872
X3.7441Y-2.5413
X3.7461Y-2.6654
X3.9173Y-2.5098
X4.0571Y-3.4094
X4.0748Y-2.9665
X4.1358Y-2.2421
X4.2047Y-2.9921
X4.3051Y-2.0197
X4.3121Y-2.3239
X4.3406Y-3.0866
X4.4783Y-3.0866
X4.9055Y-2.5827
X4.9685Y-2.5354
X4.9744Y-2.7638
X5.0728Y-2.7343
T3
X3.1313Y-2.2228
X3.1313Y-2.9717
X3.1828Y-2.1654
X3.1828Y-2.9142
X3.3797Y-2.1457
X3.3797Y-2.8945
X3.3813Y-2.1228
X3.3813Y-2.8717
X3.8807Y-2.2201
X3.8815Y-2.972
X3.9323Y-2.1626
X3.9331Y-2.9146
X4.1291Y-2.1429
X4.1299Y-2.8949
X4.1307Y-2.1201
X4.1315Y-2.872
X4.6303Y-2.2201
X4.6311Y-2.9713
X4.6819Y-2.1626
X4.6827Y-2.9138
X4.8787Y-2.1429
X4.8795Y-2.8941
X4.8803Y-2.1201
X4.8811Y-2.8713
T2
G00X3.5063Y-1.9504
M15
G01X3.5063Y-1.9976
M16
G05
G00X3.5063Y-2.1276
M15
G01X3.5063Y-2.1748
M16
G05
G00X3.7937Y-1.9504
M15
G01X3.7937Y-1.9976
M16
G05
G00X3.7937Y-2.1276
M15
G01X3.7937Y-2.1748
M16
G05
T0
M30
