G04 #@! TF.GenerationSoftware,KiCad,Pcbnew,5.1.12-84ad8e8a86~92~ubuntu18.04.1*
G04 #@! TF.CreationDate,2021-11-24T18:10:13-06:00*
G04 #@! TF.ProjectId,sixpack,73697870-6163-46b2-9e6b-696361645f70,rev?*
G04 #@! TF.SameCoordinates,Original*
G04 #@! TF.FileFunction,Copper,L2,Bot*
G04 #@! TF.FilePolarity,Positive*
%FSLAX46Y46*%
G04 Gerber Fmt 4.6, Leading zero omitted, Abs format (unit mm)*
G04 Created by KiCad (PCBNEW 5.1.12-84ad8e8a86~92~ubuntu18.04.1) date 2021-11-24 18:10:13*
%MOMM*%
%LPD*%
G01*
G04 APERTURE LIST*
G04 #@! TA.AperFunction,ComponentPad*
%ADD10C,2.250000*%
G04 #@! TD*
G04 #@! TA.AperFunction,SMDPad,CuDef*
%ADD11R,1.400000X1.200000*%
G04 #@! TD*
G04 #@! TA.AperFunction,ComponentPad*
%ADD12O,1.700000X2.700000*%
G04 #@! TD*
G04 #@! TA.AperFunction,SMDPad,CuDef*
%ADD13R,0.500000X2.250000*%
G04 #@! TD*
G04 #@! TA.AperFunction,SMDPad,CuDef*
%ADD14R,0.550000X1.500000*%
G04 #@! TD*
G04 #@! TA.AperFunction,SMDPad,CuDef*
%ADD15R,1.500000X0.550000*%
G04 #@! TD*
G04 #@! TA.AperFunction,SMDPad,CuDef*
%ADD16R,1.800000X1.100000*%
G04 #@! TD*
G04 #@! TA.AperFunction,SMDPad,CuDef*
%ADD17R,1.200000X0.900000*%
G04 #@! TD*
G04 #@! TA.AperFunction,SMDPad,CuDef*
%ADD18R,0.900000X1.200000*%
G04 #@! TD*
G04 #@! TA.AperFunction,ViaPad*
%ADD19C,0.800000*%
G04 #@! TD*
G04 #@! TA.AperFunction,Conductor*
%ADD20C,0.381000*%
G04 #@! TD*
G04 #@! TA.AperFunction,Conductor*
%ADD21C,0.254000*%
G04 #@! TD*
G04 #@! TA.AperFunction,Conductor*
%ADD22C,0.020000*%
G04 #@! TD*
G04 APERTURE END LIST*
D10*
G04 #@! TO.P,MX4,1*
G04 #@! TO.N,COL1*
X99880000Y-54930000D03*
G04 #@! TA.AperFunction,ComponentPad*
G36*
G01*
X97818688Y-57227350D02*
X97818683Y-57227345D01*
G75*
G02*
X97732655Y-55638683I751317J837345D01*
G01*
X99042657Y-54178683D01*
G75*
G02*
X100631319Y-54092655I837345J-751317D01*
G01*
X100631319Y-54092655D01*
G75*
G02*
X100717347Y-55681317I-751317J-837345D01*
G01*
X99407345Y-57141317D01*
G75*
G02*
X97818683Y-57227345I-837345J751317D01*
G01*
G37*
G04 #@! TD.AperFunction*
G04 #@! TO.P,MX4,2*
G04 #@! TO.N,Net-(D4-Pad2)*
X104920000Y-53850000D03*
G04 #@! TA.AperFunction,ComponentPad*
G36*
G01*
X104803483Y-55552395D02*
X104802597Y-55552334D01*
G75*
G02*
X103757666Y-54352597I77403J1122334D01*
G01*
X103797666Y-53772597D01*
G75*
G02*
X104997403Y-52727666I1122334J-77403D01*
G01*
X104997403Y-52727666D01*
G75*
G02*
X106042334Y-53927403I-77403J-1122334D01*
G01*
X106002334Y-54507403D01*
G75*
G02*
X104802597Y-55552334I-1122334J77403D01*
G01*
G37*
G04 #@! TD.AperFunction*
G04 #@! TD*
G04 #@! TO.P,MX2,1*
G04 #@! TO.N,COL0*
X80843750Y-55000000D03*
G04 #@! TA.AperFunction,ComponentPad*
G36*
G01*
X78782438Y-57297350D02*
X78782433Y-57297345D01*
G75*
G02*
X78696405Y-55708683I751317J837345D01*
G01*
X80006407Y-54248683D01*
G75*
G02*
X81595069Y-54162655I837345J-751317D01*
G01*
X81595069Y-54162655D01*
G75*
G02*
X81681097Y-55751317I-751317J-837345D01*
G01*
X80371095Y-57211317D01*
G75*
G02*
X78782433Y-57297345I-837345J751317D01*
G01*
G37*
G04 #@! TD.AperFunction*
G04 #@! TO.P,MX2,2*
G04 #@! TO.N,Net-(D2-Pad2)*
X85883750Y-53920000D03*
G04 #@! TA.AperFunction,ComponentPad*
G36*
G01*
X85767233Y-55622395D02*
X85766347Y-55622334D01*
G75*
G02*
X84721416Y-54422597I77403J1122334D01*
G01*
X84761416Y-53842597D01*
G75*
G02*
X85961153Y-52797666I1122334J-77403D01*
G01*
X85961153Y-52797666D01*
G75*
G02*
X87006084Y-53997403I-77403J-1122334D01*
G01*
X86966084Y-54577403D01*
G75*
G02*
X85766347Y-55622334I-1122334J77403D01*
G01*
G37*
G04 #@! TD.AperFunction*
G04 #@! TD*
D11*
G04 #@! TO.P,Y1,4*
G04 #@! TO.N,GND*
X116200000Y-52300000D03*
G04 #@! TO.P,Y1,3*
G04 #@! TO.N,Net-(C5-Pad1)*
X114000000Y-52300000D03*
G04 #@! TO.P,Y1,2*
G04 #@! TO.N,GND*
X114000000Y-54000000D03*
G04 #@! TO.P,Y1,1*
G04 #@! TO.N,Net-(C3-Pad1)*
X116200000Y-54000000D03*
G04 #@! TD*
D12*
G04 #@! TO.P,USB1,6*
G04 #@! TO.N,GND*
X89060000Y-50140000D03*
X96360000Y-50140000D03*
X96360000Y-54640000D03*
X89060000Y-54640000D03*
D13*
G04 #@! TO.P,USB1,5*
G04 #@! TO.N,VCC*
X91110000Y-54640000D03*
G04 #@! TO.P,USB1,4*
G04 #@! TO.N,D-*
X91910000Y-54640000D03*
G04 #@! TO.P,USB1,3*
G04 #@! TO.N,D+*
X92710000Y-54640000D03*
G04 #@! TO.P,USB1,2*
G04 #@! TO.N,Net-(USB1-Pad2)*
X93510000Y-54640000D03*
G04 #@! TO.P,USB1,1*
G04 #@! TO.N,GND*
X94310000Y-54640000D03*
G04 #@! TD*
D14*
G04 #@! TO.P,U1,44*
G04 #@! TO.N,+5V*
X107928000Y-72700000D03*
G04 #@! TO.P,U1,43*
G04 #@! TO.N,GND*
X108728000Y-72700000D03*
G04 #@! TO.P,U1,42*
G04 #@! TO.N,Net-(U1-Pad42)*
X109528000Y-72700000D03*
G04 #@! TO.P,U1,41*
G04 #@! TO.N,Net-(U1-Pad41)*
X110328000Y-72700000D03*
G04 #@! TO.P,U1,40*
G04 #@! TO.N,Net-(U1-Pad40)*
X111128000Y-72700000D03*
G04 #@! TO.P,U1,39*
G04 #@! TO.N,Net-(U1-Pad39)*
X111928000Y-72700000D03*
G04 #@! TO.P,U1,38*
G04 #@! TO.N,Net-(U1-Pad38)*
X112728000Y-72700000D03*
G04 #@! TO.P,U1,37*
G04 #@! TO.N,Net-(U1-Pad37)*
X113528000Y-72700000D03*
G04 #@! TO.P,U1,36*
G04 #@! TO.N,Net-(U1-Pad36)*
X114328000Y-72700000D03*
G04 #@! TO.P,U1,35*
G04 #@! TO.N,GND*
X115128000Y-72700000D03*
G04 #@! TO.P,U1,34*
G04 #@! TO.N,+5V*
X115928000Y-72700000D03*
D15*
G04 #@! TO.P,U1,33*
G04 #@! TO.N,Net-(R4-Pad2)*
X117628000Y-71000000D03*
G04 #@! TO.P,U1,32*
G04 #@! TO.N,Net-(U1-Pad32)*
X117628000Y-70200000D03*
G04 #@! TO.P,U1,31*
G04 #@! TO.N,Net-(U1-Pad31)*
X117628000Y-69400000D03*
G04 #@! TO.P,U1,30*
G04 #@! TO.N,ROW1*
X117628000Y-68600000D03*
G04 #@! TO.P,U1,29*
G04 #@! TO.N,COL0*
X117628000Y-67800000D03*
G04 #@! TO.P,U1,28*
G04 #@! TO.N,COL1*
X117628000Y-67000000D03*
G04 #@! TO.P,U1,27*
G04 #@! TO.N,ROW0*
X117628000Y-66200000D03*
G04 #@! TO.P,U1,26*
G04 #@! TO.N,Net-(U1-Pad26)*
X117628000Y-65400000D03*
G04 #@! TO.P,U1,25*
G04 #@! TO.N,Net-(U1-Pad25)*
X117628000Y-64600000D03*
G04 #@! TO.P,U1,24*
G04 #@! TO.N,+5V*
X117628000Y-63800000D03*
G04 #@! TO.P,U1,23*
G04 #@! TO.N,GND*
X117628000Y-63000000D03*
D14*
G04 #@! TO.P,U1,22*
G04 #@! TO.N,Net-(U1-Pad22)*
X115928000Y-61300000D03*
G04 #@! TO.P,U1,21*
G04 #@! TO.N,Net-(U1-Pad21)*
X115128000Y-61300000D03*
G04 #@! TO.P,U1,20*
G04 #@! TO.N,Net-(U1-Pad20)*
X114328000Y-61300000D03*
G04 #@! TO.P,U1,19*
G04 #@! TO.N,Net-(U1-Pad19)*
X113528000Y-61300000D03*
G04 #@! TO.P,U1,18*
G04 #@! TO.N,Net-(U1-Pad18)*
X112728000Y-61300000D03*
G04 #@! TO.P,U1,17*
G04 #@! TO.N,Net-(C3-Pad1)*
X111928000Y-61300000D03*
G04 #@! TO.P,U1,16*
G04 #@! TO.N,Net-(C5-Pad1)*
X111128000Y-61300000D03*
G04 #@! TO.P,U1,15*
G04 #@! TO.N,GND*
X110328000Y-61300000D03*
G04 #@! TO.P,U1,14*
G04 #@! TO.N,+5V*
X109528000Y-61300000D03*
G04 #@! TO.P,U1,13*
G04 #@! TO.N,Net-(R3-Pad2)*
X108728000Y-61300000D03*
G04 #@! TO.P,U1,12*
G04 #@! TO.N,Net-(U1-Pad12)*
X107928000Y-61300000D03*
D15*
G04 #@! TO.P,U1,11*
G04 #@! TO.N,COL2*
X106228000Y-63000000D03*
G04 #@! TO.P,U1,10*
G04 #@! TO.N,Net-(U1-Pad10)*
X106228000Y-63800000D03*
G04 #@! TO.P,U1,9*
G04 #@! TO.N,Net-(U1-Pad9)*
X106228000Y-64600000D03*
G04 #@! TO.P,U1,8*
G04 #@! TO.N,Net-(U1-Pad8)*
X106228000Y-65400000D03*
G04 #@! TO.P,U1,7*
G04 #@! TO.N,+5V*
X106228000Y-66200000D03*
G04 #@! TO.P,U1,6*
G04 #@! TO.N,Net-(C6-Pad1)*
X106228000Y-67000000D03*
G04 #@! TO.P,U1,5*
G04 #@! TO.N,GND*
X106228000Y-67800000D03*
G04 #@! TO.P,U1,4*
G04 #@! TO.N,Net-(R2-Pad1)*
X106228000Y-68600000D03*
G04 #@! TO.P,U1,3*
G04 #@! TO.N,Net-(R1-Pad1)*
X106228000Y-69400000D03*
G04 #@! TO.P,U1,2*
G04 #@! TO.N,+5V*
X106228000Y-70200000D03*
G04 #@! TO.P,U1,1*
G04 #@! TO.N,Net-(U1-Pad1)*
X106228000Y-71000000D03*
G04 #@! TD*
D16*
G04 #@! TO.P,SW1,4*
G04 #@! TO.N,N/C*
X101500000Y-66300000D03*
G04 #@! TO.P,SW1,3*
X95300000Y-62600000D03*
G04 #@! TO.P,SW1,2*
G04 #@! TO.N,Net-(R3-Pad2)*
X101500000Y-62600000D03*
G04 #@! TO.P,SW1,1*
G04 #@! TO.N,GND*
X95300000Y-66300000D03*
G04 #@! TD*
G04 #@! TO.P,R4,2*
G04 #@! TO.N,Net-(R4-Pad2)*
G04 #@! TA.AperFunction,SMDPad,CuDef*
G36*
G01*
X122312500Y-69949999D02*
X122312500Y-70850001D01*
G75*
G02*
X122062501Y-71100000I-249999J0D01*
G01*
X121537499Y-71100000D01*
G75*
G02*
X121287500Y-70850001I0J249999D01*
G01*
X121287500Y-69949999D01*
G75*
G02*
X121537499Y-69700000I249999J0D01*
G01*
X122062501Y-69700000D01*
G75*
G02*
X122312500Y-69949999I0J-249999D01*
G01*
G37*
G04 #@! TD.AperFunction*
G04 #@! TO.P,R4,1*
G04 #@! TO.N,GND*
G04 #@! TA.AperFunction,SMDPad,CuDef*
G36*
G01*
X124137500Y-69949999D02*
X124137500Y-70850001D01*
G75*
G02*
X123887501Y-71100000I-249999J0D01*
G01*
X123362499Y-71100000D01*
G75*
G02*
X123112500Y-70850001I0J249999D01*
G01*
X123112500Y-69949999D01*
G75*
G02*
X123362499Y-69700000I249999J0D01*
G01*
X123887501Y-69700000D01*
G75*
G02*
X124137500Y-69949999I0J-249999D01*
G01*
G37*
G04 #@! TD.AperFunction*
G04 #@! TD*
G04 #@! TO.P,R3,2*
G04 #@! TO.N,Net-(R3-Pad2)*
G04 #@! TA.AperFunction,SMDPad,CuDef*
G36*
G01*
X107850000Y-52849999D02*
X107850000Y-53750001D01*
G75*
G02*
X107600001Y-54000000I-249999J0D01*
G01*
X107074999Y-54000000D01*
G75*
G02*
X106825000Y-53750001I0J249999D01*
G01*
X106825000Y-52849999D01*
G75*
G02*
X107074999Y-52600000I249999J0D01*
G01*
X107600001Y-52600000D01*
G75*
G02*
X107850000Y-52849999I0J-249999D01*
G01*
G37*
G04 #@! TD.AperFunction*
G04 #@! TO.P,R3,1*
G04 #@! TO.N,+5V*
G04 #@! TA.AperFunction,SMDPad,CuDef*
G36*
G01*
X109675000Y-52849999D02*
X109675000Y-53750001D01*
G75*
G02*
X109425001Y-54000000I-249999J0D01*
G01*
X108899999Y-54000000D01*
G75*
G02*
X108650000Y-53750001I0J249999D01*
G01*
X108650000Y-52849999D01*
G75*
G02*
X108899999Y-52600000I249999J0D01*
G01*
X109425001Y-52600000D01*
G75*
G02*
X109675000Y-52849999I0J-249999D01*
G01*
G37*
G04 #@! TD.AperFunction*
G04 #@! TD*
G04 #@! TO.P,R2,2*
G04 #@! TO.N,D+*
G04 #@! TA.AperFunction,SMDPad,CuDef*
G36*
G01*
X94100001Y-58012500D02*
X93199999Y-58012500D01*
G75*
G02*
X92950000Y-57762501I0J249999D01*
G01*
X92950000Y-57237499D01*
G75*
G02*
X93199999Y-56987500I249999J0D01*
G01*
X94100001Y-56987500D01*
G75*
G02*
X94350000Y-57237499I0J-249999D01*
G01*
X94350000Y-57762501D01*
G75*
G02*
X94100001Y-58012500I-249999J0D01*
G01*
G37*
G04 #@! TD.AperFunction*
G04 #@! TO.P,R2,1*
G04 #@! TO.N,Net-(R2-Pad1)*
G04 #@! TA.AperFunction,SMDPad,CuDef*
G36*
G01*
X94100001Y-59837500D02*
X93199999Y-59837500D01*
G75*
G02*
X92950000Y-59587501I0J249999D01*
G01*
X92950000Y-59062499D01*
G75*
G02*
X93199999Y-58812500I249999J0D01*
G01*
X94100001Y-58812500D01*
G75*
G02*
X94350000Y-59062499I0J-249999D01*
G01*
X94350000Y-59587501D01*
G75*
G02*
X94100001Y-59837500I-249999J0D01*
G01*
G37*
G04 #@! TD.AperFunction*
G04 #@! TD*
G04 #@! TO.P,R1,2*
G04 #@! TO.N,D-*
G04 #@! TA.AperFunction,SMDPad,CuDef*
G36*
G01*
X92050001Y-58012500D02*
X91149999Y-58012500D01*
G75*
G02*
X90900000Y-57762501I0J249999D01*
G01*
X90900000Y-57237499D01*
G75*
G02*
X91149999Y-56987500I249999J0D01*
G01*
X92050001Y-56987500D01*
G75*
G02*
X92300000Y-57237499I0J-249999D01*
G01*
X92300000Y-57762501D01*
G75*
G02*
X92050001Y-58012500I-249999J0D01*
G01*
G37*
G04 #@! TD.AperFunction*
G04 #@! TO.P,R1,1*
G04 #@! TO.N,Net-(R1-Pad1)*
G04 #@! TA.AperFunction,SMDPad,CuDef*
G36*
G01*
X92050001Y-59837500D02*
X91149999Y-59837500D01*
G75*
G02*
X90900000Y-59587501I0J249999D01*
G01*
X90900000Y-59062499D01*
G75*
G02*
X91149999Y-58812500I249999J0D01*
G01*
X92050001Y-58812500D01*
G75*
G02*
X92300000Y-59062499I0J-249999D01*
G01*
X92300000Y-59587501D01*
G75*
G02*
X92050001Y-59837500I-249999J0D01*
G01*
G37*
G04 #@! TD.AperFunction*
G04 #@! TD*
D10*
G04 #@! TO.P,MX6,1*
G04 #@! TO.N,COL2*
X118920000Y-54930000D03*
G04 #@! TA.AperFunction,ComponentPad*
G36*
G01*
X116858688Y-57227350D02*
X116858683Y-57227345D01*
G75*
G02*
X116772655Y-55638683I751317J837345D01*
G01*
X118082657Y-54178683D01*
G75*
G02*
X119671319Y-54092655I837345J-751317D01*
G01*
X119671319Y-54092655D01*
G75*
G02*
X119757347Y-55681317I-751317J-837345D01*
G01*
X118447345Y-57141317D01*
G75*
G02*
X116858683Y-57227345I-837345J751317D01*
G01*
G37*
G04 #@! TD.AperFunction*
G04 #@! TO.P,MX6,2*
G04 #@! TO.N,Net-(D6-Pad2)*
X123960000Y-53850000D03*
G04 #@! TA.AperFunction,ComponentPad*
G36*
G01*
X123843483Y-55552395D02*
X123842597Y-55552334D01*
G75*
G02*
X122797666Y-54352597I77403J1122334D01*
G01*
X122837666Y-53772597D01*
G75*
G02*
X124037403Y-52727666I1122334J-77403D01*
G01*
X124037403Y-52727666D01*
G75*
G02*
X125082334Y-53927403I-77403J-1122334D01*
G01*
X125042334Y-54507403D01*
G75*
G02*
X123842597Y-55552334I-1122334J77403D01*
G01*
G37*
G04 #@! TD.AperFunction*
G04 #@! TD*
G04 #@! TO.P,MX5,1*
G04 #@! TO.N,COL2*
X118940000Y-74010000D03*
G04 #@! TA.AperFunction,ComponentPad*
G36*
G01*
X116878688Y-76307350D02*
X116878683Y-76307345D01*
G75*
G02*
X116792655Y-74718683I751317J837345D01*
G01*
X118102657Y-73258683D01*
G75*
G02*
X119691319Y-73172655I837345J-751317D01*
G01*
X119691319Y-73172655D01*
G75*
G02*
X119777347Y-74761317I-751317J-837345D01*
G01*
X118467345Y-76221317D01*
G75*
G02*
X116878683Y-76307345I-837345J751317D01*
G01*
G37*
G04 #@! TD.AperFunction*
G04 #@! TO.P,MX5,2*
G04 #@! TO.N,Net-(D5-Pad2)*
X123980000Y-72930000D03*
G04 #@! TA.AperFunction,ComponentPad*
G36*
G01*
X123863483Y-74632395D02*
X123862597Y-74632334D01*
G75*
G02*
X122817666Y-73432597I77403J1122334D01*
G01*
X122857666Y-72852597D01*
G75*
G02*
X124057403Y-71807666I1122334J-77403D01*
G01*
X124057403Y-71807666D01*
G75*
G02*
X125102334Y-73007403I-77403J-1122334D01*
G01*
X125062334Y-73587403D01*
G75*
G02*
X123862597Y-74632334I-1122334J77403D01*
G01*
G37*
G04 #@! TD.AperFunction*
G04 #@! TD*
G04 #@! TO.P,MX3,1*
G04 #@! TO.N,COL1*
X99900000Y-74030000D03*
G04 #@! TA.AperFunction,ComponentPad*
G36*
G01*
X97838688Y-76327350D02*
X97838683Y-76327345D01*
G75*
G02*
X97752655Y-74738683I751317J837345D01*
G01*
X99062657Y-73278683D01*
G75*
G02*
X100651319Y-73192655I837345J-751317D01*
G01*
X100651319Y-73192655D01*
G75*
G02*
X100737347Y-74781317I-751317J-837345D01*
G01*
X99427345Y-76241317D01*
G75*
G02*
X97838683Y-76327345I-837345J751317D01*
G01*
G37*
G04 #@! TD.AperFunction*
G04 #@! TO.P,MX3,2*
G04 #@! TO.N,Net-(D3-Pad2)*
X104940000Y-72950000D03*
G04 #@! TA.AperFunction,ComponentPad*
G36*
G01*
X104823483Y-74652395D02*
X104822597Y-74652334D01*
G75*
G02*
X103777666Y-73452597I77403J1122334D01*
G01*
X103817666Y-72872597D01*
G75*
G02*
X105017403Y-71827666I1122334J-77403D01*
G01*
X105017403Y-71827666D01*
G75*
G02*
X106062334Y-73027403I-77403J-1122334D01*
G01*
X106022334Y-73607403D01*
G75*
G02*
X104822597Y-74652334I-1122334J77403D01*
G01*
G37*
G04 #@! TD.AperFunction*
G04 #@! TD*
G04 #@! TO.P,MX1,1*
G04 #@! TO.N,COL0*
X80843750Y-74020000D03*
G04 #@! TA.AperFunction,ComponentPad*
G36*
G01*
X78782438Y-76317350D02*
X78782433Y-76317345D01*
G75*
G02*
X78696405Y-74728683I751317J837345D01*
G01*
X80006407Y-73268683D01*
G75*
G02*
X81595069Y-73182655I837345J-751317D01*
G01*
X81595069Y-73182655D01*
G75*
G02*
X81681097Y-74771317I-751317J-837345D01*
G01*
X80371095Y-76231317D01*
G75*
G02*
X78782433Y-76317345I-837345J751317D01*
G01*
G37*
G04 #@! TD.AperFunction*
G04 #@! TO.P,MX1,2*
G04 #@! TO.N,Net-(D1-Pad2)*
X85883750Y-72940000D03*
G04 #@! TA.AperFunction,ComponentPad*
G36*
G01*
X85767233Y-74642395D02*
X85766347Y-74642334D01*
G75*
G02*
X84721416Y-73442597I77403J1122334D01*
G01*
X84761416Y-72862597D01*
G75*
G02*
X85961153Y-71817666I1122334J-77403D01*
G01*
X85961153Y-71817666D01*
G75*
G02*
X87006084Y-73017403I-77403J-1122334D01*
G01*
X86966084Y-73597403D01*
G75*
G02*
X85766347Y-74642334I-1122334J77403D01*
G01*
G37*
G04 #@! TD.AperFunction*
G04 #@! TD*
G04 #@! TO.P,F1,2*
G04 #@! TO.N,VCC*
G04 #@! TA.AperFunction,SMDPad,CuDef*
G36*
G01*
X90425000Y-64025000D02*
X89175000Y-64025000D01*
G75*
G02*
X88925000Y-63775000I0J250000D01*
G01*
X88925000Y-63025000D01*
G75*
G02*
X89175000Y-62775000I250000J0D01*
G01*
X90425000Y-62775000D01*
G75*
G02*
X90675000Y-63025000I0J-250000D01*
G01*
X90675000Y-63775000D01*
G75*
G02*
X90425000Y-64025000I-250000J0D01*
G01*
G37*
G04 #@! TD.AperFunction*
G04 #@! TO.P,F1,1*
G04 #@! TO.N,+5V*
G04 #@! TA.AperFunction,SMDPad,CuDef*
G36*
G01*
X90425000Y-66825000D02*
X89175000Y-66825000D01*
G75*
G02*
X88925000Y-66575000I0J250000D01*
G01*
X88925000Y-65825000D01*
G75*
G02*
X89175000Y-65575000I250000J0D01*
G01*
X90425000Y-65575000D01*
G75*
G02*
X90675000Y-65825000I0J-250000D01*
G01*
X90675000Y-66575000D01*
G75*
G02*
X90425000Y-66825000I-250000J0D01*
G01*
G37*
G04 #@! TD.AperFunction*
G04 #@! TD*
D17*
G04 #@! TO.P,D6,2*
G04 #@! TO.N,Net-(D6-Pad2)*
X129800000Y-57300000D03*
G04 #@! TO.P,D6,1*
G04 #@! TO.N,ROW0*
X129800000Y-60600000D03*
G04 #@! TD*
G04 #@! TO.P,D5,2*
G04 #@! TO.N,Net-(D5-Pad2)*
X127000000Y-81350000D03*
G04 #@! TO.P,D5,1*
G04 #@! TO.N,ROW1*
X127000000Y-84650000D03*
G04 #@! TD*
G04 #@! TO.P,D4,2*
G04 #@! TO.N,Net-(D4-Pad2)*
X102050000Y-53350000D03*
G04 #@! TO.P,D4,1*
G04 #@! TO.N,ROW0*
X102050000Y-50050000D03*
G04 #@! TD*
G04 #@! TO.P,D3,2*
G04 #@! TO.N,Net-(D3-Pad2)*
X108000000Y-81350000D03*
G04 #@! TO.P,D3,1*
G04 #@! TO.N,ROW1*
X108000000Y-84650000D03*
G04 #@! TD*
D18*
G04 #@! TO.P,D2,2*
G04 #@! TO.N,Net-(D2-Pad2)*
X82300000Y-50650000D03*
G04 #@! TO.P,D2,1*
G04 #@! TO.N,ROW0*
X85600000Y-50650000D03*
G04 #@! TD*
D17*
G04 #@! TO.P,D1,2*
G04 #@! TO.N,Net-(D1-Pad2)*
X89000000Y-81350000D03*
G04 #@! TO.P,D1,1*
G04 #@! TO.N,ROW1*
X89000000Y-84650000D03*
G04 #@! TD*
G04 #@! TO.P,C7,2*
G04 #@! TO.N,GND*
G04 #@! TA.AperFunction,SMDPad,CuDef*
G36*
G01*
X89325000Y-70300000D02*
X90275000Y-70300000D01*
G75*
G02*
X90525000Y-70550000I0J-250000D01*
G01*
X90525000Y-71050000D01*
G75*
G02*
X90275000Y-71300000I-250000J0D01*
G01*
X89325000Y-71300000D01*
G75*
G02*
X89075000Y-71050000I0J250000D01*
G01*
X89075000Y-70550000D01*
G75*
G02*
X89325000Y-70300000I250000J0D01*
G01*
G37*
G04 #@! TD.AperFunction*
G04 #@! TO.P,C7,1*
G04 #@! TO.N,+5V*
G04 #@! TA.AperFunction,SMDPad,CuDef*
G36*
G01*
X89325000Y-68400000D02*
X90275000Y-68400000D01*
G75*
G02*
X90525000Y-68650000I0J-250000D01*
G01*
X90525000Y-69150000D01*
G75*
G02*
X90275000Y-69400000I-250000J0D01*
G01*
X89325000Y-69400000D01*
G75*
G02*
X89075000Y-69150000I0J250000D01*
G01*
X89075000Y-68650000D01*
G75*
G02*
X89325000Y-68400000I250000J0D01*
G01*
G37*
G04 #@! TD.AperFunction*
G04 #@! TD*
G04 #@! TO.P,C6,2*
G04 #@! TO.N,GND*
G04 #@! TA.AperFunction,SMDPad,CuDef*
G36*
G01*
X103225000Y-67100000D02*
X104175000Y-67100000D01*
G75*
G02*
X104425000Y-67350000I0J-250000D01*
G01*
X104425000Y-67850000D01*
G75*
G02*
X104175000Y-68100000I-250000J0D01*
G01*
X103225000Y-68100000D01*
G75*
G02*
X102975000Y-67850000I0J250000D01*
G01*
X102975000Y-67350000D01*
G75*
G02*
X103225000Y-67100000I250000J0D01*
G01*
G37*
G04 #@! TD.AperFunction*
G04 #@! TO.P,C6,1*
G04 #@! TO.N,Net-(C6-Pad1)*
G04 #@! TA.AperFunction,SMDPad,CuDef*
G36*
G01*
X103225000Y-65200000D02*
X104175000Y-65200000D01*
G75*
G02*
X104425000Y-65450000I0J-250000D01*
G01*
X104425000Y-65950000D01*
G75*
G02*
X104175000Y-66200000I-250000J0D01*
G01*
X103225000Y-66200000D01*
G75*
G02*
X102975000Y-65950000I0J250000D01*
G01*
X102975000Y-65450000D01*
G75*
G02*
X103225000Y-65200000I250000J0D01*
G01*
G37*
G04 #@! TD.AperFunction*
G04 #@! TD*
G04 #@! TO.P,C5,2*
G04 #@! TO.N,GND*
G04 #@! TA.AperFunction,SMDPad,CuDef*
G36*
G01*
X112125000Y-52700000D02*
X111175000Y-52700000D01*
G75*
G02*
X110925000Y-52450000I0J250000D01*
G01*
X110925000Y-51950000D01*
G75*
G02*
X111175000Y-51700000I250000J0D01*
G01*
X112125000Y-51700000D01*
G75*
G02*
X112375000Y-51950000I0J-250000D01*
G01*
X112375000Y-52450000D01*
G75*
G02*
X112125000Y-52700000I-250000J0D01*
G01*
G37*
G04 #@! TD.AperFunction*
G04 #@! TO.P,C5,1*
G04 #@! TO.N,Net-(C5-Pad1)*
G04 #@! TA.AperFunction,SMDPad,CuDef*
G36*
G01*
X112125000Y-54600000D02*
X111175000Y-54600000D01*
G75*
G02*
X110925000Y-54350000I0J250000D01*
G01*
X110925000Y-53850000D01*
G75*
G02*
X111175000Y-53600000I250000J0D01*
G01*
X112125000Y-53600000D01*
G75*
G02*
X112375000Y-53850000I0J-250000D01*
G01*
X112375000Y-54350000D01*
G75*
G02*
X112125000Y-54600000I-250000J0D01*
G01*
G37*
G04 #@! TD.AperFunction*
G04 #@! TD*
G04 #@! TO.P,C4,2*
G04 #@! TO.N,GND*
G04 #@! TA.AperFunction,SMDPad,CuDef*
G36*
G01*
X109650000Y-56625000D02*
X109650000Y-55675000D01*
G75*
G02*
X109900000Y-55425000I250000J0D01*
G01*
X110400000Y-55425000D01*
G75*
G02*
X110650000Y-55675000I0J-250000D01*
G01*
X110650000Y-56625000D01*
G75*
G02*
X110400000Y-56875000I-250000J0D01*
G01*
X109900000Y-56875000D01*
G75*
G02*
X109650000Y-56625000I0J250000D01*
G01*
G37*
G04 #@! TD.AperFunction*
G04 #@! TO.P,C4,1*
G04 #@! TO.N,+5V*
G04 #@! TA.AperFunction,SMDPad,CuDef*
G36*
G01*
X107750000Y-56625000D02*
X107750000Y-55675000D01*
G75*
G02*
X108000000Y-55425000I250000J0D01*
G01*
X108500000Y-55425000D01*
G75*
G02*
X108750000Y-55675000I0J-250000D01*
G01*
X108750000Y-56625000D01*
G75*
G02*
X108500000Y-56875000I-250000J0D01*
G01*
X108000000Y-56875000D01*
G75*
G02*
X107750000Y-56625000I0J250000D01*
G01*
G37*
G04 #@! TD.AperFunction*
G04 #@! TD*
G04 #@! TO.P,C3,2*
G04 #@! TO.N,GND*
G04 #@! TA.AperFunction,SMDPad,CuDef*
G36*
G01*
X113750000Y-55525000D02*
X113750000Y-56475000D01*
G75*
G02*
X113500000Y-56725000I-250000J0D01*
G01*
X113000000Y-56725000D01*
G75*
G02*
X112750000Y-56475000I0J250000D01*
G01*
X112750000Y-55525000D01*
G75*
G02*
X113000000Y-55275000I250000J0D01*
G01*
X113500000Y-55275000D01*
G75*
G02*
X113750000Y-55525000I0J-250000D01*
G01*
G37*
G04 #@! TD.AperFunction*
G04 #@! TO.P,C3,1*
G04 #@! TO.N,Net-(C3-Pad1)*
G04 #@! TA.AperFunction,SMDPad,CuDef*
G36*
G01*
X115650000Y-55525000D02*
X115650000Y-56475000D01*
G75*
G02*
X115400000Y-56725000I-250000J0D01*
G01*
X114900000Y-56725000D01*
G75*
G02*
X114650000Y-56475000I0J250000D01*
G01*
X114650000Y-55525000D01*
G75*
G02*
X114900000Y-55275000I250000J0D01*
G01*
X115400000Y-55275000D01*
G75*
G02*
X115650000Y-55525000I0J-250000D01*
G01*
G37*
G04 #@! TD.AperFunction*
G04 #@! TD*
G04 #@! TO.P,C2,2*
G04 #@! TO.N,GND*
G04 #@! TA.AperFunction,SMDPad,CuDef*
G36*
G01*
X110600000Y-76675000D02*
X110600000Y-75725000D01*
G75*
G02*
X110850000Y-75475000I250000J0D01*
G01*
X111350000Y-75475000D01*
G75*
G02*
X111600000Y-75725000I0J-250000D01*
G01*
X111600000Y-76675000D01*
G75*
G02*
X111350000Y-76925000I-250000J0D01*
G01*
X110850000Y-76925000D01*
G75*
G02*
X110600000Y-76675000I0J250000D01*
G01*
G37*
G04 #@! TD.AperFunction*
G04 #@! TO.P,C2,1*
G04 #@! TO.N,+5V*
G04 #@! TA.AperFunction,SMDPad,CuDef*
G36*
G01*
X108700000Y-76675000D02*
X108700000Y-75725000D01*
G75*
G02*
X108950000Y-75475000I250000J0D01*
G01*
X109450000Y-75475000D01*
G75*
G02*
X109700000Y-75725000I0J-250000D01*
G01*
X109700000Y-76675000D01*
G75*
G02*
X109450000Y-76925000I-250000J0D01*
G01*
X108950000Y-76925000D01*
G75*
G02*
X108700000Y-76675000I0J250000D01*
G01*
G37*
G04 #@! TD.AperFunction*
G04 #@! TD*
G04 #@! TO.P,C1,2*
G04 #@! TO.N,GND*
G04 #@! TA.AperFunction,SMDPad,CuDef*
G36*
G01*
X122375000Y-64300000D02*
X121425000Y-64300000D01*
G75*
G02*
X121175000Y-64050000I0J250000D01*
G01*
X121175000Y-63550000D01*
G75*
G02*
X121425000Y-63300000I250000J0D01*
G01*
X122375000Y-63300000D01*
G75*
G02*
X122625000Y-63550000I0J-250000D01*
G01*
X122625000Y-64050000D01*
G75*
G02*
X122375000Y-64300000I-250000J0D01*
G01*
G37*
G04 #@! TD.AperFunction*
G04 #@! TO.P,C1,1*
G04 #@! TO.N,+5V*
G04 #@! TA.AperFunction,SMDPad,CuDef*
G36*
G01*
X122375000Y-66200000D02*
X121425000Y-66200000D01*
G75*
G02*
X121175000Y-65950000I0J250000D01*
G01*
X121175000Y-65450000D01*
G75*
G02*
X121425000Y-65200000I250000J0D01*
G01*
X122375000Y-65200000D01*
G75*
G02*
X122625000Y-65450000I0J-250000D01*
G01*
X122625000Y-65950000D01*
G75*
G02*
X122375000Y-66200000I-250000J0D01*
G01*
G37*
G04 #@! TD.AperFunction*
G04 #@! TD*
D19*
G04 #@! TO.N,GND*
X126350000Y-70200000D03*
X126200000Y-64400000D03*
X95150000Y-67700000D03*
X93850000Y-72950000D03*
G04 #@! TO.N,+5V*
X109350000Y-51300000D03*
X124600000Y-65600000D03*
X106800000Y-76000000D03*
X103500000Y-75350000D03*
X110250000Y-78400000D03*
X113750000Y-78400000D03*
X95100000Y-64550000D03*
X105050000Y-56950000D03*
X109528000Y-59028000D03*
X91950000Y-70200000D03*
G04 #@! TO.N,COL0*
X128850000Y-69450000D03*
G04 #@! TO.N,COL1*
X103050000Y-86600000D03*
G04 #@! TO.N,COL2*
X99500000Y-63750000D03*
G04 #@! TD*
D20*
G04 #@! TO.N,GND*
X121100000Y-63000000D02*
X121900000Y-63800000D01*
X117628000Y-63000000D02*
X121100000Y-63000000D01*
X112800000Y-76159000D02*
X112800000Y-76200000D01*
X115128000Y-73831000D02*
X112800000Y-76159000D01*
X115128000Y-72700000D02*
X115128000Y-73831000D01*
X108728000Y-73828000D02*
X108728000Y-72700000D01*
X111100000Y-76200000D02*
X108728000Y-73828000D01*
X110328000Y-56328000D02*
X110328000Y-61300000D01*
X110150000Y-56150000D02*
X110328000Y-56328000D01*
X113250000Y-54750000D02*
X114000000Y-54000000D01*
X113250000Y-56000000D02*
X113250000Y-54750000D01*
X111650000Y-52200000D02*
X113050000Y-50800000D01*
X114700000Y-50800000D02*
X116200000Y-52300000D01*
X113050000Y-50800000D02*
X114700000Y-50800000D01*
X110150000Y-53700000D02*
X110150000Y-56150000D01*
X111650000Y-52200000D02*
X110150000Y-53700000D01*
X115897098Y-52300000D02*
X116200000Y-52300000D01*
X114197098Y-54000000D02*
X115897098Y-52300000D01*
X114000000Y-54000000D02*
X114197098Y-54000000D01*
X103800000Y-67600000D02*
X104000000Y-67800000D01*
X96600000Y-67600000D02*
X95300000Y-66300000D01*
X93750000Y-64750000D02*
X95300000Y-66300000D01*
X94310000Y-55660000D02*
X95300000Y-56650000D01*
X95300000Y-60447098D02*
X94447098Y-61300000D01*
X94310000Y-54640000D02*
X94310000Y-55660000D01*
X93750000Y-62000000D02*
X93750000Y-64750000D01*
X94447098Y-61300000D02*
X94447098Y-61302902D01*
X94447098Y-61302902D02*
X93750000Y-62000000D01*
X123625000Y-70400000D02*
X126150000Y-70400000D01*
X126150000Y-70400000D02*
X126350000Y-70200000D01*
X125600000Y-63800000D02*
X121900000Y-63800000D01*
X126200000Y-64400000D02*
X125600000Y-63800000D01*
X118550000Y-58050000D02*
X118550000Y-60450000D01*
X120900000Y-55700000D02*
X118550000Y-58050000D01*
X118550000Y-60450000D02*
X121900000Y-63800000D01*
X120900000Y-53850000D02*
X120900000Y-55700000D01*
X116200000Y-52300000D02*
X119350000Y-52300000D01*
X119350000Y-52300000D02*
X120900000Y-53850000D01*
X103900000Y-67800000D02*
X103700000Y-67600000D01*
X106228000Y-67800000D02*
X103900000Y-67800000D01*
X103700000Y-67600000D02*
X96600000Y-67600000D01*
X95300000Y-66300000D02*
X95300000Y-67550000D01*
X95300000Y-67550000D02*
X95150000Y-67700000D01*
X111100000Y-76200000D02*
X111100000Y-77250000D01*
X111100000Y-77250000D02*
X111950000Y-78100000D01*
X102318990Y-74582096D02*
X99650000Y-77251086D01*
X102318990Y-73018990D02*
X102318990Y-74582096D01*
X97450000Y-72100000D02*
X101400000Y-72100000D01*
X101400000Y-72100000D02*
X102318990Y-73018990D01*
X99650000Y-77251086D02*
X99650000Y-80000000D01*
X99650000Y-80000000D02*
X102400000Y-82750000D01*
X111950000Y-79152902D02*
X111950000Y-78100000D01*
X108352902Y-82750000D02*
X111950000Y-79152902D01*
X102400000Y-82750000D02*
X108352902Y-82750000D01*
X111100000Y-76200000D02*
X112800000Y-76200000D01*
X111950000Y-79152902D02*
X112697098Y-79900000D01*
X112697098Y-79900000D02*
X116900000Y-79900000D01*
X116900000Y-79900000D02*
X118550000Y-78250000D01*
X118550000Y-78250000D02*
X118550000Y-76800000D01*
X118550000Y-76800000D02*
X122100000Y-73250000D01*
X122100000Y-71925000D02*
X123625000Y-70400000D01*
X122100000Y-73250000D02*
X122100000Y-71925000D01*
X89800000Y-70800000D02*
X91950000Y-72950000D01*
X96600000Y-72950000D02*
X97450000Y-72100000D01*
X91950000Y-72950000D02*
X93850000Y-72950000D01*
X93850000Y-72950000D02*
X96600000Y-72950000D01*
X95300000Y-56650000D02*
X95300000Y-60447098D01*
X89060000Y-50140000D02*
X93257510Y-50140000D01*
X93257510Y-50140000D02*
X96360000Y-50140000D01*
X96360000Y-55590000D02*
X95300000Y-56650000D01*
X96360000Y-54640000D02*
X96360000Y-55590000D01*
G04 #@! TO.N,+5V*
X120000000Y-63800000D02*
X117628000Y-63800000D01*
X121900000Y-65700000D02*
X120000000Y-63800000D01*
X115928000Y-74972000D02*
X115928000Y-72700000D01*
X114700000Y-76200000D02*
X115928000Y-74972000D01*
X109200000Y-77300000D02*
X109200000Y-76200000D01*
X110200000Y-78300000D02*
X109200000Y-77300000D01*
X109528000Y-57428000D02*
X108250000Y-56150000D01*
X108250000Y-54212500D02*
X109162500Y-53300000D01*
X108250000Y-56150000D02*
X108250000Y-54212500D01*
X109162500Y-53300000D02*
X109162500Y-51487500D01*
X109162500Y-51487500D02*
X109350000Y-51300000D01*
X122000000Y-65600000D02*
X121900000Y-65700000D01*
X124600000Y-65600000D02*
X122000000Y-65600000D01*
X107928000Y-74928000D02*
X107928000Y-72700000D01*
X109200000Y-76200000D02*
X107928000Y-74928000D01*
X109200000Y-76200000D02*
X107000000Y-76200000D01*
X107000000Y-76200000D02*
X106800000Y-76000000D01*
X103500000Y-75350000D02*
X102900000Y-74750000D01*
X102900000Y-71100000D02*
X103800000Y-70200000D01*
X91950000Y-70200000D02*
X103800000Y-70200000D01*
X102900000Y-74750000D02*
X102900000Y-71100000D01*
X103800000Y-70200000D02*
X106228000Y-70200000D01*
X106228000Y-66200000D02*
X105250000Y-66200000D01*
X110200000Y-78300000D02*
X110200000Y-78350000D01*
X110200000Y-78350000D02*
X110250000Y-78400000D01*
X114700000Y-77450000D02*
X113750000Y-78400000D01*
X114700000Y-76200000D02*
X114700000Y-77450000D01*
X105250000Y-66200000D02*
X104900000Y-65850000D01*
X104900000Y-65850000D02*
X104900000Y-65269180D01*
X104900000Y-65269180D02*
X104180820Y-64550000D01*
X97250000Y-64550000D02*
X97250000Y-62200000D01*
X97250000Y-64550000D02*
X95100000Y-64550000D01*
X104180820Y-64550000D02*
X97250000Y-64550000D01*
X97250000Y-62200000D02*
X99400000Y-60050000D01*
X99400000Y-60050000D02*
X99400000Y-58200000D01*
X99400000Y-58200000D02*
X101500000Y-56100000D01*
X101500000Y-56100000D02*
X104200000Y-56100000D01*
X104200000Y-56100000D02*
X105050000Y-56950000D01*
X109528000Y-61300000D02*
X109528000Y-59028000D01*
X109528000Y-59028000D02*
X109528000Y-57428000D01*
X89800000Y-66200000D02*
X89800000Y-68900000D01*
X89800000Y-68900000D02*
X90650000Y-68900000D01*
X90650000Y-68900000D02*
X91950000Y-70200000D01*
D21*
G04 #@! TO.N,Net-(C3-Pad1)*
X112125999Y-61102001D02*
X111928000Y-61300000D01*
X112125999Y-59024001D02*
X112125999Y-61102001D01*
X115150000Y-56000000D02*
X112125999Y-59024001D01*
X116200000Y-54950000D02*
X115150000Y-56000000D01*
X116200000Y-54000000D02*
X116200000Y-54950000D01*
G04 #@! TO.N,Net-(C5-Pad1)*
X111061398Y-61233398D02*
X111128000Y-61300000D01*
X113811398Y-52300000D02*
X114000000Y-52300000D01*
X111128000Y-59922000D02*
X111550000Y-59500000D01*
X111128000Y-61300000D02*
X111128000Y-59922000D01*
X111550000Y-54200000D02*
X111650000Y-54100000D01*
X111550000Y-59500000D02*
X111550000Y-54200000D01*
X113450000Y-52300000D02*
X114000000Y-52300000D01*
X111650000Y-54100000D02*
X113450000Y-52300000D01*
G04 #@! TO.N,Net-(C6-Pad1)*
X105000000Y-67000000D02*
X106228000Y-67000000D01*
X103700000Y-65700000D02*
X105000000Y-67000000D01*
G04 #@! TO.N,Net-(D1-Pad2)*
X89000000Y-81350000D02*
X89000000Y-81200000D01*
X89000000Y-81200000D02*
X86450000Y-78650000D01*
X86450000Y-73506250D02*
X85883750Y-72940000D01*
X86450000Y-78650000D02*
X86450000Y-73506250D01*
G04 #@! TO.N,ROW1*
X108000000Y-84650000D02*
X127000000Y-84650000D01*
X108000000Y-84650000D02*
X89000000Y-84650000D01*
X119757933Y-68600000D02*
X120107933Y-68950000D01*
X117628000Y-68600000D02*
X119757933Y-68600000D01*
X120107933Y-68950000D02*
X126650000Y-68950000D01*
X127000000Y-84650000D02*
X129400000Y-82250000D01*
X129400000Y-71700000D02*
X126650000Y-68950000D01*
X129400000Y-82250000D02*
X129400000Y-71700000D01*
G04 #@! TO.N,Net-(D2-Pad2)*
X85843750Y-54193750D02*
X82300000Y-50650000D01*
X85843750Y-54500000D02*
X85843750Y-54193750D01*
G04 #@! TO.N,ROW0*
X117628000Y-66200000D02*
X119750000Y-66200000D01*
X119750000Y-66200000D02*
X120600000Y-67050000D01*
X120600000Y-67050000D02*
X127250000Y-67050000D01*
X129800000Y-64500000D02*
X129800000Y-60600000D01*
X127250000Y-67050000D02*
X129800000Y-64500000D01*
X99900000Y-52200000D02*
X102050000Y-50050000D01*
X88150000Y-52200000D02*
X99900000Y-52200000D01*
X85600000Y-50650000D02*
X86600000Y-50650000D01*
X86600000Y-50650000D02*
X88150000Y-52200000D01*
X102050000Y-50050000D02*
X128400000Y-50050000D01*
X128400000Y-50050000D02*
X131050000Y-52700000D01*
X131050000Y-59350000D02*
X129800000Y-60600000D01*
X131050000Y-52700000D02*
X131050000Y-59350000D01*
G04 #@! TO.N,Net-(D3-Pad2)*
X108000000Y-81350000D02*
X108000000Y-81000000D01*
X108000000Y-81000000D02*
X105300000Y-78300000D01*
X105300000Y-73310000D02*
X104940000Y-72950000D01*
X105300000Y-78300000D02*
X105300000Y-73310000D01*
G04 #@! TO.N,Net-(D4-Pad2)*
X103800000Y-53350000D02*
X104880000Y-54430000D01*
X102050000Y-53350000D02*
X103800000Y-53350000D01*
G04 #@! TO.N,Net-(D5-Pad2)*
X127000000Y-81350000D02*
X127000000Y-81150000D01*
X127000000Y-81150000D02*
X124500000Y-78650000D01*
X124500000Y-74070000D02*
X123940000Y-73510000D01*
X124500000Y-78650000D02*
X124500000Y-74070000D01*
G04 #@! TO.N,Net-(D6-Pad2)*
X126930000Y-54430000D02*
X129800000Y-57300000D01*
X123920000Y-54430000D02*
X126930000Y-54430000D01*
D20*
G04 #@! TO.N,VCC*
X91110000Y-54640000D02*
X91110000Y-55590000D01*
X91110000Y-55590000D02*
X89800000Y-56900000D01*
X89800000Y-56900000D02*
X89800000Y-59900000D01*
X89800000Y-59900000D02*
X89800000Y-63400000D01*
D21*
G04 #@! TO.N,COL0*
X117628000Y-67800000D02*
X119600000Y-67800000D01*
X119600000Y-67800000D02*
X120100000Y-68300000D01*
X120100000Y-68300000D02*
X126700000Y-68300000D01*
X126700000Y-68300000D02*
X127700000Y-68300000D01*
X127700000Y-68300000D02*
X128850000Y-69450000D01*
G04 #@! TO.N,COL1*
X117628000Y-67000000D02*
X119600000Y-67000000D01*
X119600000Y-67000000D02*
X120250000Y-67650000D01*
X103050000Y-86600000D02*
X129350000Y-86600000D01*
X129350000Y-86600000D02*
X130400000Y-85550000D01*
X130400000Y-85550000D02*
X130400000Y-68850000D01*
X130400000Y-68850000D02*
X129200000Y-67650000D01*
X129200000Y-67650000D02*
X126500000Y-67650000D01*
X120250000Y-67650000D02*
X126500000Y-67650000D01*
X126500000Y-67650000D02*
X126700000Y-67650000D01*
G04 #@! TO.N,COL2*
X104500000Y-63000000D02*
X106228000Y-63000000D01*
X104500000Y-63000000D02*
X103250000Y-63000000D01*
X103250000Y-63000000D02*
X102500000Y-63750000D01*
X102500000Y-63750000D02*
X99500000Y-63750000D01*
G04 #@! TO.N,D-*
X91910000Y-57190000D02*
X91910000Y-54640000D01*
X91600000Y-57500000D02*
X91910000Y-57190000D01*
G04 #@! TO.N,Net-(R1-Pad1)*
X91600000Y-60750000D02*
X91600000Y-59325000D01*
X105200000Y-69400000D02*
X104900000Y-69100000D01*
X106228000Y-69400000D02*
X105200000Y-69400000D01*
X104900000Y-69100000D02*
X94050000Y-69100000D01*
X92600000Y-67650000D02*
X92600000Y-61750000D01*
X94050000Y-69100000D02*
X92600000Y-67650000D01*
X92600000Y-61750000D02*
X91600000Y-60750000D01*
G04 #@! TO.N,D+*
X92710000Y-56560000D02*
X92710000Y-54640000D01*
X93650000Y-57500000D02*
X92710000Y-56560000D01*
G04 #@! TO.N,Net-(R2-Pad1)*
X93650000Y-61150000D02*
X93650000Y-59325000D01*
X93150000Y-61650000D02*
X93650000Y-61150000D01*
X106228000Y-68600000D02*
X94450000Y-68600000D01*
X93150000Y-67300000D02*
X93150000Y-61650000D01*
X94450000Y-68600000D02*
X93150000Y-67300000D01*
G04 #@! TO.N,Net-(R3-Pad2)*
X108728000Y-61300000D02*
X108728000Y-58178000D01*
X108728000Y-58178000D02*
X108050000Y-57500000D01*
X108050000Y-57500000D02*
X107350000Y-57500000D01*
X107350000Y-57500000D02*
X107000000Y-57150000D01*
X107000000Y-57150000D02*
X107000000Y-55000000D01*
X107337500Y-54662500D02*
X107000000Y-55000000D01*
X107337500Y-53300000D02*
X107337500Y-54662500D01*
X102654000Y-62600000D02*
X105750000Y-59504000D01*
X101500000Y-62600000D02*
X102654000Y-62600000D01*
X105750000Y-58400000D02*
X107000000Y-57150000D01*
X105750000Y-59504000D02*
X105750000Y-58400000D01*
G04 #@! TO.N,Net-(R4-Pad2)*
X117628000Y-71000000D02*
X120612500Y-71000000D01*
X121212500Y-70400000D02*
X120612500Y-71000000D01*
X121800000Y-70400000D02*
X121212500Y-70400000D01*
G04 #@! TD*
G04 #@! TO.N,GND*
X118536953Y-62109776D02*
X118499329Y-62098570D01*
X118374787Y-62086936D01*
X117913750Y-62090000D01*
X117755000Y-62248750D01*
X117755000Y-62873000D01*
X117775000Y-62873000D01*
X117775000Y-62886928D01*
X116878000Y-62886928D01*
X116753518Y-62899188D01*
X116633820Y-62935498D01*
X116523506Y-62994463D01*
X116426815Y-63073815D01*
X116347463Y-63170506D01*
X116335083Y-63193667D01*
X116243000Y-63285750D01*
X116252546Y-63399337D01*
X116252188Y-63400518D01*
X116239928Y-63525000D01*
X116239928Y-64075000D01*
X116252188Y-64199482D01*
X116252345Y-64200000D01*
X116252188Y-64200518D01*
X116239928Y-64325000D01*
X116239928Y-64875000D01*
X116252188Y-64999482D01*
X116252345Y-65000000D01*
X116252188Y-65000518D01*
X116239928Y-65125000D01*
X116239928Y-65675000D01*
X116252188Y-65799482D01*
X116252345Y-65800000D01*
X116252188Y-65800518D01*
X116239928Y-65925000D01*
X116239928Y-66475000D01*
X116252188Y-66599482D01*
X116252345Y-66600000D01*
X116252188Y-66600518D01*
X116239928Y-66725000D01*
X116239928Y-67275000D01*
X116252188Y-67399482D01*
X116252345Y-67400000D01*
X116252188Y-67400518D01*
X116239928Y-67525000D01*
X116239928Y-68075000D01*
X116252188Y-68199482D01*
X116252345Y-68200000D01*
X116252188Y-68200518D01*
X116239928Y-68325000D01*
X116239928Y-68875000D01*
X116252188Y-68999482D01*
X116252345Y-69000000D01*
X116252188Y-69000518D01*
X116239928Y-69125000D01*
X116239928Y-69675000D01*
X116252188Y-69799482D01*
X116252345Y-69800000D01*
X116252188Y-69800518D01*
X116239928Y-69925000D01*
X116239928Y-70475000D01*
X116252188Y-70599482D01*
X116252345Y-70600000D01*
X116252188Y-70600518D01*
X116239928Y-70725000D01*
X116239928Y-71275000D01*
X116243962Y-71315962D01*
X116203000Y-71311928D01*
X115653000Y-71311928D01*
X115528518Y-71324188D01*
X115527337Y-71324546D01*
X115413750Y-71315000D01*
X115321667Y-71407083D01*
X115298506Y-71419463D01*
X115201815Y-71498815D01*
X115128000Y-71588759D01*
X115054185Y-71498815D01*
X114957494Y-71419463D01*
X114934333Y-71407083D01*
X114842250Y-71315000D01*
X114728663Y-71324546D01*
X114727482Y-71324188D01*
X114603000Y-71311928D01*
X114053000Y-71311928D01*
X113928518Y-71324188D01*
X113928000Y-71324345D01*
X113927482Y-71324188D01*
X113803000Y-71311928D01*
X113253000Y-71311928D01*
X113128518Y-71324188D01*
X113128000Y-71324345D01*
X113127482Y-71324188D01*
X113003000Y-71311928D01*
X112453000Y-71311928D01*
X112328518Y-71324188D01*
X112328000Y-71324345D01*
X112327482Y-71324188D01*
X112203000Y-71311928D01*
X111653000Y-71311928D01*
X111528518Y-71324188D01*
X111528000Y-71324345D01*
X111527482Y-71324188D01*
X111403000Y-71311928D01*
X110853000Y-71311928D01*
X110728518Y-71324188D01*
X110728000Y-71324345D01*
X110727482Y-71324188D01*
X110603000Y-71311928D01*
X110053000Y-71311928D01*
X109928518Y-71324188D01*
X109928000Y-71324345D01*
X109927482Y-71324188D01*
X109803000Y-71311928D01*
X109253000Y-71311928D01*
X109128518Y-71324188D01*
X109127337Y-71324546D01*
X109013750Y-71315000D01*
X108921667Y-71407083D01*
X108898506Y-71419463D01*
X108801815Y-71498815D01*
X108728000Y-71588759D01*
X108654185Y-71498815D01*
X108557494Y-71419463D01*
X108534333Y-71407083D01*
X108442250Y-71315000D01*
X108328663Y-71324546D01*
X108327482Y-71324188D01*
X108203000Y-71311928D01*
X107653000Y-71311928D01*
X107612038Y-71315962D01*
X107616072Y-71275000D01*
X107616072Y-70725000D01*
X107603812Y-70600518D01*
X107603655Y-70600000D01*
X107603812Y-70599482D01*
X107616072Y-70475000D01*
X107616072Y-69925000D01*
X107603812Y-69800518D01*
X107603655Y-69800000D01*
X107603812Y-69799482D01*
X107616072Y-69675000D01*
X107616072Y-69125000D01*
X107603812Y-69000518D01*
X107603655Y-69000000D01*
X107603812Y-68999482D01*
X107616072Y-68875000D01*
X107616072Y-68325000D01*
X107603812Y-68200518D01*
X107603454Y-68199337D01*
X107613000Y-68085750D01*
X107520917Y-67993667D01*
X107508537Y-67970506D01*
X107429185Y-67873815D01*
X107339241Y-67800000D01*
X107429185Y-67726185D01*
X107508537Y-67629494D01*
X107520917Y-67606333D01*
X107613000Y-67514250D01*
X107603454Y-67400663D01*
X107603812Y-67399482D01*
X107616072Y-67275000D01*
X107616072Y-66725000D01*
X107603812Y-66600518D01*
X107603655Y-66600000D01*
X107603812Y-66599482D01*
X107616072Y-66475000D01*
X107616072Y-65925000D01*
X107603812Y-65800518D01*
X107603655Y-65800000D01*
X107603812Y-65799482D01*
X107616072Y-65675000D01*
X107616072Y-65125000D01*
X107603812Y-65000518D01*
X107603655Y-65000000D01*
X107603812Y-64999482D01*
X107616072Y-64875000D01*
X107616072Y-64325000D01*
X107603812Y-64200518D01*
X107603655Y-64200000D01*
X107603812Y-64199482D01*
X107616072Y-64075000D01*
X107616072Y-63525000D01*
X107603812Y-63400518D01*
X107603655Y-63400000D01*
X107603812Y-63399482D01*
X107616072Y-63275000D01*
X107616072Y-62725000D01*
X107612038Y-62684038D01*
X107653000Y-62688072D01*
X108203000Y-62688072D01*
X108327482Y-62675812D01*
X108328000Y-62675655D01*
X108328518Y-62675812D01*
X108453000Y-62688072D01*
X109003000Y-62688072D01*
X109127482Y-62675812D01*
X109128000Y-62675655D01*
X109128518Y-62675812D01*
X109253000Y-62688072D01*
X109803000Y-62688072D01*
X109927482Y-62675812D01*
X109928663Y-62675454D01*
X110042250Y-62685000D01*
X110134333Y-62592917D01*
X110157494Y-62580537D01*
X110254185Y-62501185D01*
X110328000Y-62411241D01*
X110401815Y-62501185D01*
X110498506Y-62580537D01*
X110521667Y-62592917D01*
X110613750Y-62685000D01*
X110727337Y-62675454D01*
X110728518Y-62675812D01*
X110853000Y-62688072D01*
X111403000Y-62688072D01*
X111527482Y-62675812D01*
X111528000Y-62675655D01*
X111528518Y-62675812D01*
X111653000Y-62688072D01*
X112203000Y-62688072D01*
X112327482Y-62675812D01*
X112328000Y-62675655D01*
X112328518Y-62675812D01*
X112453000Y-62688072D01*
X113003000Y-62688072D01*
X113127482Y-62675812D01*
X113128000Y-62675655D01*
X113128518Y-62675812D01*
X113253000Y-62688072D01*
X113803000Y-62688072D01*
X113927482Y-62675812D01*
X113928000Y-62675655D01*
X113928518Y-62675812D01*
X114053000Y-62688072D01*
X114603000Y-62688072D01*
X114727482Y-62675812D01*
X114728000Y-62675655D01*
X114728518Y-62675812D01*
X114853000Y-62688072D01*
X115403000Y-62688072D01*
X115527482Y-62675812D01*
X115528000Y-62675655D01*
X115528518Y-62675812D01*
X115653000Y-62688072D01*
X116203000Y-62688072D01*
X116245552Y-62683881D01*
X116243000Y-62714250D01*
X116401750Y-62873000D01*
X117501000Y-62873000D01*
X117501000Y-62248750D01*
X117342250Y-62090000D01*
X116881213Y-62086936D01*
X116837028Y-62091064D01*
X116841072Y-62050000D01*
X116841072Y-60550000D01*
X116838807Y-60527000D01*
X118524032Y-60527000D01*
X118536953Y-62109776D01*
G04 #@! TA.AperFunction,Conductor*
D22*
G36*
X118536953Y-62109776D02*
G01*
X118499329Y-62098570D01*
X118374787Y-62086936D01*
X117913750Y-62090000D01*
X117755000Y-62248750D01*
X117755000Y-62873000D01*
X117775000Y-62873000D01*
X117775000Y-62886928D01*
X116878000Y-62886928D01*
X116753518Y-62899188D01*
X116633820Y-62935498D01*
X116523506Y-62994463D01*
X116426815Y-63073815D01*
X116347463Y-63170506D01*
X116335083Y-63193667D01*
X116243000Y-63285750D01*
X116252546Y-63399337D01*
X116252188Y-63400518D01*
X116239928Y-63525000D01*
X116239928Y-64075000D01*
X116252188Y-64199482D01*
X116252345Y-64200000D01*
X116252188Y-64200518D01*
X116239928Y-64325000D01*
X116239928Y-64875000D01*
X116252188Y-64999482D01*
X116252345Y-65000000D01*
X116252188Y-65000518D01*
X116239928Y-65125000D01*
X116239928Y-65675000D01*
X116252188Y-65799482D01*
X116252345Y-65800000D01*
X116252188Y-65800518D01*
X116239928Y-65925000D01*
X116239928Y-66475000D01*
X116252188Y-66599482D01*
X116252345Y-66600000D01*
X116252188Y-66600518D01*
X116239928Y-66725000D01*
X116239928Y-67275000D01*
X116252188Y-67399482D01*
X116252345Y-67400000D01*
X116252188Y-67400518D01*
X116239928Y-67525000D01*
X116239928Y-68075000D01*
X116252188Y-68199482D01*
X116252345Y-68200000D01*
X116252188Y-68200518D01*
X116239928Y-68325000D01*
X116239928Y-68875000D01*
X116252188Y-68999482D01*
X116252345Y-69000000D01*
X116252188Y-69000518D01*
X116239928Y-69125000D01*
X116239928Y-69675000D01*
X116252188Y-69799482D01*
X116252345Y-69800000D01*
X116252188Y-69800518D01*
X116239928Y-69925000D01*
X116239928Y-70475000D01*
X116252188Y-70599482D01*
X116252345Y-70600000D01*
X116252188Y-70600518D01*
X116239928Y-70725000D01*
X116239928Y-71275000D01*
X116243962Y-71315962D01*
X116203000Y-71311928D01*
X115653000Y-71311928D01*
X115528518Y-71324188D01*
X115527337Y-71324546D01*
X115413750Y-71315000D01*
X115321667Y-71407083D01*
X115298506Y-71419463D01*
X115201815Y-71498815D01*
X115128000Y-71588759D01*
X115054185Y-71498815D01*
X114957494Y-71419463D01*
X114934333Y-71407083D01*
X114842250Y-71315000D01*
X114728663Y-71324546D01*
X114727482Y-71324188D01*
X114603000Y-71311928D01*
X114053000Y-71311928D01*
X113928518Y-71324188D01*
X113928000Y-71324345D01*
X113927482Y-71324188D01*
X113803000Y-71311928D01*
X113253000Y-71311928D01*
X113128518Y-71324188D01*
X113128000Y-71324345D01*
X113127482Y-71324188D01*
X113003000Y-71311928D01*
X112453000Y-71311928D01*
X112328518Y-71324188D01*
X112328000Y-71324345D01*
X112327482Y-71324188D01*
X112203000Y-71311928D01*
X111653000Y-71311928D01*
X111528518Y-71324188D01*
X111528000Y-71324345D01*
X111527482Y-71324188D01*
X111403000Y-71311928D01*
X110853000Y-71311928D01*
X110728518Y-71324188D01*
X110728000Y-71324345D01*
X110727482Y-71324188D01*
X110603000Y-71311928D01*
X110053000Y-71311928D01*
X109928518Y-71324188D01*
X109928000Y-71324345D01*
X109927482Y-71324188D01*
X109803000Y-71311928D01*
X109253000Y-71311928D01*
X109128518Y-71324188D01*
X109127337Y-71324546D01*
X109013750Y-71315000D01*
X108921667Y-71407083D01*
X108898506Y-71419463D01*
X108801815Y-71498815D01*
X108728000Y-71588759D01*
X108654185Y-71498815D01*
X108557494Y-71419463D01*
X108534333Y-71407083D01*
X108442250Y-71315000D01*
X108328663Y-71324546D01*
X108327482Y-71324188D01*
X108203000Y-71311928D01*
X107653000Y-71311928D01*
X107612038Y-71315962D01*
X107616072Y-71275000D01*
X107616072Y-70725000D01*
X107603812Y-70600518D01*
X107603655Y-70600000D01*
X107603812Y-70599482D01*
X107616072Y-70475000D01*
X107616072Y-69925000D01*
X107603812Y-69800518D01*
X107603655Y-69800000D01*
X107603812Y-69799482D01*
X107616072Y-69675000D01*
X107616072Y-69125000D01*
X107603812Y-69000518D01*
X107603655Y-69000000D01*
X107603812Y-68999482D01*
X107616072Y-68875000D01*
X107616072Y-68325000D01*
X107603812Y-68200518D01*
X107603454Y-68199337D01*
X107613000Y-68085750D01*
X107520917Y-67993667D01*
X107508537Y-67970506D01*
X107429185Y-67873815D01*
X107339241Y-67800000D01*
X107429185Y-67726185D01*
X107508537Y-67629494D01*
X107520917Y-67606333D01*
X107613000Y-67514250D01*
X107603454Y-67400663D01*
X107603812Y-67399482D01*
X107616072Y-67275000D01*
X107616072Y-66725000D01*
X107603812Y-66600518D01*
X107603655Y-66600000D01*
X107603812Y-66599482D01*
X107616072Y-66475000D01*
X107616072Y-65925000D01*
X107603812Y-65800518D01*
X107603655Y-65800000D01*
X107603812Y-65799482D01*
X107616072Y-65675000D01*
X107616072Y-65125000D01*
X107603812Y-65000518D01*
X107603655Y-65000000D01*
X107603812Y-64999482D01*
X107616072Y-64875000D01*
X107616072Y-64325000D01*
X107603812Y-64200518D01*
X107603655Y-64200000D01*
X107603812Y-64199482D01*
X107616072Y-64075000D01*
X107616072Y-63525000D01*
X107603812Y-63400518D01*
X107603655Y-63400000D01*
X107603812Y-63399482D01*
X107616072Y-63275000D01*
X107616072Y-62725000D01*
X107612038Y-62684038D01*
X107653000Y-62688072D01*
X108203000Y-62688072D01*
X108327482Y-62675812D01*
X108328000Y-62675655D01*
X108328518Y-62675812D01*
X108453000Y-62688072D01*
X109003000Y-62688072D01*
X109127482Y-62675812D01*
X109128000Y-62675655D01*
X109128518Y-62675812D01*
X109253000Y-62688072D01*
X109803000Y-62688072D01*
X109927482Y-62675812D01*
X109928663Y-62675454D01*
X110042250Y-62685000D01*
X110134333Y-62592917D01*
X110157494Y-62580537D01*
X110254185Y-62501185D01*
X110328000Y-62411241D01*
X110401815Y-62501185D01*
X110498506Y-62580537D01*
X110521667Y-62592917D01*
X110613750Y-62685000D01*
X110727337Y-62675454D01*
X110728518Y-62675812D01*
X110853000Y-62688072D01*
X111403000Y-62688072D01*
X111527482Y-62675812D01*
X111528000Y-62675655D01*
X111528518Y-62675812D01*
X111653000Y-62688072D01*
X112203000Y-62688072D01*
X112327482Y-62675812D01*
X112328000Y-62675655D01*
X112328518Y-62675812D01*
X112453000Y-62688072D01*
X113003000Y-62688072D01*
X113127482Y-62675812D01*
X113128000Y-62675655D01*
X113128518Y-62675812D01*
X113253000Y-62688072D01*
X113803000Y-62688072D01*
X113927482Y-62675812D01*
X113928000Y-62675655D01*
X113928518Y-62675812D01*
X114053000Y-62688072D01*
X114603000Y-62688072D01*
X114727482Y-62675812D01*
X114728000Y-62675655D01*
X114728518Y-62675812D01*
X114853000Y-62688072D01*
X115403000Y-62688072D01*
X115527482Y-62675812D01*
X115528000Y-62675655D01*
X115528518Y-62675812D01*
X115653000Y-62688072D01*
X116203000Y-62688072D01*
X116245552Y-62683881D01*
X116243000Y-62714250D01*
X116401750Y-62873000D01*
X117501000Y-62873000D01*
X117501000Y-62248750D01*
X117342250Y-62090000D01*
X116881213Y-62086936D01*
X116837028Y-62091064D01*
X116841072Y-62050000D01*
X116841072Y-60550000D01*
X116838807Y-60527000D01*
X118524032Y-60527000D01*
X118536953Y-62109776D01*
G37*
G04 #@! TD.AperFunction*
G04 #@! TD*
D21*
G04 #@! TO.N,GND*
X110286928Y-54350000D02*
X110303992Y-54523254D01*
X110354528Y-54689850D01*
X110417705Y-54808045D01*
X110277000Y-54948750D01*
X110277000Y-56023000D01*
X110297000Y-56023000D01*
X110297000Y-56277000D01*
X110277000Y-56277000D01*
X110277000Y-56297000D01*
X110023000Y-56297000D01*
X110023000Y-56277000D01*
X110003000Y-56277000D01*
X110003000Y-56023000D01*
X110023000Y-56023000D01*
X110023000Y-54948750D01*
X109864250Y-54790000D01*
X109650000Y-54786928D01*
X109525518Y-54799188D01*
X109405820Y-54835498D01*
X109295506Y-54894463D01*
X109198815Y-54973815D01*
X109133342Y-55053594D01*
X109127962Y-55047038D01*
X109075500Y-55003984D01*
X109075500Y-54638072D01*
X109425001Y-54638072D01*
X109598255Y-54621008D01*
X109764851Y-54570472D01*
X109918387Y-54488405D01*
X110052962Y-54377962D01*
X110163405Y-54243387D01*
X110245472Y-54089851D01*
X110286928Y-53953188D01*
X110286928Y-54350000D01*
G04 #@! TA.AperFunction,Conductor*
D22*
G36*
X110286928Y-54350000D02*
G01*
X110303992Y-54523254D01*
X110354528Y-54689850D01*
X110417705Y-54808045D01*
X110277000Y-54948750D01*
X110277000Y-56023000D01*
X110297000Y-56023000D01*
X110297000Y-56277000D01*
X110277000Y-56277000D01*
X110277000Y-56297000D01*
X110023000Y-56297000D01*
X110023000Y-56277000D01*
X110003000Y-56277000D01*
X110003000Y-56023000D01*
X110023000Y-56023000D01*
X110023000Y-54948750D01*
X109864250Y-54790000D01*
X109650000Y-54786928D01*
X109525518Y-54799188D01*
X109405820Y-54835498D01*
X109295506Y-54894463D01*
X109198815Y-54973815D01*
X109133342Y-55053594D01*
X109127962Y-55047038D01*
X109075500Y-55003984D01*
X109075500Y-54638072D01*
X109425001Y-54638072D01*
X109598255Y-54621008D01*
X109764851Y-54570472D01*
X109918387Y-54488405D01*
X110052962Y-54377962D01*
X110163405Y-54243387D01*
X110245472Y-54089851D01*
X110286928Y-53953188D01*
X110286928Y-54350000D01*
G37*
G04 #@! TD.AperFunction*
D21*
X113377000Y-55873000D02*
X113397000Y-55873000D01*
X113397000Y-56127000D01*
X113377000Y-56127000D01*
X113377000Y-56147000D01*
X113123000Y-56147000D01*
X113123000Y-56127000D01*
X113103000Y-56127000D01*
X113103000Y-55873000D01*
X113123000Y-55873000D01*
X113123000Y-55853000D01*
X113377000Y-55853000D01*
X113377000Y-55873000D01*
G04 #@! TA.AperFunction,Conductor*
D22*
G36*
X113377000Y-55873000D02*
G01*
X113397000Y-55873000D01*
X113397000Y-56127000D01*
X113377000Y-56127000D01*
X113377000Y-56147000D01*
X113123000Y-56147000D01*
X113123000Y-56127000D01*
X113103000Y-56127000D01*
X113103000Y-55873000D01*
X113123000Y-55873000D01*
X113123000Y-55853000D01*
X113377000Y-55853000D01*
X113377000Y-55873000D01*
G37*
G04 #@! TD.AperFunction*
D21*
X114127000Y-53873000D02*
X114147000Y-53873000D01*
X114147000Y-54127000D01*
X114127000Y-54127000D01*
X114127000Y-54147000D01*
X113873000Y-54147000D01*
X113873000Y-54127000D01*
X113853000Y-54127000D01*
X113853000Y-53873000D01*
X113873000Y-53873000D01*
X113873000Y-53853000D01*
X114127000Y-53853000D01*
X114127000Y-53873000D01*
G04 #@! TA.AperFunction,Conductor*
D22*
G36*
X114127000Y-53873000D02*
G01*
X114147000Y-53873000D01*
X114147000Y-54127000D01*
X114127000Y-54127000D01*
X114127000Y-54147000D01*
X113873000Y-54147000D01*
X113873000Y-54127000D01*
X113853000Y-54127000D01*
X113853000Y-53873000D01*
X113873000Y-53873000D01*
X113873000Y-53853000D01*
X114127000Y-53853000D01*
X114127000Y-53873000D01*
G37*
G04 #@! TD.AperFunction*
D21*
X117656085Y-53703267D02*
X117641837Y-53719147D01*
X117552919Y-53808065D01*
X117538072Y-53830285D01*
X117538072Y-53400000D01*
X117525812Y-53275518D01*
X117489502Y-53155820D01*
X117486391Y-53150000D01*
X117489502Y-53144180D01*
X117525812Y-53024482D01*
X117538072Y-52900000D01*
X117535000Y-52585750D01*
X117376250Y-52427000D01*
X116327000Y-52427000D01*
X116327000Y-52447000D01*
X116073000Y-52447000D01*
X116073000Y-52427000D01*
X116053000Y-52427000D01*
X116053000Y-52173000D01*
X116073000Y-52173000D01*
X116073000Y-51223750D01*
X116327000Y-51223750D01*
X116327000Y-52173000D01*
X117376250Y-52173000D01*
X117535000Y-52014250D01*
X117538072Y-51700000D01*
X117525812Y-51575518D01*
X117489502Y-51455820D01*
X117430537Y-51345506D01*
X117351185Y-51248815D01*
X117254494Y-51169463D01*
X117144180Y-51110498D01*
X117024482Y-51074188D01*
X116900000Y-51061928D01*
X116485750Y-51065000D01*
X116327000Y-51223750D01*
X116073000Y-51223750D01*
X115914250Y-51065000D01*
X115500000Y-51061928D01*
X115375518Y-51074188D01*
X115255820Y-51110498D01*
X115145506Y-51169463D01*
X115100000Y-51206809D01*
X115054494Y-51169463D01*
X114944180Y-51110498D01*
X114824482Y-51074188D01*
X114700000Y-51061928D01*
X113300000Y-51061928D01*
X113175518Y-51074188D01*
X113055820Y-51110498D01*
X112945506Y-51169463D01*
X112848815Y-51248815D01*
X112837500Y-51262602D01*
X112826185Y-51248815D01*
X112729494Y-51169463D01*
X112619180Y-51110498D01*
X112499482Y-51074188D01*
X112375000Y-51061928D01*
X111935750Y-51065000D01*
X111777000Y-51223750D01*
X111777000Y-52073000D01*
X111797000Y-52073000D01*
X111797000Y-52327000D01*
X111777000Y-52327000D01*
X111777000Y-52347000D01*
X111523000Y-52347000D01*
X111523000Y-52327000D01*
X110448750Y-52327000D01*
X110290000Y-52485750D01*
X110287656Y-52649213D01*
X110245472Y-52510149D01*
X110163405Y-52356613D01*
X110052962Y-52222038D01*
X109988000Y-52168725D01*
X109988000Y-52118486D01*
X110009774Y-52103937D01*
X110153937Y-51959774D01*
X110267205Y-51790256D01*
X110287519Y-51741214D01*
X110290000Y-51914250D01*
X110448750Y-52073000D01*
X111523000Y-52073000D01*
X111523000Y-51223750D01*
X111364250Y-51065000D01*
X110925000Y-51061928D01*
X110800518Y-51074188D01*
X110680820Y-51110498D01*
X110570506Y-51169463D01*
X110473815Y-51248815D01*
X110394463Y-51345506D01*
X110385000Y-51363210D01*
X110385000Y-51198061D01*
X110345226Y-50998102D01*
X110268139Y-50812000D01*
X117986516Y-50812000D01*
X117656085Y-53703267D01*
G04 #@! TA.AperFunction,Conductor*
D22*
G36*
X117656085Y-53703267D02*
G01*
X117641837Y-53719147D01*
X117552919Y-53808065D01*
X117538072Y-53830285D01*
X117538072Y-53400000D01*
X117525812Y-53275518D01*
X117489502Y-53155820D01*
X117486391Y-53150000D01*
X117489502Y-53144180D01*
X117525812Y-53024482D01*
X117538072Y-52900000D01*
X117535000Y-52585750D01*
X117376250Y-52427000D01*
X116327000Y-52427000D01*
X116327000Y-52447000D01*
X116073000Y-52447000D01*
X116073000Y-52427000D01*
X116053000Y-52427000D01*
X116053000Y-52173000D01*
X116073000Y-52173000D01*
X116073000Y-51223750D01*
X116327000Y-51223750D01*
X116327000Y-52173000D01*
X117376250Y-52173000D01*
X117535000Y-52014250D01*
X117538072Y-51700000D01*
X117525812Y-51575518D01*
X117489502Y-51455820D01*
X117430537Y-51345506D01*
X117351185Y-51248815D01*
X117254494Y-51169463D01*
X117144180Y-51110498D01*
X117024482Y-51074188D01*
X116900000Y-51061928D01*
X116485750Y-51065000D01*
X116327000Y-51223750D01*
X116073000Y-51223750D01*
X115914250Y-51065000D01*
X115500000Y-51061928D01*
X115375518Y-51074188D01*
X115255820Y-51110498D01*
X115145506Y-51169463D01*
X115100000Y-51206809D01*
X115054494Y-51169463D01*
X114944180Y-51110498D01*
X114824482Y-51074188D01*
X114700000Y-51061928D01*
X113300000Y-51061928D01*
X113175518Y-51074188D01*
X113055820Y-51110498D01*
X112945506Y-51169463D01*
X112848815Y-51248815D01*
X112837500Y-51262602D01*
X112826185Y-51248815D01*
X112729494Y-51169463D01*
X112619180Y-51110498D01*
X112499482Y-51074188D01*
X112375000Y-51061928D01*
X111935750Y-51065000D01*
X111777000Y-51223750D01*
X111777000Y-52073000D01*
X111797000Y-52073000D01*
X111797000Y-52327000D01*
X111777000Y-52327000D01*
X111777000Y-52347000D01*
X111523000Y-52347000D01*
X111523000Y-52327000D01*
X110448750Y-52327000D01*
X110290000Y-52485750D01*
X110287656Y-52649213D01*
X110245472Y-52510149D01*
X110163405Y-52356613D01*
X110052962Y-52222038D01*
X109988000Y-52168725D01*
X109988000Y-52118486D01*
X110009774Y-52103937D01*
X110153937Y-51959774D01*
X110267205Y-51790256D01*
X110287519Y-51741214D01*
X110290000Y-51914250D01*
X110448750Y-52073000D01*
X111523000Y-52073000D01*
X111523000Y-51223750D01*
X111364250Y-51065000D01*
X110925000Y-51061928D01*
X110800518Y-51074188D01*
X110680820Y-51110498D01*
X110570506Y-51169463D01*
X110473815Y-51248815D01*
X110394463Y-51345506D01*
X110385000Y-51363210D01*
X110385000Y-51198061D01*
X110345226Y-50998102D01*
X110268139Y-50812000D01*
X117986516Y-50812000D01*
X117656085Y-53703267D01*
G37*
G04 #@! TD.AperFunction*
G04 #@! TD*
D21*
G04 #@! TO.N,GND*
X95195824Y-56070619D02*
X95399748Y-56279857D01*
X95640574Y-56445291D01*
X95909047Y-56560563D01*
X96003110Y-56581476D01*
X96232998Y-56460156D01*
X96232998Y-56547305D01*
X95986368Y-56690091D01*
X95966149Y-56704617D01*
X95949152Y-56722808D01*
X95936030Y-56743966D01*
X95927288Y-56767277D01*
X95923052Y-56796373D01*
X95876650Y-58420453D01*
X95848029Y-58489549D01*
X95790000Y-58781278D01*
X95790000Y-59078722D01*
X95848029Y-59370451D01*
X95849412Y-59373789D01*
X95826577Y-60173000D01*
X94762810Y-60173000D01*
X94838405Y-60080887D01*
X94920472Y-59927351D01*
X94971008Y-59760755D01*
X94988072Y-59587501D01*
X94988072Y-59062499D01*
X94971008Y-58889245D01*
X94920472Y-58722649D01*
X94838405Y-58569113D01*
X94727962Y-58434538D01*
X94701109Y-58412500D01*
X94727962Y-58390462D01*
X94838405Y-58255887D01*
X94920472Y-58102351D01*
X94971008Y-57935755D01*
X94988072Y-57762501D01*
X94988072Y-57237499D01*
X94971008Y-57064245D01*
X94920472Y-56897649D01*
X94838405Y-56744113D01*
X94727962Y-56609538D01*
X94593387Y-56499095D01*
X94439851Y-56417028D01*
X94383717Y-56400000D01*
X94437002Y-56400000D01*
X94437002Y-56245252D01*
X94591750Y-56400000D01*
X94691361Y-56389404D01*
X94810652Y-56351779D01*
X94920311Y-56291604D01*
X95016123Y-56211193D01*
X95094406Y-56113634D01*
X95151943Y-56003082D01*
X95195824Y-56070619D01*
G04 #@! TA.AperFunction,Conductor*
D22*
G36*
X95195824Y-56070619D02*
G01*
X95399748Y-56279857D01*
X95640574Y-56445291D01*
X95909047Y-56560563D01*
X96003110Y-56581476D01*
X96232998Y-56460156D01*
X96232998Y-56547305D01*
X95986368Y-56690091D01*
X95966149Y-56704617D01*
X95949152Y-56722808D01*
X95936030Y-56743966D01*
X95927288Y-56767277D01*
X95923052Y-56796373D01*
X95876650Y-58420453D01*
X95848029Y-58489549D01*
X95790000Y-58781278D01*
X95790000Y-59078722D01*
X95848029Y-59370451D01*
X95849412Y-59373789D01*
X95826577Y-60173000D01*
X94762810Y-60173000D01*
X94838405Y-60080887D01*
X94920472Y-59927351D01*
X94971008Y-59760755D01*
X94988072Y-59587501D01*
X94988072Y-59062499D01*
X94971008Y-58889245D01*
X94920472Y-58722649D01*
X94838405Y-58569113D01*
X94727962Y-58434538D01*
X94701109Y-58412500D01*
X94727962Y-58390462D01*
X94838405Y-58255887D01*
X94920472Y-58102351D01*
X94971008Y-57935755D01*
X94988072Y-57762501D01*
X94988072Y-57237499D01*
X94971008Y-57064245D01*
X94920472Y-56897649D01*
X94838405Y-56744113D01*
X94727962Y-56609538D01*
X94593387Y-56499095D01*
X94439851Y-56417028D01*
X94383717Y-56400000D01*
X94437002Y-56400000D01*
X94437002Y-56245252D01*
X94591750Y-56400000D01*
X94691361Y-56389404D01*
X94810652Y-56351779D01*
X94920311Y-56291604D01*
X95016123Y-56211193D01*
X95094406Y-56113634D01*
X95151943Y-56003082D01*
X95195824Y-56070619D01*
G37*
G04 #@! TD.AperFunction*
D21*
X94433000Y-54513000D02*
X96233000Y-54513000D01*
X96233000Y-54493000D01*
X96487000Y-54493000D01*
X96487000Y-54513000D01*
X96507000Y-54513000D01*
X96507000Y-54767000D01*
X96487000Y-54767000D01*
X96487000Y-54787000D01*
X96233000Y-54787000D01*
X96233000Y-54767000D01*
X94433000Y-54767000D01*
X94433000Y-54787000D01*
X94398072Y-54787000D01*
X94398072Y-54493000D01*
X94433000Y-54493000D01*
X94433000Y-54513000D01*
G04 #@! TA.AperFunction,Conductor*
D22*
G36*
X94433000Y-54513000D02*
G01*
X96233000Y-54513000D01*
X96233000Y-54493000D01*
X96487000Y-54493000D01*
X96487000Y-54513000D01*
X96507000Y-54513000D01*
X96507000Y-54767000D01*
X96487000Y-54767000D01*
X96487000Y-54787000D01*
X96233000Y-54787000D01*
X96233000Y-54767000D01*
X94433000Y-54767000D01*
X94433000Y-54787000D01*
X94398072Y-54787000D01*
X94398072Y-54493000D01*
X94433000Y-54493000D01*
X94433000Y-54513000D01*
G37*
G04 #@! TD.AperFunction*
D21*
X89187000Y-54513000D02*
X89207000Y-54513000D01*
X89207000Y-54767000D01*
X89187000Y-54767000D01*
X89187000Y-54787000D01*
X88933000Y-54787000D01*
X88933000Y-54767000D01*
X88913000Y-54767000D01*
X88913000Y-54513000D01*
X88933000Y-54513000D01*
X88933000Y-54493000D01*
X89187000Y-54493000D01*
X89187000Y-54513000D01*
G04 #@! TA.AperFunction,Conductor*
D22*
G36*
X89187000Y-54513000D02*
G01*
X89207000Y-54513000D01*
X89207000Y-54767000D01*
X89187000Y-54767000D01*
X89187000Y-54787000D01*
X88933000Y-54787000D01*
X88933000Y-54767000D01*
X88913000Y-54767000D01*
X88913000Y-54513000D01*
X88933000Y-54513000D01*
X88933000Y-54493000D01*
X89187000Y-54493000D01*
X89187000Y-54513000D01*
G37*
G04 #@! TD.AperFunction*
D21*
X95036639Y-48954382D02*
X94928310Y-49225731D01*
X94875000Y-49513000D01*
X94875000Y-50013000D01*
X96233000Y-50013000D01*
X96233000Y-49993000D01*
X96487000Y-49993000D01*
X96487000Y-50013000D01*
X97845000Y-50013000D01*
X97845000Y-49513000D01*
X97791690Y-49225731D01*
X97683361Y-48954382D01*
X97661022Y-48920000D01*
X98181530Y-48920000D01*
X98026576Y-51438000D01*
X97610343Y-51438000D01*
X97683361Y-51325618D01*
X97791690Y-51054269D01*
X97845000Y-50767000D01*
X97845000Y-50267000D01*
X96487000Y-50267000D01*
X96487000Y-50287000D01*
X96233000Y-50287000D01*
X96233000Y-50267000D01*
X94875000Y-50267000D01*
X94875000Y-50767000D01*
X94928310Y-51054269D01*
X95036639Y-51325618D01*
X95109657Y-51438000D01*
X90310343Y-51438000D01*
X90383361Y-51325618D01*
X90491690Y-51054269D01*
X90545000Y-50767000D01*
X90545000Y-50267000D01*
X89187000Y-50267000D01*
X89187000Y-50287000D01*
X88933000Y-50287000D01*
X88933000Y-50267000D01*
X88913000Y-50267000D01*
X88913000Y-50013000D01*
X88933000Y-50013000D01*
X88933000Y-49993000D01*
X89187000Y-49993000D01*
X89187000Y-50013000D01*
X90545000Y-50013000D01*
X90545000Y-49513000D01*
X90491690Y-49225731D01*
X90383361Y-48954382D01*
X90361022Y-48920000D01*
X95058978Y-48920000D01*
X95036639Y-48954382D01*
G04 #@! TA.AperFunction,Conductor*
D22*
G36*
X95036639Y-48954382D02*
G01*
X94928310Y-49225731D01*
X94875000Y-49513000D01*
X94875000Y-50013000D01*
X96233000Y-50013000D01*
X96233000Y-49993000D01*
X96487000Y-49993000D01*
X96487000Y-50013000D01*
X97845000Y-50013000D01*
X97845000Y-49513000D01*
X97791690Y-49225731D01*
X97683361Y-48954382D01*
X97661022Y-48920000D01*
X98181530Y-48920000D01*
X98026576Y-51438000D01*
X97610343Y-51438000D01*
X97683361Y-51325618D01*
X97791690Y-51054269D01*
X97845000Y-50767000D01*
X97845000Y-50267000D01*
X96487000Y-50267000D01*
X96487000Y-50287000D01*
X96233000Y-50287000D01*
X96233000Y-50267000D01*
X94875000Y-50267000D01*
X94875000Y-50767000D01*
X94928310Y-51054269D01*
X95036639Y-51325618D01*
X95109657Y-51438000D01*
X90310343Y-51438000D01*
X90383361Y-51325618D01*
X90491690Y-51054269D01*
X90545000Y-50767000D01*
X90545000Y-50267000D01*
X89187000Y-50267000D01*
X89187000Y-50287000D01*
X88933000Y-50287000D01*
X88933000Y-50267000D01*
X88913000Y-50267000D01*
X88913000Y-50013000D01*
X88933000Y-50013000D01*
X88933000Y-49993000D01*
X89187000Y-49993000D01*
X89187000Y-50013000D01*
X90545000Y-50013000D01*
X90545000Y-49513000D01*
X90491690Y-49225731D01*
X90383361Y-48954382D01*
X90361022Y-48920000D01*
X95058978Y-48920000D01*
X95036639Y-48954382D01*
G37*
G04 #@! TD.AperFunction*
G04 #@! TD*
M02*
